<svg width="132" height="30" viewBox="0 0 132 30" fill="none"
  xmlns="http://www.w3.org/2000/svg">
  <path d="M37.8815 10.4114C36.5322 10.4114 35.4805 10.9656 34.8058 11.975V10.6093H32.0078V23.534H34.8058V18.9619C35.4805 19.9713 36.5322 20.5255 37.8815 20.5255C40.4017 20.5255 42.4059 18.2493 42.4059 15.4586C42.4059 12.6678 40.4017 10.4114 37.8815 10.4114ZM37.2465 17.8535C35.8773 17.8535 34.8058 16.8242 34.8058 15.4586C34.8058 14.1126 35.8773 13.0636 37.2465 13.0636C38.5959 13.0636 39.6675 14.1324 39.6675 15.4586C39.6675 16.8045 38.5959 17.8535 37.2465 17.8535Z" fill="black"/>
  <path d="M50.4561 10.6093V11.9948C49.7814 10.9854 48.7297 10.4114 47.3605 10.4114C44.8403 10.4114 42.8361 12.6678 42.8361 15.4586C42.8361 18.2493 44.8403 20.5255 47.3605 20.5255C48.7297 20.5255 49.7814 19.9515 50.4561 18.9421V20.3276H53.254V10.6093H50.4561ZM48.0153 17.8535C46.6659 17.8535 45.5745 16.8045 45.5745 15.4586C45.5745 14.1324 46.6659 13.0636 48.0153 13.0636C49.3845 13.0636 50.4561 14.1126 50.4561 15.4586C50.4561 16.8242 49.3845 17.8535 48.0153 17.8535Z" fill="black"/>
  <path d="M60.8252 13.2616V10.6093H58.4241V8.05607H55.6261V10.6093H53.8204V13.2616H55.6261V16.369C55.6261 18.9817 57.174 20.4859 59.4758 20.4859C59.8727 20.4859 60.4482 20.4265 60.8252 20.3276V17.7545C60.6069 17.8139 60.3489 17.8337 60.1108 17.8337C59.1385 17.8337 58.4241 17.3784 58.4241 16.3294V13.2616H60.8252Z" fill="black"/>
  <path d="M65.9873 20.5255C68.4678 20.5255 70.5514 18.8629 70.7697 16.5471H67.932C67.7336 17.2993 66.92 17.8535 65.9873 17.8535C64.6578 17.8535 63.6656 16.8242 63.6656 15.4783C63.6656 14.0929 64.6578 13.0834 65.9873 13.0834C66.92 13.0834 67.7137 13.598 67.9122 14.3106H70.7498C70.4919 12.074 68.4281 10.4114 65.9873 10.4114C63.11 10.4114 60.9272 12.5886 60.9272 15.4783C60.9272 18.3681 63.11 20.5255 65.9873 20.5255Z" fill="black"/>
  <path d="M77.0572 10.4114C75.9459 10.4114 75.0331 10.9458 74.418 11.8761V6.47266H71.62V20.3276H74.418V15.1815C74.418 13.9147 75.172 13.0834 76.3428 13.0834C77.4937 13.0834 78.2676 13.9147 78.2676 15.1815V20.3276H81.0656V14.8252C81.0656 12.074 79.5575 10.4114 77.0572 10.4114Z" fill="black"/>
  <path d="M84.4975 20.3276H86.6604L88.6448 15.0033L90.6093 20.3276H92.812L96.3243 10.6093H93.3081L91.7007 15.9336L89.7362 10.6093H87.5534L85.6087 15.9336L83.9815 10.6093H80.9851L84.4975 20.3276Z" fill="black"/>
  <path d="M101.021 10.4114C98.1434 10.4114 95.9606 12.5886 95.9606 15.4783C95.9606 18.3681 98.1434 20.5255 101.021 20.5255C103.878 20.5255 106.081 18.3681 106.081 15.4783C106.081 12.5886 103.878 10.4114 101.021 10.4114ZM101.021 13.0834C102.33 13.0834 103.342 14.0929 103.342 15.4783C103.342 16.8242 102.33 17.8535 101.021 17.8535C99.6912 17.8535 98.699 16.8242 98.699 15.4783C98.699 14.0929 99.6912 13.0834 101.021 13.0834Z" fill="black"/>
  <path d="M112.378 10.4114C111.287 10.4114 110.434 10.8864 109.858 11.7177V10.6093H107.06V20.3276H109.858V15.5377C109.858 13.7366 110.95 12.9251 112.299 12.9251C112.636 12.9251 112.974 12.9845 113.311 13.0636V10.5302C112.994 10.4708 112.676 10.4114 112.378 10.4114Z" fill="black"/>
  <path d="M123.906 20.3276L119.54 15.3002L123.588 10.6093H120.155L116.782 14.6273V6.47266H113.984V20.3276H116.782V15.9732L120.314 20.3276H123.906Z" fill="black"/>
  <path d="M128.093 20.5255C130.295 20.5255 131.982 19.1598 131.982 17.3784C131.982 13.3209 126.485 14.9044 126.485 13.4001C126.485 12.9449 126.962 12.7272 127.597 12.7272C128.49 12.7272 129.025 13.1626 129.065 13.6574H131.883C131.645 11.5 129.76 10.4114 127.656 10.4114C125.255 10.4114 123.787 11.7969 123.787 13.598C123.787 17.2201 129.263 15.795 129.263 17.3982C129.263 17.8535 128.787 18.1306 127.954 18.1306C127.021 18.1306 126.327 17.6951 126.267 17.042H123.588C123.787 19.239 125.553 20.5255 128.093 20.5255Z" fill="black"/>
  <path d="M3.98034 21.1174C3.73296 21.0513 3.50325 20.9852 3.26913 20.9235C2.43864 20.6988 1.60815 20.4741 0.777658 20.245C0.384501 20.1348 0.141539 19.8748 0.0576066 19.4783C0.0222667 19.3241 0.0355189 19.1699 0.0752764 19.0201C0.340326 18.0331 0.605376 17.0417 0.874843 16.0547C0.923436 15.8653 1.02062 15.7022 1.15756 15.5656C1.85553 14.8695 2.55349 14.1733 3.25146 13.4771C3.47233 13.2568 3.73738 13.1467 4.0466 13.1731C4.13937 13.1775 4.22772 13.2039 4.31607 13.226C4.84617 13.367 5.37627 13.508 5.90195 13.649C5.92846 13.6578 5.95938 13.6622 6.00355 13.671C6.08749 13.367 6.167 13.0629 6.25093 12.7545C6.22001 12.7457 6.19792 12.7325 6.17584 12.7281C5.13331 12.4505 4.0952 12.1729 3.05267 11.8953C2.6065 11.7763 2.32378 11.4503 2.28844 10.9965C2.27961 10.8819 2.29728 10.7629 2.3282 10.6484C2.5314 9.86849 2.74344 9.0886 2.95107 8.30871C3.00408 8.10162 3.0615 7.89894 3.11451 7.69185C3.16311 7.5112 3.25146 7.35258 3.3884 7.22039C4.0952 6.51541 4.79758 5.81042 5.50438 5.10985C5.78268 4.83667 6.11399 4.75295 6.48948 4.84988C7.04167 4.99088 7.58944 5.14069 8.14162 5.2905C8.16813 5.29931 8.19905 5.30372 8.23439 5.31253C8.24322 5.28609 8.25648 5.26847 8.26531 5.24203C8.30949 5.079 8.35366 4.91598 8.39784 4.75295C8.44643 4.56789 8.5392 4.40927 8.67614 4.27268C9.37852 3.57651 10.0765 2.87593 10.7789 2.17976C11.0572 1.90217 11.3885 1.80964 11.7728 1.91098C12.7623 2.17535 13.7518 2.44413 14.7458 2.69968C15.2626 2.83187 15.6249 3.36501 15.4658 3.94662C15.2096 4.88073 14.9622 5.81483 14.706 6.75334C14.6839 6.83706 14.6618 6.92077 14.6353 7.02212C15.3024 7.19836 15.9606 7.37461 16.6276 7.55085C16.6674 7.40545 16.7071 7.26886 16.7425 7.12786C16.7557 7.07499 16.7734 7.02212 16.7867 6.96924C16.8308 6.793 16.9192 6.64319 17.0473 6.51541C17.7541 5.81042 18.4609 5.10103 19.1721 4.39605C19.4372 4.13168 19.7641 4.03915 20.1263 4.13168C21.1379 4.39605 22.1451 4.66042 23.1523 4.9336C23.6912 5.079 23.9916 5.61215 23.8458 6.1541C23.5852 7.13668 23.3157 8.11484 23.0551 9.09741C23.0418 9.14147 23.033 9.18113 23.0197 9.234C23.0639 9.24722 23.1081 9.26485 23.1523 9.27806C24.1285 9.53803 25.1048 9.79799 26.0811 10.058C26.5096 10.1725 26.7702 10.4501 26.8497 10.8863C26.8718 11.0185 26.8585 11.1507 26.8276 11.2785C26.5582 12.2831 26.2887 13.2833 26.0192 14.2879C25.9706 14.4597 25.8823 14.6095 25.7542 14.7373C25.0518 15.4335 24.3538 16.134 23.6514 16.8302C23.3687 17.1078 23.0374 17.2047 22.6487 17.1034C22.1451 16.9712 21.6415 16.8346 21.1335 16.7024C21.0981 16.6936 21.0628 16.6848 21.0142 16.6716C20.9303 16.98 20.8508 17.2796 20.7668 17.5925C20.811 17.6057 20.8508 17.6189 20.8861 17.6277C21.8668 17.8921 22.843 18.1609 23.8237 18.4252C24.2081 18.531 24.4598 18.7645 24.5703 19.1478C24.6189 19.3197 24.6145 19.4871 24.5659 19.659C24.3671 20.3904 24.1727 21.1174 23.9783 21.8488C23.9077 22.1088 23.837 22.3643 23.7707 22.6243C23.7177 22.8314 23.6117 22.9988 23.4571 23.1442C22.9667 23.6245 22.4808 24.1136 21.9949 24.5982C21.7873 24.8053 21.5796 25.0168 21.3676 25.2195C21.0937 25.4839 20.7712 25.572 20.4046 25.4795C19.8877 25.3429 19.3753 25.2063 18.8585 25.0697C18.832 25.0609 18.801 25.0565 18.7657 25.0477C18.7524 25.0741 18.7392 25.1005 18.7348 25.127C18.6818 25.3208 18.6288 25.5147 18.5802 25.713C18.5272 25.9157 18.4256 26.0831 18.2798 26.2285C17.5951 26.9071 16.9148 27.5856 16.2345 28.2686C16.0754 28.4272 15.9032 28.5462 15.6823 28.5902C15.5233 28.6211 15.3686 28.6166 15.214 28.577C14.2201 28.3126 13.2262 28.0483 12.2322 27.7839C11.7684 27.6605 11.4636 27.2596 11.4812 26.7925C11.4857 26.7 11.5033 26.6119 11.5254 26.5237C11.7993 25.5059 12.0732 24.4881 12.3471 23.4747C12.3559 23.435 12.3647 23.3998 12.378 23.3469C11.711 23.1707 11.0528 22.9944 10.3857 22.8182C10.3327 23.0076 10.2885 23.1839 10.2399 23.3601C10.2223 23.4306 10.2046 23.5011 10.1825 23.5716C10.1339 23.7258 10.05 23.858 9.93954 23.9726C9.23274 24.6776 8.52594 25.3781 7.82356 26.0831C7.66895 26.2373 7.48342 26.3387 7.26696 26.3739C7.12118 26.4004 6.97982 26.3871 6.83846 26.3519C5.84452 26.0875 4.84617 25.8232 3.85223 25.5544C3.29121 25.4046 2.99082 24.8758 3.14102 24.3162C3.30005 23.7126 3.4635 23.1134 3.62694 22.5097C3.74622 22.0735 3.86107 21.6373 3.97592 21.2011C3.96709 21.1791 3.97151 21.157 3.98034 21.1174ZM15.4968 20.9808C15.4835 21.0513 15.4702 21.1262 15.4526 21.1967C15.2008 22.1352 14.949 23.0737 14.6928 24.0122C14.6353 24.2193 14.5823 24.4308 14.5249 24.6379C14.4984 24.7392 14.5117 24.7569 14.6088 24.7877C14.6221 24.7921 14.6353 24.7965 14.653 24.8009C14.9181 24.8714 15.1787 24.9419 15.4437 25.0124C16.1329 25.1975 16.822 25.3781 17.5111 25.5632C17.6437 25.5984 17.6613 25.5896 17.6967 25.4574C17.6967 25.4486 17.7011 25.4442 17.7055 25.4354C17.891 24.7392 18.0766 24.0475 18.2665 23.3513C18.3902 22.8887 18.5139 22.4304 18.6376 21.9722C18.7039 21.7254 18.9071 21.5624 19.1589 21.5536C19.2472 21.5492 19.3356 21.5712 19.4195 21.5932C20.5194 21.8841 21.615 22.1793 22.7149 22.4701C22.843 22.5053 22.8607 22.4921 22.8916 22.3687C23.1523 21.4082 23.4085 20.4476 23.6647 19.4871C23.6956 19.3637 23.6868 19.3461 23.5587 19.3109C23.1611 19.2007 22.7635 19.095 22.366 18.9848C21.6547 18.7909 20.9479 18.5971 20.2367 18.4076C20.1307 18.3812 20.0335 18.3415 19.954 18.2666C19.7817 18.0992 19.7331 17.9009 19.795 17.6718C19.9893 16.958 20.1793 16.2486 20.3692 15.5348C20.5415 14.8959 20.7138 14.2614 20.8817 13.6225C20.917 13.4992 20.9744 13.389 21.0716 13.3097C21.2351 13.1775 21.4162 13.1511 21.6238 13.2039C22.6443 13.4771 23.6647 13.7503 24.6807 14.0191C24.7867 14.0455 24.8928 14.0764 24.9988 14.1028C25.0783 14.1204 25.1004 14.1072 25.1313 14.0279C25.1357 14.0147 25.1401 14.0015 25.1446 13.9838C25.4008 13.0277 25.6614 12.0716 25.9176 11.1154C25.953 10.9876 25.9397 10.97 25.816 10.9348C25.4891 10.8467 25.1622 10.7585 24.8353 10.6748C24.0446 10.4633 23.2495 10.2518 22.4587 10.0403C22.3129 10.0007 22.1937 9.93017 22.1097 9.8024C22.0037 9.64377 21.9905 9.47634 22.0391 9.29569C22.335 8.19856 22.631 7.10143 22.927 6.0043C22.9712 5.83686 22.9667 5.82805 22.8033 5.78399C22.1539 5.61215 21.5045 5.44031 20.8508 5.26406C20.5459 5.18475 20.2411 5.10103 19.9363 5.02172C19.8303 4.99529 19.8082 5.00851 19.7773 5.10985C19.7729 5.12307 19.7685 5.13628 19.7641 5.15391C19.5476 5.95583 19.3311 6.75334 19.1191 7.55526C19.0352 7.86369 18.9557 8.17212 18.8717 8.48055C18.8099 8.70086 18.6729 8.84626 18.4476 8.90354C18.3328 8.93438 18.2223 8.91676 18.1119 8.88592C17.065 8.60833 16.018 8.32634 14.9667 8.04875C14.6663 7.96944 14.3703 7.89013 14.0699 7.81082C13.8579 7.75354 13.7165 7.62135 13.6502 7.40986C13.6105 7.28648 13.6326 7.16311 13.6635 7.03974C13.9462 5.98667 14.2333 4.93801 14.5161 3.88494C14.5337 3.82325 14.5514 3.75716 14.5647 3.69107C14.5779 3.62057 14.5647 3.59854 14.4984 3.57651C14.4807 3.5721 14.4631 3.56329 14.4454 3.55888C13.4868 3.30333 12.5282 3.04777 11.5696 2.79221C11.4459 2.75696 11.4238 2.77018 11.3885 2.89355C11.3266 3.11827 11.2692 3.33857 11.2074 3.56329C10.9688 4.44892 10.7303 5.33456 10.4917 6.2202C10.4652 6.32154 10.4299 6.41407 10.3548 6.49338C10.1825 6.67403 9.9793 6.71809 9.74076 6.65641C8.79983 6.40525 7.8589 6.1541 6.91798 5.90295C6.70152 5.84567 6.48506 5.78839 6.2686 5.73111C6.16258 5.70468 6.1405 5.7179 6.10957 5.82364C6.10957 5.83246 6.10516 5.83686 6.10516 5.84567C5.87987 6.69606 5.65015 7.54645 5.42486 8.39683C5.39394 8.5158 5.3586 8.63917 5.3321 8.75814C5.31443 8.82864 5.3321 8.85067 5.39394 8.8771C5.41603 8.88592 5.43812 8.89032 5.45579 8.89473C6.60433 9.19875 7.74847 9.51159 8.89701 9.81121C9.23274 9.89933 9.43153 10.2166 9.33435 10.5603C9.06488 11.534 8.80425 12.5166 8.54361 13.4947C8.44643 13.8649 8.34483 14.2306 8.24764 14.6007C8.19463 14.7946 8.07978 14.9356 7.89424 15.0061C7.76172 15.0589 7.62919 15.0457 7.49225 15.0105C6.48506 14.7417 5.48229 14.4729 4.4751 14.2041C4.32049 14.1645 4.16146 14.1204 4.00685 14.0808C3.92733 14.0587 3.90083 14.0764 3.87432 14.1513C3.86549 14.1733 3.86107 14.1953 3.85665 14.213C3.60486 15.1603 3.34864 16.1032 3.09684 17.0505C3.09243 17.0725 3.08359 17.0946 3.07917 17.1122C3.07034 17.1827 3.08359 17.2047 3.14544 17.2312C3.16752 17.24 3.19403 17.2444 3.22053 17.2532C3.89641 17.4383 4.56787 17.6189 5.24375 17.804C5.70758 17.9317 6.17142 18.0595 6.63967 18.1829C6.80754 18.227 6.94448 18.3151 7.02841 18.4693C7.11235 18.6191 7.11235 18.7733 7.06817 18.9363C6.75895 20.0731 6.45414 21.2099 6.14933 22.3467C6.10516 22.5097 6.10958 22.5185 6.27744 22.5626C6.95773 22.7433 7.63361 22.9239 8.31391 23.1046C8.58337 23.1751 8.85284 23.25 9.12231 23.3205C9.25483 23.3557 9.2725 23.3469 9.30784 23.2103C9.30784 23.2059 9.30784 23.2015 9.31226 23.2015C9.62148 22.0559 9.92629 20.9147 10.2399 19.7691C10.2576 19.6942 10.2885 19.6237 10.3283 19.5576C10.4299 19.3902 10.6773 19.2536 10.9821 19.3373C11.9451 19.6017 12.9125 19.8528 13.8799 20.1128C14.2731 20.2185 14.6707 20.3199 15.0638 20.43C15.3289 20.5049 15.4879 20.7208 15.4968 20.9808Z" fill="#FFC309"/>
</svg>
