<svg width="27" height="28" viewBox="0 0 27 28" fill="none"
  xmlns="http://www.w3.org/2000/svg">
  <path d="M3.98034 20.1174C3.73296 20.0513 3.50325 19.9852 3.26913 19.9235C2.43864 19.6988 1.60815 19.4741 0.777659 19.245C0.384501 19.1348 0.141539 18.8748 0.0576066 18.4783C0.0222667 18.3241 0.0355189 18.1699 0.0752764 18.0201C0.340326 17.0331 0.605376 16.0417 0.874843 15.0547C0.923436 14.8653 1.02062 14.7022 1.15756 14.5656C1.85553 13.8695 2.55349 13.1733 3.25146 12.4771C3.47233 12.2568 3.73738 12.1467 4.04661 12.1731C4.13937 12.1775 4.22772 12.2039 4.31607 12.226C4.84617 12.367 5.37627 12.508 5.90195 12.649C5.92846 12.6578 5.95938 12.6622 6.00355 12.671C6.08749 12.367 6.167 12.0629 6.25093 11.7545C6.22001 11.7457 6.19792 11.7325 6.17584 11.7281C5.13331 11.4505 4.0952 11.1729 3.05267 10.8953C2.6065 10.7764 2.32378 10.4503 2.28844 9.99646C2.27961 9.8819 2.29728 9.76294 2.3282 9.64838C2.5314 8.86849 2.74344 8.0886 2.95107 7.30871C3.00408 7.10162 3.0615 6.89894 3.11451 6.69185C3.16311 6.5112 3.25146 6.35258 3.3884 6.22039C4.0952 5.51541 4.79758 4.81042 5.50438 4.10985C5.78268 3.83667 6.11399 3.75295 6.48948 3.84988C7.04167 3.99088 7.58944 4.14069 8.14162 4.2905C8.16813 4.29931 8.19905 4.30372 8.23439 4.31253C8.24323 4.28609 8.25648 4.26847 8.26531 4.24203C8.30949 4.079 8.35366 3.91598 8.39784 3.75295C8.44643 3.56789 8.5392 3.40927 8.67614 3.27268C9.37852 2.57651 10.0765 1.87593 10.7789 1.17976C11.0572 0.902171 11.3885 0.809642 11.7728 0.910983C12.7623 1.17535 13.7518 1.44413 14.7458 1.69968C15.2626 1.83187 15.6249 2.36501 15.4658 2.94662C15.2096 3.88073 14.9622 4.81483 14.706 5.75334C14.6839 5.83706 14.6618 5.92077 14.6353 6.02212C15.3024 6.19836 15.9606 6.37461 16.6276 6.55085C16.6674 6.40545 16.7071 6.26886 16.7425 6.12786C16.7557 6.07499 16.7734 6.02212 16.7867 5.96924C16.8308 5.793 16.9192 5.64319 17.0473 5.51541C17.7541 4.81042 18.4609 4.10103 19.1721 3.39605C19.4372 3.13168 19.7641 3.03915 20.1263 3.13168C21.1379 3.39605 22.1451 3.66042 23.1523 3.9336C23.6912 4.079 23.9916 4.61215 23.8458 5.1541C23.5852 6.13667 23.3157 7.11484 23.0551 8.09741C23.0418 8.14147 23.033 8.18113 23.0197 8.234C23.0639 8.24722 23.1081 8.26485 23.1523 8.27806C24.1285 8.53803 25.1048 8.79799 26.0811 9.05795C26.5096 9.17251 26.7702 9.4501 26.8497 9.88631C26.8718 10.0185 26.8585 10.1507 26.8276 10.2785C26.5582 11.2831 26.2887 12.2833 26.0192 13.2879C25.9706 13.4597 25.8823 13.6095 25.7542 13.7373C25.0518 14.4335 24.3538 15.134 23.6514 15.8302C23.3687 16.1078 23.0374 16.2047 22.6487 16.1034C22.1451 15.9712 21.6415 15.8346 21.1335 15.7024C21.0981 15.6936 21.0628 15.6848 21.0142 15.6716C20.9303 15.98 20.8508 16.2796 20.7668 16.5925C20.811 16.6057 20.8508 16.6189 20.8861 16.6277C21.8668 16.8921 22.843 17.1609 23.8237 17.4252C24.2081 17.531 24.4599 17.7645 24.5703 18.1478C24.6189 18.3197 24.6145 18.4871 24.5659 18.659C24.3671 19.3904 24.1727 20.1174 23.9783 20.8488C23.9077 21.1088 23.837 21.3643 23.7707 21.6243C23.7177 21.8314 23.6117 21.9988 23.4571 22.1442C22.9667 22.6245 22.4808 23.1136 21.9949 23.5982C21.7873 23.8053 21.5796 24.0168 21.3676 24.2195C21.0937 24.4839 20.7712 24.572 20.4046 24.4795C19.8877 24.3429 19.3753 24.2063 18.8585 24.0697C18.832 24.0609 18.801 24.0565 18.7657 24.0477C18.7524 24.0741 18.7392 24.1005 18.7348 24.127C18.6818 24.3209 18.6288 24.5147 18.5802 24.713C18.5272 24.9157 18.4256 25.0831 18.2798 25.2285C17.5951 25.9071 16.9148 26.5856 16.2345 27.2686C16.0754 27.4272 15.9032 27.5462 15.6823 27.5902C15.5233 27.6211 15.3686 27.6166 15.214 27.577C14.2201 27.3126 13.2262 27.0483 12.2322 26.7839C11.7684 26.6605 11.4636 26.2596 11.4812 25.7925C11.4857 25.7 11.5033 25.6119 11.5254 25.5237C11.7993 24.5059 12.0732 23.4881 12.3471 22.4747C12.3559 22.435 12.3647 22.3998 12.378 22.3469C11.711 22.1707 11.0528 21.9944 10.3857 21.8182C10.3327 22.0076 10.2885 22.1839 10.2399 22.3601C10.2223 22.4306 10.2046 22.5011 10.1825 22.5716C10.1339 22.7258 10.05 22.858 9.93954 22.9726C9.23274 23.6776 8.52594 24.3781 7.82356 25.0831C7.66895 25.2373 7.48342 25.3387 7.26696 25.3739C7.12118 25.4004 6.97982 25.3871 6.83846 25.3519C5.84452 25.0875 4.84617 24.8232 3.85223 24.5544C3.29121 24.4046 2.99082 23.8758 3.14102 23.3162C3.30005 22.7126 3.4635 22.1134 3.62694 21.5097C3.74622 21.0735 3.86107 20.6373 3.97592 20.2011C3.96709 20.1791 3.97151 20.157 3.98034 20.1174ZM15.4968 19.9808C15.4835 20.0513 15.4702 20.1262 15.4526 20.1967C15.2008 21.1352 14.949 22.0737 14.6928 23.0122C14.6353 23.2193 14.5823 23.4308 14.5249 23.6379C14.4984 23.7392 14.5117 23.7569 14.6088 23.7877C14.6221 23.7921 14.6353 23.7965 14.653 23.8009C14.9181 23.8714 15.1787 23.9419 15.4437 24.0124C16.1329 24.1975 16.822 24.3781 17.5111 24.5632C17.6437 24.5984 17.6613 24.5896 17.6967 24.4574C17.6967 24.4486 17.7011 24.4442 17.7055 24.4354C17.891 23.7392 18.0766 23.0475 18.2665 22.3513C18.3902 21.8887 18.5139 21.4304 18.6376 20.9722C18.7039 20.7254 18.9071 20.5624 19.1589 20.5536C19.2472 20.5492 19.3356 20.5712 19.4195 20.5932C20.5194 20.8841 21.615 21.1793 22.7149 21.4701C22.843 21.5053 22.8607 21.4921 22.8916 21.3687C23.1523 20.4082 23.4085 19.4476 23.6647 18.4871C23.6956 18.3637 23.6868 18.3461 23.5587 18.3109C23.1611 18.2007 22.7635 18.095 22.366 17.9848C21.6547 17.7909 20.9479 17.5971 20.2367 17.4076C20.1307 17.3812 20.0335 17.3415 19.954 17.2666C19.7817 17.0992 19.7331 16.9009 19.795 16.6718C19.9893 15.958 20.1793 15.2486 20.3692 14.5348C20.5415 13.8959 20.7138 13.2614 20.8817 12.6225C20.917 12.4992 20.9744 12.389 21.0716 12.3097C21.2351 12.1775 21.4162 12.1511 21.6238 12.2039C22.6443 12.4771 23.6647 12.7503 24.6807 13.0191C24.7867 13.0455 24.8928 13.0764 24.9988 13.1028C25.0783 13.1204 25.1004 13.1072 25.1313 13.0279C25.1357 13.0147 25.1401 13.0015 25.1446 12.9838C25.4008 12.0277 25.6614 11.0716 25.9176 10.1154C25.953 9.98765 25.9397 9.97003 25.816 9.93478C25.4891 9.84665 25.1622 9.75853 24.8353 9.67481C24.0446 9.46332 23.2495 9.25182 22.4587 9.04033C22.3129 9.00067 22.1937 8.93017 22.1097 8.8024C22.0037 8.64377 21.9905 8.47634 22.0391 8.29569C22.335 7.19856 22.631 6.10143 22.927 5.0043C22.9712 4.83686 22.9667 4.82805 22.8033 4.78399C22.1539 4.61215 21.5045 4.44031 20.8508 4.26406C20.5459 4.18475 20.2411 4.10103 19.9363 4.02172C19.8303 3.99529 19.8082 4.00851 19.7773 4.10985C19.7729 4.12307 19.7685 4.13628 19.7641 4.15391C19.5476 4.95583 19.3311 5.75334 19.1191 6.55526C19.0352 6.86369 18.9557 7.17212 18.8717 7.48055C18.8099 7.70086 18.6729 7.84626 18.4476 7.90354C18.3328 7.93438 18.2223 7.91676 18.1119 7.88592C17.065 7.60833 16.018 7.32634 14.9667 7.04875C14.6663 6.96944 14.3703 6.89013 14.0699 6.81082C13.8579 6.75354 13.7165 6.62135 13.6502 6.40986C13.6105 6.28648 13.6326 6.16311 13.6635 6.03974C13.9462 4.98667 14.2333 3.93801 14.5161 2.88494C14.5337 2.82325 14.5514 2.75716 14.5647 2.69107C14.5779 2.62057 14.5647 2.59854 14.4984 2.57651C14.4807 2.5721 14.4631 2.56329 14.4454 2.55888C13.4868 2.30333 12.5282 2.04777 11.5696 1.79221C11.4459 1.75696 11.4238 1.77018 11.3885 1.89355C11.3266 2.11827 11.2692 2.33857 11.2074 2.56329C10.9688 3.44892 10.7303 4.33456 10.4917 5.2202C10.4652 5.32154 10.4299 5.41407 10.3548 5.49338C10.1825 5.67403 9.9793 5.71809 9.74076 5.65641C8.79983 5.40525 7.8589 5.1541 6.91798 4.90295C6.70152 4.84567 6.48506 4.78839 6.2686 4.73111C6.16258 4.70468 6.1405 4.7179 6.10957 4.82364C6.10957 4.83246 6.10516 4.83686 6.10516 4.84567C5.87987 5.69606 5.65015 6.54645 5.42486 7.39683C5.39394 7.5158 5.3586 7.63917 5.3321 7.75814C5.31443 7.82864 5.3321 7.85067 5.39394 7.8771C5.41603 7.88592 5.43812 7.89032 5.45579 7.89473C6.60433 8.19875 7.74847 8.51159 8.89701 8.81121C9.23274 8.89933 9.43153 9.21657 9.33435 9.56025C9.06488 10.534 8.80425 11.5166 8.54361 12.4947C8.44643 12.8649 8.34483 13.2306 8.24764 13.6007C8.19463 13.7946 8.07978 13.9356 7.89424 14.0061C7.76172 14.0589 7.62919 14.0457 7.49225 14.0105C6.48506 13.7417 5.48229 13.4729 4.4751 13.2041C4.32049 13.1645 4.16146 13.1204 4.00685 13.0808C3.92733 13.0587 3.90083 13.0764 3.87432 13.1513C3.86549 13.1733 3.86107 13.1953 3.85665 13.2129C3.60486 14.1603 3.34864 15.1032 3.09684 16.0505C3.09243 16.0725 3.08359 16.0946 3.07917 16.1122C3.07034 16.1827 3.08359 16.2047 3.14544 16.2312C3.16752 16.24 3.19403 16.2444 3.22053 16.2532C3.89641 16.4383 4.56787 16.6189 5.24375 16.804C5.70758 16.9317 6.17142 17.0595 6.63967 17.1829C6.80754 17.227 6.94448 17.3151 7.02841 17.4693C7.11235 17.6191 7.11235 17.7733 7.06817 17.9363C6.75895 19.0731 6.45414 20.2099 6.14933 21.3467C6.10516 21.5097 6.10958 21.5185 6.27744 21.5626C6.95773 21.7433 7.63361 21.9239 8.31391 22.1046C8.58337 22.1751 8.85284 22.25 9.12231 22.3205C9.25483 22.3557 9.2725 22.3469 9.30784 22.2103C9.30784 22.2059 9.30784 22.2015 9.31226 22.2015C9.62148 21.0559 9.92629 19.9147 10.2399 18.7691C10.2576 18.6942 10.2885 18.6237 10.3283 18.5576C10.4299 18.3902 10.6773 18.2536 10.9821 18.3373C11.9451 18.6017 12.9125 18.8528 13.8799 19.1128C14.2731 19.2185 14.6707 19.3199 15.0638 19.43C15.3289 19.5049 15.4879 19.7208 15.4968 19.9808Z" fill="#FFC309"/>
</svg>
