<svg width="1440" height="1024" viewBox="0 0 1440 1024" fill="none"
  xmlns="http://www.w3.org/2000/svg">
  <path fill-rule="evenodd" clip-rule="evenodd" d="M-572.142 534.835L-198.834 29.859L-134.14 77.6842L-343.867 435.455L308.085 151.627L308.753 153.228L309.145 152.137L430.094 199.266L389.823 633.796L1817.87 133.366L2017.14 485.225L198.437 911.854L100.019 735.366L99.9874 735.354L228.202 377.838L-428.488 579.81L-453.725 622.86L-487.435 597.939L-541.126 614.452L-572.352 535.163L-572.373 535.147L-572.363 535.134L-572.431 534.961L-572.142 534.835Z" fill="url(#paint0_linear)"/>
  <mask id="path-2-inside-1" fill="white">
    <path fill-rule="evenodd" clip-rule="evenodd" d="M-579.712 496.33L-206.403 -8.64633L-141.71 39.1788L-351.437 396.95L300.517 113.122L301.184 114.723L301.576 113.631L422.526 160.761L382.254 595.29L1810.31 94.8602L2009.57 446.72L190.868 873.348L92.4505 696.861L92.4188 696.848L220.633 339.333L-436.058 541.305L-461.294 584.354L-495.004 559.434L-548.694 575.947L-579.92 496.659L-579.943 496.642L-579.932 496.628L-580 496.455L-579.712 496.33Z"/>
  </mask>
  <path d="M-206.403 -8.64633L-205.808 -9.45046L-206.613 -10.0449L-207.207 -9.24079L-206.403 -8.64633ZM-579.712 496.33L-579.313 497.247L-579.067 497.14L-578.908 496.924L-579.712 496.33ZM-141.71 39.1788L-140.847 39.6845L-140.392 38.909L-141.115 38.3747L-141.71 39.1788ZM-351.437 396.95L-352.3 396.444L-353.852 399.092L-351.038 397.867L-351.437 396.95ZM300.517 113.122L301.44 112.737L301.049 111.799L300.118 112.205L300.517 113.122ZM301.184 114.723L300.261 115.108L301.254 117.49L302.126 115.061L301.184 114.723ZM301.576 113.631L301.939 112.7L300.982 112.327L300.635 113.294L301.576 113.631ZM422.526 160.761L423.521 160.853L423.591 160.103L422.889 159.829L422.526 160.761ZM382.254 595.29L381.258 595.198L381.115 596.749L382.585 596.234L382.254 595.29ZM1810.31 94.8602L1811.18 94.3674L1810.76 93.64L1809.98 93.9165L1810.31 94.8602ZM2009.57 446.72L2009.8 447.693L2011.1 447.388L2010.44 446.227L2009.57 446.72ZM190.868 873.348L189.994 873.835L190.362 874.494L191.096 874.322L190.868 873.348ZM92.4505 696.861L93.3239 696.374L93.1494 696.061L92.8157 695.93L92.4505 696.861ZM92.4188 696.848L91.4775 696.511L91.1497 697.425L92.0535 697.779L92.4188 696.848ZM220.633 339.333L221.575 339.67L222.249 337.79L220.339 338.377L220.633 339.333ZM-436.058 541.305L-436.352 540.349L-436.724 540.463L-436.921 540.799L-436.058 541.305ZM-461.294 584.354L-461.888 585.159L-460.994 585.82L-460.431 584.86L-461.294 584.354ZM-495.004 559.434L-494.409 558.63L-494.815 558.33L-495.298 558.478L-495.004 559.434ZM-548.694 575.947L-549.625 576.313L-549.285 577.175L-548.4 576.903L-548.694 575.947ZM-579.92 496.659L-578.989 496.292L-579.095 496.025L-579.326 495.855L-579.92 496.659ZM-579.943 496.642L-580.747 496.047L-581.342 496.852L-580.537 497.446L-579.943 496.642ZM-579.932 496.628L-579.128 497.222L-578.799 496.777L-579.002 496.261L-579.932 496.628ZM-580 496.455L-580.399 495.538L-581.284 495.924L-580.93 496.822L-580 496.455ZM-207.207 -9.24079L-580.516 495.736L-578.908 496.924L-205.599 -8.05187L-207.207 -9.24079ZM-141.115 38.3747L-205.808 -9.45046L-206.997 -7.8422L-142.304 39.9829L-141.115 38.3747ZM-350.574 397.456L-140.847 39.6845L-142.572 38.6731L-352.3 396.444L-350.574 397.456ZM300.118 112.205L-351.836 396.033L-351.038 397.867L300.916 114.039L300.118 112.205ZM302.107 114.338L301.44 112.737L299.594 113.506L300.261 115.108L302.107 114.338ZM300.635 113.294L300.243 114.385L302.126 115.061L302.517 113.969L300.635 113.294ZM422.889 159.829L301.939 112.7L301.213 114.563L422.162 161.693L422.889 159.829ZM383.25 595.383L423.521 160.853L421.53 160.668L381.258 595.198L383.25 595.383ZM1809.98 93.9165L381.924 594.347L382.585 596.234L1810.64 95.8039L1809.98 93.9165ZM2010.44 446.227L1811.18 94.3674L1809.44 95.353L2008.7 447.212L2010.44 446.227ZM191.096 874.322L2009.8 447.693L2009.34 445.746L190.64 872.375L191.096 874.322ZM91.5771 697.348L189.994 873.835L191.741 872.861L93.3239 696.374L91.5771 697.348ZM92.0535 697.779L92.0853 697.792L92.8157 695.93L92.784 695.918L92.0535 697.779ZM219.692 338.995L91.4775 696.511L93.36 697.186L221.575 339.67L219.692 338.995ZM-435.764 542.26L220.927 340.289L220.339 338.377L-436.352 540.349L-435.764 542.26ZM-460.431 584.86L-435.195 541.81L-436.921 540.799L-462.157 583.849L-460.431 584.86ZM-495.598 560.238L-461.888 585.159L-460.7 583.55L-494.409 558.63L-495.598 560.238ZM-548.4 576.903L-494.71 560.39L-495.298 558.478L-548.988 574.991L-548.4 576.903ZM-580.85 497.025L-549.625 576.313L-547.764 575.581L-578.989 496.292L-580.85 497.025ZM-580.537 497.446L-580.514 497.463L-579.326 495.855L-579.349 495.838L-580.537 497.446ZM-580.736 496.033L-580.747 496.047L-579.139 497.236L-579.128 497.222L-580.736 496.033ZM-580.93 496.822L-580.863 496.994L-579.002 496.261L-579.07 496.089L-580.93 496.822ZM-580.111 495.413L-580.399 495.538L-579.601 497.372L-579.313 497.247L-580.111 495.413Z" fill="#EDEDEF" mask="url(#path-2-inside-1)"/>
  <g style="mix-blend-mode:overlay" opacity="0.25">
    <path fill-rule="evenodd" clip-rule="evenodd" d="M-572.433 534.961L308.084 151.627L308.752 153.228L228.201 377.838L-541.127 614.452L-572.433 534.961Z" fill="url(#paint1_linear)"/>
    <path fill-rule="evenodd" clip-rule="evenodd" d="M389.821 633.796L100.012 735.354L100.019 735.367L99.9858 735.354L309.143 152.137L430.093 199.266L389.821 633.796Z" fill="url(#paint2_linear)"/>
    <path d="M1817.87 133.366L100.011 735.354L198.436 911.854L2017.14 485.225L1817.87 133.366Z" fill="url(#paint3_linear)"/>
  </g>
  <defs>
    <linearGradient id="paint0_linear" x1="2217.5" y1="80.6664" x2="-379.79" y2="154.755" gradientUnits="userSpaceOnUse">
      <stop stop-color="#C60184"/>
      <stop offset="0.359375" stop-color="#E95727"/>
      <stop offset="1" stop-color="#FFD02F"/>
    </linearGradient>
    <linearGradient id="paint1_linear" x1="270.567" y1="272.354" x2="-279.659" y2="486.48" gradientUnits="userSpaceOnUse">
      <stop/>
      <stop offset="1" stop-opacity="0"/>
    </linearGradient>
    <linearGradient id="paint2_linear" x1="222.568" y1="761.354" x2="167.983" y2="196.511" gradientUnits="userSpaceOnUse">
      <stop/>
      <stop offset="1" stop-opacity="0"/>
    </linearGradient>
    <linearGradient id="paint3_linear" x1="1740.57" y1="362.354" x2="386.612" y2="1221.71" gradientUnits="userSpaceOnUse">
      <stop/>
      <stop offset="1" stop-opacity="0"/>
    </linearGradient>
  </defs>
</svg>
