<svg width="100" height="100" viewBox="0 0 100 100" fill="none" xmlns="http://www.w3.org/2000/svg">
<rect width="100" height="100" rx="4" fill="black"/>
<path d="M27.4894 54.0141V54.4374C27.4894 56.6093 28.5674 57.7681 30.6099 57.7681C32.6525 57.7681 33.9433 56.6509 33.9433 54.6109C33.9433 52.2586 32.7589 51.2455 30.1418 51.2455C29.8797 51.2291 29.6168 51.2291 29.3546 51.2455V47.2418H29.7163C32.078 47.2418 33.3688 46.194 33.3688 44.2997C33.3707 43.9429 33.2972 43.5895 33.1529 43.2618C33.0086 42.9341 32.7966 42.6391 32.5302 42.3954C32.2638 42.1517 31.9487 41.9645 31.6048 41.8457C31.261 41.7268 30.8957 41.6787 30.5319 41.7046C28.773 41.7046 27.695 42.6829 27.695 44.4038H21.5035C21.6099 39.7756 24.9433 37 30.8582 37C36.2411 37 39.2908 39.5951 39.2908 43.4532C39.2908 45.9789 37.8723 47.8385 35.234 48.6157C38.461 49.1361 40.2908 51.4537 40.2908 54.7913C40.2908 59.6485 36.383 63 30.7163 63C24.766 63 21 59.6277 21 54.3472V53.9933L27.4894 54.0141Z" fill="white"/>
<path d="M42.7168 62.3342V37.2432H50.5182C53.7452 37.2432 56.2913 37.2779 58.3196 38.5407C60.575 39.9285 61.9012 42.5445 61.9012 45.7711C61.9012 49.1017 60.6459 51.5928 58.3551 52.932C56.5962 53.9451 54.6246 54.0491 52.2203 54.0491H49.2771V62.3342H42.7168ZM50.6104 48.5466C53.582 48.5466 55.1281 47.9846 55.1281 45.5629C55.1281 43.1412 53.5111 42.6486 50.6813 42.6486H49.2629V48.5466H50.6104Z" fill="white"/>
<path d="M64.3262 37.2432H71.3545V56.4708H79.9999V62.3342H64.3262V37.2432Z" fill="white"/>
</svg>
