<svg width="100" height="100" viewBox="0 0 100 100" fill="none" xmlns="http://www.w3.org/2000/svg">
<rect width="100" height="100" rx="4" fill="#F06900"/>
<path fill-rule="evenodd" clip-rule="evenodd" d="M17.5308 43.8967H19.3254C19.6552 43.8967 19.8398 43.685 19.9233 43.4772L20.9344 41.2119H27.0988L28.1091 43.4772C28.2534 43.7699 28.3996 43.8967 28.7097 43.8967H30.5034C30.8127 43.8967 30.9785 43.624 30.8539 43.3504L24.5021 29.2307C24.4411 29.103 24.3568 29 24.1506 29H23.9454C23.7589 29 23.6605 29.103 23.5949 29.2307L17.1775 43.3504C17.0575 43.624 17.2206 43.8967 17.5308 43.8967ZM23.9651 34.2636H24.0269L26.0924 38.8809H21.9446L23.9651 34.2636Z" fill="white"/>
<path fill-rule="evenodd" clip-rule="evenodd" d="M38.0433 44.2137C39.8745 44.2137 41.6494 43.5654 43.0523 42.1791C43.1956 42.0304 43.2369 41.7606 43.0738 41.6138L41.7928 40.2695C41.6728 40.1427 41.4423 40.1217 41.2792 40.2695C40.4143 40.9836 39.3628 41.466 38.123 41.466C35.4831 41.466 33.5039 39.2417 33.5039 36.619C33.5039 33.9752 35.4672 31.731 38.1042 31.731C39.2588 31.731 40.4143 32.1934 41.2792 32.9694C41.4423 33.1363 41.6494 33.1363 41.7928 32.9694L43.0523 31.649C43.2191 31.4774 43.2191 31.2276 43.0317 31.0607C41.6288 29.7784 40.1247 29.1092 38.0433 29.1092C33.9181 29.1092 30.5969 32.4861 30.5969 36.6829C30.5969 40.8806 33.9181 44.2137 38.0433 44.2137Z" fill="white"/>
<path fill-rule="evenodd" clip-rule="evenodd" d="M44.9691 31.8354H48.1263V43.604C48.1263 43.8157 48.309 44.0045 48.5161 44.0045H50.4335C50.6397 44.0045 50.8271 43.8157 50.8271 43.604V31.8354H53.9824C54.2073 31.8354 54.3741 31.6476 54.3741 31.4369V29.717C54.3741 29.5063 54.2073 29.3195 53.9824 29.3195H44.9691C44.7423 29.3195 44.5774 29.5063 44.5774 29.717V31.4369C44.5774 31.6476 44.7423 31.8354 44.9691 31.8354Z" fill="white"/>
<path fill-rule="evenodd" clip-rule="evenodd" d="M56.6959 44.0028H58.6133C58.8204 44.0028 59.0059 43.8159 59.0059 43.6043V29.7172C59.0059 29.5065 58.8204 29.3187 58.6133 29.3187H56.6959C56.486 29.3187 56.3042 29.5065 56.3042 29.7172V43.6043C56.3042 43.8159 56.486 44.0028 56.6959 44.0028Z" fill="white"/>
<path fill-rule="evenodd" clip-rule="evenodd" d="M66.4215 43.9832C66.4805 44.11 66.5855 44.2158 66.7701 44.2158H66.9772C67.1618 44.2158 67.263 44.11 67.3267 43.9832L73.7208 29.8636C73.8445 29.5919 73.6786 29.3182 73.3656 29.3182H71.2683C71.0809 29.3182 70.9572 29.4431 70.9159 29.549L66.9556 38.5708H66.8141L62.852 29.549C62.8117 29.4431 62.6889 29.3182 62.5005 29.3182H60.3967C60.0893 29.3182 59.9253 29.5919 60.049 29.8636L66.4215 43.9832Z" fill="white"/>
<path fill-rule="evenodd" clip-rule="evenodd" d="M83.6064 31.8354C83.837 31.8354 84 31.6476 84 31.4369V29.717C84 29.5063 83.837 29.3195 83.6064 29.3195H75.2145C74.9896 29.3195 74.8228 29.5063 74.8228 29.717V43.604C74.8228 43.8157 74.9896 44.0045 75.2145 44.0045H83.6064C83.837 44.0045 84 43.8157 84 43.604V41.887C84 41.6744 83.837 41.4866 83.6064 41.4866H77.502V37.8141H82.5981C82.8033 37.8141 82.9926 37.6482 82.9926 37.4185V35.6747C82.9926 35.4659 82.8033 35.2772 82.5981 35.2772H77.502V31.8354H83.6064Z" fill="white"/>
<path fill-rule="evenodd" clip-rule="evenodd" d="M24.4622 63.1031L27.5988 55.8659H27.6972L30.9012 63.1031H24.4622ZM77.3302 57.235C74.7719 56.1691 73.6014 55.1299 73.6014 53.6036C73.6014 52.5634 74.5844 51.3278 76.3847 51.3278C78.123 51.3278 80.5258 52.9533 80.7788 53.1145C81.1565 53.3738 81.6316 53.1145 81.8837 52.7245L83.0842 50.8759C83.3072 50.5499 83.2097 49.9988 82.8967 49.8043C82.2679 49.3229 79.8314 47.6554 76.6461 47.6306C76.6377 47.6306 52.4064 47.623 52.4064 47.623C52.055 47.623 51.8104 47.9195 51.8104 48.2474V61.8656H51.7776L38.4554 47.3284H37.6532C37.3327 47.3284 37.046 47.5925 37.046 47.9204V67.2961L28.4338 47.9738C28.3373 47.7755 28.2098 47.6106 27.8893 47.6106H27.5679C27.282 47.6106 27.1199 47.7755 27.0253 47.9738L17.0646 70.1086C16.8715 70.5338 17.1283 70.9628 17.61 70.9628H20.3951C20.9068 70.9628 21.1973 70.6339 21.3247 70.3059L22.8916 66.7536H32.469L34.0387 70.3059C34.2627 70.7655 34.4848 70.9628 34.9655 70.9628H37.6064C37.6232 70.9647 37.6382 70.9733 37.6532 70.9733H40.5686C40.92 70.9733 41.1787 70.6768 41.1787 70.3488V55.9107H41.2087L54.574 70.9828L55.3855 70.9866C55.706 70.9866 55.9956 70.7245 55.9956 70.3936V51.5748H61.1282H61.1423V70.3374C61.1423 70.6692 61.43 70.9657 61.7552 70.9657H64.7662C65.0904 70.9657 65.3837 70.6692 65.3837 70.3374V51.5748H70.0534C69.6748 52.3232 69.464 53.1078 69.464 53.861C69.464 57.6936 72.4328 59.6375 75.4035 60.8741C78.0584 61.9752 79.4209 63.1117 79.4209 64.7668C79.4209 66.1625 78.1867 67.2665 76.544 67.2665C74.487 67.2665 71.9277 65.354 71.7674 65.2549C71.4854 65.0261 70.9484 65.0261 70.6963 65.4808L69.5586 67.4925C69.2728 68.0121 69.4293 68.1732 69.7151 68.4678C70.3467 69.0846 72.6877 71 76.6695 71C81.1256 71 83.9407 67.9167 83.9407 64.5723C83.9407 60.384 80.3993 58.5011 77.3302 57.235Z" fill="white"/>
</svg>
