<svg width="100" height="100" viewBox="0 0 100 100" fill="none" xmlns="http://www.w3.org/2000/svg">
<rect width="100" height="100" rx="4" fill="#FFD430"/>
<rect x="25.0742" y="24.3691" width="49.9263" height="51.2402" rx="12.1033" stroke="white" stroke-width="6.05167"/>
<path d="M34.5312 64.3108V34.8227H39.8668V46.4713C40.3284 45.7654 41.0751 45.1408 42.1069 44.5978C43.1658 44.0276 44.442 43.7425 45.9354 43.7425C47.4017 43.7425 48.705 44.014 49.8454 44.5571C50.9858 45.073 51.9498 45.8061 52.7372 46.7564C53.5518 47.6796 54.1627 48.7793 54.57 50.0555C54.9773 51.3317 55.181 52.7165 55.181 54.2099C55.181 55.7305 54.9502 57.1424 54.4886 58.4458C54.0541 59.722 53.416 60.8352 52.5743 61.7856C51.7597 62.7359 50.7686 63.4826 49.6011 64.0257C48.4335 64.5416 47.1437 64.7996 45.7318 64.7996C44.347 64.7996 43.1387 64.528 42.1069 63.985C41.1022 63.4419 40.3284 62.7359 39.7853 61.867V64.3108H34.5312ZM49.764 54.2506C49.764 52.4042 49.2752 51.0059 48.2977 50.0555C47.3474 49.078 46.1798 48.5893 44.795 48.5893C44.1162 48.5893 43.4645 48.7115 42.84 48.9558C42.2426 49.2002 41.7132 49.5668 41.2516 50.0555C40.8171 50.5171 40.4641 51.1009 40.1926 51.8069C39.9211 52.5129 39.7853 53.3274 39.7853 54.2506C39.7853 55.1467 39.9211 55.9477 40.1926 56.6537C40.4641 57.3597 40.8171 57.957 41.2516 58.4458C41.7132 58.9345 42.2426 59.3147 42.84 59.5862C43.4645 59.8306 44.1162 59.9528 44.795 59.9528C46.1798 59.9528 47.3474 59.464 48.2977 58.4865C49.2752 57.509 49.764 56.097 49.764 54.2506Z" fill="white"/>
<path d="M57.4335 64.3108V44.272H62.8505V64.3108H57.4335ZM56.7818 37.7145C56.7818 36.7642 57.1076 35.9632 57.7593 35.3115C58.411 34.6598 59.1984 34.334 60.1216 34.334C61.0719 34.334 61.8594 34.6598 62.4839 35.3115C63.1356 35.9632 63.4614 36.7642 63.4614 37.7145C63.4614 38.6106 63.1356 39.3844 62.4839 40.0361C61.8594 40.6878 61.0719 41.0136 60.1216 41.0136C59.1984 41.0136 58.411 40.6878 57.7593 40.0361C57.1076 39.3844 56.7818 38.6106 56.7818 37.7145Z" fill="white"/>
</svg>
