<svg width="120" height="120" viewBox="0 0 120 120" fill="none"
  xmlns="http://www.w3.org/2000/svg">
  <rect width="120" height="120" fill="#34313F"/>
  <g clip-path="url(#clip0_24_296)">
    <path fill-rule="evenodd" clip-rule="evenodd" d="M35.6454 62.4709C35.195 61.8573 34.4292 61.3555 33.5022 61.3555C31.7842 61.3555 30.5462 62.6728 30.5462 64.4556C30.5462 66.24 31.7842 67.5565 33.5022 67.5565C34.3037 67.5565 35.0547 67.2124 35.4468 66.8701C35.4596 66.8587 35.4698 66.8446 35.4768 66.8289C35.4837 66.8132 35.4871 66.7962 35.4868 66.7791V65.8119C35.4868 65.7829 35.4753 65.755 35.4547 65.7344C35.4342 65.7138 35.4063 65.7021 35.3771 65.7018H33.1685C33.1475 65.7017 33.1267 65.6975 33.1073 65.6894C33.0879 65.6812 33.0703 65.6694 33.0554 65.6545C33.0406 65.6396 33.0289 65.622 33.021 65.6026C33.013 65.5832 33.009 65.5624 33.0091 65.5415V64.1063C33.0091 64.0179 33.0806 63.946 33.1685 63.946H37.1291V61.8157L35.8501 62.5194C35.8158 62.5369 35.7763 62.5416 35.7388 62.5327C35.7012 62.5238 35.6681 62.5019 35.6454 62.4709ZM17.0529 63.4788H19.4121C20.0873 63.4788 20.5098 63.0975 20.5098 62.4882C20.5098 61.9076 20.0873 61.4976 19.4121 61.4976H17.0529C17.0335 61.4977 17.0144 61.5016 16.9966 61.5091C16.9788 61.5166 16.9626 61.5275 16.949 61.5411C16.9354 61.5548 16.9247 61.571 16.9174 61.5889C16.9101 61.6067 16.9064 61.6257 16.9065 61.645V63.3324C16.9065 63.413 16.9718 63.4797 17.0529 63.4797V63.4788ZM26.6449 69.0385C26.6451 69.0557 26.6419 69.0728 26.6355 69.0888C26.629 69.1048 26.6194 69.1193 26.6073 69.1315C26.5951 69.1438 26.5806 69.1535 26.5646 69.1602C26.5487 69.1668 26.5315 69.1702 26.5142 69.1702H24.777C24.7598 69.1701 24.7427 69.1666 24.7268 69.1599C24.7108 69.1533 24.6964 69.1435 24.6843 69.1313C24.6721 69.1191 24.6625 69.1046 24.656 69.0886C24.6495 69.0727 24.6462 69.0557 24.6464 69.0385V59.8596C24.6464 59.7868 24.7038 59.7279 24.777 59.7279H26.5134C26.5857 59.7279 26.644 59.7868 26.644 59.8596V69.0385H26.6449ZM19.4034 59.7279H19.8477C21.6363 59.7279 22.5511 60.8745 22.5511 62.1338C22.5511 63.114 22.0414 63.8385 21.3575 64.1583C21.3323 64.1703 21.3112 64.1893 21.2966 64.213C21.2821 64.2367 21.2747 64.2641 21.2754 64.2918C21.2762 64.3196 21.285 64.3466 21.3008 64.3695C21.3166 64.3924 21.3387 64.4102 21.3645 64.4209C22.1617 64.7485 22.734 65.6065 22.734 66.6075C22.734 68.0375 21.8045 69.1702 20.0037 69.1702H15.0534C15.0341 69.1701 15.015 69.1662 14.9972 69.1588C14.9793 69.1513 14.9632 69.1404 14.9496 69.1267C14.936 69.113 14.9252 69.0968 14.9179 69.079C14.9106 69.0612 14.907 69.0421 14.9071 69.0229V63.0342L2.129 72.4298C1.88506 72.61 2.01051 73 2.31457 73H36.8146C36.9888 73 37.1282 72.8588 37.1282 72.6846V67.9326C36.2056 68.7984 34.992 69.3401 33.5022 69.3401C30.7431 69.3401 28.491 67.4291 28.491 64.4556C28.491 61.469 30.7431 59.5719 33.5022 59.5719C35.2359 59.5719 36.399 60.3623 37.1291 61.3278V47.3164C37.1297 47.2584 37.1141 47.2015 37.084 47.1518C37.0539 47.1022 37.0105 47.0619 36.9586 47.0355C36.9068 47.009 36.8486 46.9975 36.7905 47.0021C36.7325 47.0067 36.6768 47.0273 36.6299 47.0616L19.4034 59.7279V59.7279ZM17.0529 67.4005H19.4966C20.2424 67.4005 20.6928 67.0044 20.6928 66.325C20.6928 65.7304 20.2711 65.2486 19.4966 65.2486H17.0529C17.0335 65.2487 17.0144 65.2526 16.9966 65.26C16.9788 65.2675 16.9626 65.2784 16.949 65.2921C16.9354 65.3058 16.9247 65.322 16.9174 65.3398C16.9101 65.3576 16.9064 65.3767 16.9065 65.3959V67.2532C16.9065 67.3346 16.9718 67.4005 17.0529 67.4005V67.4005ZM47.141 67.1145L46.0642 66.5529C46.03 66.5362 45.9907 66.5327 45.954 66.5431C45.9173 66.5535 45.8858 66.5771 45.8656 66.6092C45.4099 67.3268 44.5701 67.8598 43.6571 67.8598C41.865 67.8598 40.5346 66.416 40.5346 64.4478C40.5346 62.4527 41.865 61.0366 43.6571 61.0366C44.5692 61.0366 45.4091 61.5566 45.8647 62.2846C45.9074 62.3522 45.9954 62.3782 46.066 62.34L47.135 61.7542C47.1543 61.7438 47.1714 61.7297 47.185 61.7125C47.1986 61.6954 47.2086 61.6756 47.2142 61.6545C47.2199 61.6334 47.2211 61.6113 47.2178 61.5897C47.2145 61.5681 47.2067 61.5474 47.1951 61.5288C46.519 60.4594 45.3995 59.5641 43.6579 59.5641C40.9825 59.5641 38.9046 61.5323 38.9046 64.4478C38.9046 67.3511 40.9824 69.3323 43.6571 69.3323C45.3978 69.3323 46.5042 68.4136 47.2029 67.3433C47.2153 67.3246 47.2235 67.3036 47.2272 67.2815C47.2308 67.2595 47.2297 67.2369 47.2239 67.2153C47.2182 67.1937 47.2079 67.1736 47.1938 67.1562C47.1796 67.1388 47.162 67.1246 47.1419 67.1145H47.141ZM52.7534 67.8598C50.9186 67.8598 49.7495 66.3882 49.7495 64.4486C49.7495 62.4952 50.9186 61.0366 52.7534 61.0366C54.5742 61.0366 55.7573 62.4952 55.7573 64.4486C55.7573 66.3882 54.5751 67.8598 52.7534 67.8598ZM51.4701 59.7296C49.4515 60.2722 48.1186 62.0991 48.1186 64.4486C48.1186 67.2653 50.0352 69.3323 52.7534 69.3323C55.0682 69.3323 56.8159 67.8182 57.2715 65.616C58.0138 62.028 54.8818 58.8127 51.4701 59.7296V59.7296ZM68.6635 59.7201H66.6031C66.5116 59.7201 66.4288 59.7764 66.3957 59.8622L63.904 66.3414L61.3976 59.8614C61.3813 59.8198 61.3528 59.7841 61.3158 59.7589C61.2788 59.7337 61.2351 59.7202 61.1902 59.7201H59.1289C59.0997 59.7206 59.0717 59.7324 59.0512 59.7532C59.0307 59.774 59.0192 59.8019 59.0192 59.831V69.0524C59.0192 69.113 59.0679 69.1624 59.1289 69.1624H60.5551C60.6161 69.1624 60.6657 69.113 60.6657 69.0515V61.872L63.532 69.1122C63.5377 69.1269 63.5477 69.1396 63.5608 69.1486C63.5738 69.1576 63.5893 69.1624 63.6052 69.1624H64.202C64.2179 69.1624 64.2334 69.1576 64.2464 69.1486C64.2595 69.1396 64.2695 69.1269 64.2752 69.1122L67.1275 61.872V69.0515C67.1275 69.1122 67.1763 69.1624 67.2373 69.1624H68.6635C68.7245 69.1624 68.7741 69.113 68.7741 69.0515V59.831C68.7742 59.8165 68.7715 59.8021 68.7659 59.7886C68.7604 59.7752 68.7523 59.763 68.742 59.7526C68.7317 59.7423 68.7195 59.7341 68.706 59.7286C68.6925 59.723 68.6781 59.7201 68.6635 59.7201V59.7201ZM89.7268 59.7201H83.6326C83.6102 59.7202 83.588 59.7247 83.5674 59.7334C83.5467 59.742 83.5279 59.7546 83.5122 59.7705C83.4964 59.7863 83.4839 59.8051 83.4754 59.8258C83.4669 59.8464 83.4626 59.8685 83.4628 59.8908V68.9917C83.4628 69.087 83.5386 69.1624 83.6326 69.1624H89.7268C89.7719 69.162 89.815 69.1438 89.8467 69.1118C89.8784 69.0798 89.896 69.0366 89.8958 68.9917V67.8754C89.896 67.8305 89.8784 67.7874 89.8467 67.7554C89.815 67.7234 89.7719 67.7052 89.7268 67.7047H85.2792C85.2568 67.7046 85.2346 67.7001 85.214 67.6914C85.1933 67.6828 85.1745 67.6702 85.1587 67.6543C85.143 67.6385 85.1305 67.6197 85.122 67.599C85.1135 67.5784 85.1092 67.5563 85.1093 67.534V65.2416C85.1093 65.1472 85.1851 65.0709 85.2792 65.0709H89.6266C89.6491 65.0709 89.6714 65.0665 89.6921 65.0579C89.7129 65.0493 89.7318 65.0367 89.7476 65.0208C89.7635 65.005 89.7761 64.9861 89.7846 64.9654C89.7931 64.9447 89.7975 64.9225 89.7973 64.9002V63.7839C89.7975 63.7616 89.7932 63.7395 89.7847 63.7188C89.7762 63.6982 89.7637 63.6794 89.7479 63.6635C89.7322 63.6477 89.7134 63.6351 89.6927 63.6264C89.6721 63.6178 89.6499 63.6133 89.6275 63.6132H85.2792C85.2568 63.6131 85.2346 63.6085 85.214 63.5999C85.1933 63.5913 85.1745 63.5787 85.1587 63.5628C85.143 63.5469 85.1305 63.5282 85.122 63.5075C85.1135 63.4869 85.1092 63.4647 85.1093 63.4424V61.3486C85.1093 61.255 85.1851 61.1778 85.2792 61.1778H89.7259C89.771 61.1774 89.8142 61.1592 89.8458 61.1272C89.8775 61.0952 89.8952 61.052 89.8949 61.0071V59.8908C89.8952 59.8459 89.8775 59.8028 89.8458 59.7708C89.8142 59.7388 89.771 59.7206 89.7259 59.7201H89.7268ZM96.1502 64.1791H94.0523C94.0302 64.179 94.0082 64.1745 93.9877 64.166C93.9673 64.1574 93.9487 64.1449 93.9331 64.1292C93.9175 64.1136 93.9051 64.095 93.8967 64.0745C93.8883 64.0541 93.8841 64.0322 93.8842 64.0101V61.3468C93.8842 61.2541 93.9591 61.1778 94.0523 61.1778H96.1502C97.0789 61.1778 97.755 61.7585 97.755 62.665C97.755 63.5846 97.0789 64.1791 96.1502 64.1791ZM97.4431 65.4046C98.4938 65.1385 99.4443 64.2328 99.4443 62.6789C99.4443 60.923 98.2193 59.7201 96.3611 59.7201H92.4057C92.3835 59.7201 92.3614 59.7245 92.3409 59.733C92.3203 59.7415 92.3016 59.7539 92.2859 59.7697C92.2702 59.7854 92.2578 59.804 92.2493 59.8245C92.2409 59.845 92.2366 59.8669 92.2367 59.8891V68.9934C92.2367 69.087 92.3125 69.1624 92.4049 69.1624H93.7152C93.7601 69.1622 93.8031 69.1443 93.8347 69.1126C93.8664 69.081 93.8842 69.0381 93.8842 68.9934V65.8067C93.8842 65.7131 93.9591 65.6377 94.0523 65.6377H95.435C95.4942 65.6377 95.5491 65.6689 95.5796 65.7209L97.5511 69.0792C97.5816 69.1312 97.6365 69.1624 97.6966 69.1624H99.2108C99.2408 69.1621 99.2703 69.1538 99.296 69.1385C99.3218 69.1232 99.3431 69.1013 99.3576 69.0751C99.3721 69.049 99.3794 69.0194 99.3787 68.9896C99.378 68.9597 99.3694 68.9305 99.3537 68.905L97.3325 65.6576C97.2715 65.558 97.329 65.4332 97.4431 65.4046V65.4046ZM112.38 61.1778H116.835C116.926 61.1778 117 61.1033 117 61.0114V59.8874C117 59.8656 116.996 59.8441 116.988 59.824C116.979 59.8038 116.967 59.7855 116.952 59.7701C116.937 59.7546 116.918 59.7423 116.898 59.7339C116.878 59.7255 116.856 59.7211 116.835 59.721H110.733C110.689 59.7214 110.646 59.7392 110.615 59.7703C110.584 59.8015 110.567 59.8435 110.567 59.8874V68.996C110.567 69.0888 110.641 69.1633 110.733 69.1633H116.835C116.926 69.1633 117 69.0888 117 68.9969V67.872C117 67.8502 116.996 67.8286 116.988 67.8084C116.98 67.7882 116.968 67.7699 116.952 67.7544C116.937 67.7389 116.918 67.7266 116.898 67.7183C116.878 67.7099 116.856 67.7056 116.835 67.7056H112.38C112.358 67.7055 112.337 67.7011 112.316 67.6926C112.296 67.6842 112.278 67.6719 112.263 67.6565C112.247 67.641 112.235 67.6227 112.227 67.6026C112.219 67.5825 112.214 67.5609 112.215 67.5392V65.239C112.215 65.1463 112.288 65.0718 112.38 65.0718H116.736C116.828 65.0718 116.902 64.9972 116.902 64.9054V63.7804C116.902 63.7587 116.898 63.7371 116.889 63.717C116.881 63.6969 116.869 63.6786 116.854 63.6631C116.838 63.6477 116.82 63.6354 116.8 63.627C116.78 63.6185 116.758 63.6141 116.736 63.614H112.38C112.358 63.6139 112.337 63.6095 112.316 63.6011C112.296 63.5927 112.278 63.5804 112.263 63.5649C112.247 63.5495 112.235 63.5312 112.227 63.511C112.219 63.4909 112.214 63.4694 112.215 63.4476V61.346C112.215 61.2532 112.288 61.1787 112.38 61.1787V61.1778ZM108.886 67.0746L107.81 66.513C107.775 66.4964 107.736 66.493 107.699 66.5036C107.663 66.5142 107.631 66.5379 107.611 66.5702C107.155 67.2878 106.316 67.8208 105.402 67.8208C103.61 67.8208 102.279 66.377 102.279 64.4088C102.279 62.4128 103.61 60.9976 105.402 60.9976C106.315 60.9976 107.154 61.5176 107.61 62.2456C107.652 62.3123 107.741 62.3392 107.811 62.301L108.88 61.7152C108.899 61.7048 108.916 61.6907 108.93 61.6735C108.943 61.6564 108.953 61.6366 108.959 61.6155C108.964 61.5944 108.966 61.5723 108.962 61.5507C108.959 61.5291 108.951 61.5084 108.94 61.4898C108.264 60.4204 107.145 59.5251 105.402 59.5251C102.728 59.5251 100.65 61.4924 100.65 64.4088C100.65 67.3112 102.727 69.2933 105.402 69.2933C107.142 69.2933 108.249 68.3746 108.948 67.3043C108.961 67.2856 108.969 67.2644 108.973 67.2422C108.976 67.22 108.975 67.1973 108.969 67.1756C108.964 67.1539 108.953 67.1336 108.939 67.1162C108.925 67.0988 108.907 67.0846 108.886 67.0746V67.0746ZM80.8247 59.7201H78.7626C78.6711 59.7201 78.5883 59.7764 78.5552 59.8622L76.0636 66.3414L73.5571 59.8614C73.5408 59.8198 73.5123 59.7841 73.4753 59.7589C73.4383 59.7337 73.3946 59.7202 73.3497 59.7201H71.2893C71.2599 59.7203 71.2317 59.7321 71.211 59.7529C71.1903 59.7737 71.1787 59.8018 71.1787 59.831V69.0524C71.1787 69.113 71.2283 69.1624 71.2893 69.1624H72.7155C72.7765 69.1624 72.8261 69.113 72.8261 69.0515V61.872L75.6924 69.1122C75.6981 69.1269 75.7081 69.1396 75.7211 69.1486C75.7342 69.1576 75.7497 69.1624 75.7656 69.1624H76.3615C76.3774 69.1624 76.3929 69.1576 76.406 69.1486C76.419 69.1396 76.429 69.1269 76.4347 69.1122L79.287 61.872V69.0515C79.287 69.1122 79.3358 69.1624 79.3977 69.1624H80.823C80.884 69.1624 80.9336 69.113 80.9336 69.0515V59.831C80.9337 59.8165 80.931 59.8021 80.9255 59.7886C80.9199 59.7752 80.9118 59.763 80.9015 59.7526C80.8912 59.7423 80.879 59.7341 80.8655 59.7286C80.852 59.723 80.8376 59.7201 80.823 59.7201H80.8247Z" fill="white"/>
  </g>
  <defs>
    <clipPath id="clip0_24_296">
      <rect width="115" height="26" fill="white" transform="translate(2 47)"/>
    </clipPath>
  </defs>
</svg>
