<svg width="120" height="120" viewBox="0 0 120 120" fill="none"
  xmlns="http://www.w3.org/2000/svg">
  <rect width="120" height="120" fill="#B32921"/>
  <path d="M69.9838 44.3756C70.6068 43.6772 71.1322 42.898 71.5457 42.059C72.0733 41.0687 72.7328 39.0326 72.7294 35.2235C72.6501 33.9906 72.43 32.7708 72.0733 31.5876C71.5909 29.8944 70.7405 28.0903 69.6436 27.0861C69.3108 26.7548 68.9156 26.4924 68.4807 26.3141C68.0459 26.1358 67.5799 26.0451 67.1098 26.0472H43V23H67.1098C68.443 23.0024 69.7449 23.4028 70.8481 24.1496C71.8376 24.8275 72.6745 25.7038 73.3056 26.7225C74.4043 28.5423 75.1617 30.5464 75.5409 32.6369C75.7222 33.4929 75.829 34.363 75.8602 35.2374C75.8602 39.3927 75.166 41.8963 74.3295 43.4684C74.1716 43.7719 73.9918 44.0635 73.7915 44.341C75.3326 46.1139 77.7207 49.9022 77.7103 56.239C77.7103 61.7587 75.8221 65.8032 72.9376 68.3587C70.0601 70.8969 66.3566 71.9357 62.8925 71.9357H43V68.892H62.8925C65.7318 68.892 68.6544 68.0367 70.8272 66.101C72.9932 64.1584 74.5655 61.1146 74.5794 56.2356C74.5794 48.7352 70.2372 44.6146 69.9838 44.386V44.3756Z" fill="white"/>
  <path d="M64.569 41.0479C64.569 41.0479 65.2632 41.3492 65.9574 41.7197C66.8113 42.1768 67.3146 42.5127 67.3146 42.5127C68.644 40.7432 69.2063 39.5935 69.3555 37.6648C69.3555 37.5055 69.3868 36.626 69.3868 35.9646V36.1031C69.431 34.688 69.1768 33.2794 68.6405 31.9685V31.9685C68.2891 31.1345 67.7211 30.409 66.9952 29.8667V29.8667C66.1301 29.2582 65.0927 28.9415 64.0344 28.9629H49.8761C47.9705 28.9629 46.2454 29.3403 44.9403 30.4588C43.6317 31.5876 43.066 33.2982 43.0798 35.2097V41.1622C43.0798 43.0425 43.6664 44.805 45.0687 45.9581C46.4571 47.1008 48.328 47.5233 50.5321 47.5267H61.8859C63.2986 47.5267 64.8015 48.2504 65.9921 49.6702C67.3454 51.3704 68.0578 53.4904 68.0053 55.6608V55.6608C67.9879 58.9538 66.964 60.5952 65.7942 61.5786C64.6884 62.4382 63.3224 62.8974 61.9206 62.8806H49.5151C48.0608 62.8806 47.2902 62.5897 46.9257 62.2504C46.6989 62.0329 46.5316 61.7611 46.4398 61.4609V61.4609C46.2787 60.9244 46.2049 60.3655 46.2211 59.8057V59.8057V52.2707H43.0972C43.0972 52.2707 43.0972 56.007 43.0972 59.8161C43.0792 60.7026 43.2082 61.5859 43.479 62.4305V62.4305C43.8592 63.625 44.6978 64.6209 45.8115 65.2007C46.9704 65.7431 48.243 65.9997 49.5221 65.9486H61.9102C64.0515 65.9703 66.135 65.2563 67.8109 63.9264V63.9264C69.7616 62.3404 71.157 59.6083 71.1362 55.6815C71.1875 52.8074 70.227 50.0062 68.4218 47.7657C66.7557 45.7711 64.4128 44.5037 61.8859 44.5003H50.5321C48.7203 44.5003 47.6442 44.1263 47.0993 43.6588C46.5613 43.2017 46.2281 42.5438 46.2107 41.183V35.2305C46.2107 33.8073 46.5578 33.1528 47.0229 32.7546C47.4776 32.3494 48.3662 32.0309 49.8761 32.0309H63.9685C64.3547 32.0082 64.7377 32.1128 65.0584 32.3287V32.3287C65.3083 32.5018 65.8706 32.9866 66.1275 34.5033C66.2128 35.3407 66.2361 36.1833 66.1969 37.0242C66.2108 39.0083 64.569 41.0479 64.569 41.0479Z" fill="url(#paint0_linear_24_345)"/>
  <path d="M76.02 26.3381C75.8095 26.3435 75.6002 26.3057 75.4049 26.2271C75.2097 26.1485 75.0327 26.0307 74.885 25.881C74.585 25.5794 74.4167 25.1718 74.4167 24.747C74.4167 24.3221 74.585 23.9145 74.885 23.6129C75.0288 23.4551 75.204 23.329 75.3994 23.2425C75.5949 23.156 75.8062 23.1112 76.02 23.1108C76.2339 23.1077 76.4459 23.1499 76.6422 23.2346C76.8385 23.3194 77.0145 23.4448 77.1585 23.6025C77.4551 23.9031 77.6213 24.3079 77.6213 24.7297C77.6213 25.1514 77.4551 25.5562 77.1585 25.8568C77.0135 26.0126 76.8371 26.1361 76.6409 26.2191C76.4447 26.302 76.2331 26.3426 76.02 26.3381ZM77.3216 24.7314C77.3224 24.3845 77.1865 24.0513 76.9433 23.8034C76.8269 23.6771 76.6851 23.5767 76.5272 23.5087C76.3694 23.4407 76.1989 23.4066 76.0269 23.4086C75.8535 23.4071 75.6817 23.4413 75.5222 23.5093C75.3627 23.5772 75.219 23.6773 75.1002 23.8034C74.8532 24.0557 74.7149 24.3943 74.7149 24.747C74.7149 25.0996 74.8532 25.4383 75.1002 25.6906C75.2184 25.8153 75.361 25.9144 75.5193 25.9817C75.6775 26.049 75.848 26.0831 76.02 26.0819C76.1916 26.0837 76.3617 26.0499 76.5195 25.9825C76.6773 25.9151 76.8192 25.8157 76.9364 25.6906C77.0631 25.5656 77.1628 25.416 77.229 25.251C77.2953 25.086 77.3269 24.9091 77.3216 24.7314ZM75.7389 24.9184V25.6663H75.2529V23.8034H76.0894C76.2862 23.7873 76.4822 23.8426 76.6413 23.9592C76.6998 24.0103 76.7461 24.0739 76.7767 24.1452C76.8073 24.2165 76.8216 24.2938 76.8183 24.3713C76.8203 24.4781 76.7875 24.5827 76.725 24.6695C76.6624 24.7562 76.5734 24.8205 76.4712 24.8526L76.8183 25.6767H76.2838L75.9818 24.9288L75.7389 24.9184ZM75.7389 24.1358V24.5894H75.9922C76.0832 24.5999 76.175 24.5791 76.2526 24.5306C76.293 24.4909 76.3183 24.4384 76.324 24.3821C76.3297 24.3258 76.3155 24.2693 76.2838 24.2224C76.2595 24.1889 76.2256 24.1635 76.1866 24.1496C76.1186 24.1418 76.0499 24.1418 75.9818 24.1496L75.7389 24.1358Z" fill="white"/>
  <path d="M7 96.8352V80.4635H13.3955C14.3073 80.4398 15.2174 80.5537 16.095 80.8014C16.8472 81.0567 17.4953 81.5502 17.9405 82.2067C18.4662 82.9359 18.7401 83.8157 18.721 84.7137C18.7378 85.5667 18.4577 86.399 17.9283 87.069C17.3804 87.7484 16.6013 88.2032 15.7392 88.347C16.8844 88.5477 17.7581 89.0154 18.3602 89.7499C18.9553 90.4903 19.2706 91.4158 19.251 92.3646C19.2664 92.9511 19.1643 93.5347 18.9507 94.0812C18.737 94.6277 18.4161 95.1262 18.0068 95.5474C17.1773 96.4059 15.9003 96.8352 14.1759 96.8352H7ZM9.80017 87.3481H13.4078C13.7235 87.3695 14.0403 87.3241 14.3372 87.2147C14.6341 87.1052 14.9045 86.9344 15.1305 86.7133C15.3565 86.4923 15.533 86.226 15.6485 85.932C15.764 85.638 15.8158 85.3229 15.8005 85.0075C15.8005 84.2551 15.5551 83.7018 15.0643 83.3476C14.5646 82.9889 13.9618 82.8016 13.3464 82.8139H9.80017V87.3481ZM9.80017 94.3869H13.6237C14.3201 94.4261 15.0054 94.1994 15.5404 93.7528C15.7649 93.5288 15.9427 93.2627 16.0637 92.9698C16.1846 92.6769 16.2463 92.363 16.2451 92.0463C16.244 91.7295 16.1801 91.4161 16.057 91.1241C15.9339 90.8321 15.7542 90.5672 15.5281 90.3448C15.0065 89.8894 14.3283 89.6534 13.636 89.6862H9.80017V94.3869Z" fill="white"/>
  <path d="M22.9028 96.8352H20.1615V80.4635H22.9028V96.8352Z" fill="white"/>
  <path d="M32.8813 92.4332L35.3771 92.3304C35.2601 93.4514 34.7793 94.5037 34.0077 95.3271C33.2175 96.1889 32.132 96.743 30.7511 96.9895C29.0954 97.2832 27.663 96.965 26.4539 96.0346C25.2448 95.1043 24.471 93.6908 24.1323 91.7942C23.8051 89.9988 24.0505 88.4164 24.8685 87.0469C25.6866 85.6775 26.9619 84.8418 28.6945 84.5399C30.3977 84.2363 31.8195 84.5848 32.9598 85.5853C34.1002 86.5858 34.8364 87.9985 35.1686 89.8233L35.2103 90.1318L27.0085 91.6008C27.1056 92.2617 27.3008 92.9044 27.5877 93.508C27.8457 93.9867 28.245 94.3747 28.7314 94.6195C29.2889 94.9093 29.9303 94.9959 30.545 94.8643C31.8653 94.6179 32.6441 93.8075 32.8813 92.4332ZM32.0788 88.8954C31.9625 88.1189 31.5502 87.4173 30.9278 86.9368C30.6427 86.7264 30.3182 86.5752 29.9735 86.492C29.6288 86.4089 29.2709 86.3954 28.9209 86.4525C28.571 86.5095 28.236 86.6359 27.9358 86.8242C27.6356 87.0125 27.3762 87.2589 27.173 87.5488C26.7656 88.1462 26.602 88.9166 26.6821 89.86L32.0788 88.8954Z" fill="white"/>
  <path d="M43.9248 92.3867L46.2808 92.6315C45.9765 94.1494 45.3875 95.2724 44.5138 96.0003C43.6271 96.7336 42.5042 97.1215 41.3529 97.0923C39.6775 97.0923 38.3891 96.4827 37.4876 95.2634C36.5861 94.0442 36.1354 92.5482 36.1354 90.7757C36.1354 88.9542 36.6262 87.4476 37.6079 86.2561C38.5895 85.0646 39.9041 84.4689 41.5517 84.4689C44.1972 84.4689 45.772 85.8563 46.2759 88.631L43.9199 88.9566C43.7105 87.4534 42.9693 86.7017 41.6964 86.7017C41.275 86.6823 40.8572 86.7883 40.4963 87.0062C40.1353 87.2242 39.8475 87.5443 39.6693 87.9259C39.2271 88.841 39.0109 89.8483 39.0386 90.8638C39.0386 92.0863 39.257 93.0297 39.6939 93.694C39.8841 94.0066 40.154 94.2632 40.476 94.4378C40.7981 94.6124 41.1608 94.6988 41.5271 94.6881C42.7329 94.6913 43.5321 93.9242 43.9248 92.3867Z" fill="white"/>
  <path d="M58.6498 96.8352H55.7637L52.6617 90.6239L49.9622 93.6328V96.8352H47.3485V80.4635H49.9695V90.6239C50.2002 90.3203 50.3843 90.0926 50.5217 89.9408L55.3318 84.7235H58.2768L54.6226 88.7289L58.6498 96.8352Z" fill="white"/>
  <path d="M77.6692 96.8352H74.7954V89.292C74.7954 87.7251 74.0984 86.9417 72.7045 86.9417C72.3332 86.9296 71.9644 87.0044 71.6273 87.16C71.2902 87.3155 70.9943 87.5477 70.7632 87.8377C70.2724 88.4302 70.027 89.3141 70.027 90.4892V96.8548H67.1262V89.292C67.1262 87.7006 66.4718 86.9049 65.1629 86.9049C64.7782 86.9018 64.3978 86.9867 64.0511 87.1531C63.7044 87.3195 63.4005 87.5629 63.1628 87.8647C62.618 88.4996 62.3455 89.3712 62.3455 90.4795V96.845H59.5282V84.7235H62.1836V87.3016C63.0507 85.4131 64.4013 84.4697 66.2354 84.4713C68.022 84.4713 69.1844 85.4148 69.7227 87.3016C70.7043 85.4131 72.0549 84.4697 73.7745 84.4713C74.9443 84.4713 75.8858 84.8345 76.5992 85.5608C76.951 85.9181 77.2271 86.3425 77.4109 86.8085C77.5948 87.2746 77.6826 87.7729 77.6692 88.2735V96.8352Z" fill="white"/>
  <path d="M89.8736 96.8352H87.2648C87.0214 96.0401 86.8796 95.2175 86.8427 94.3869C86.1146 96.1823 84.7444 97.08 82.732 97.08C81.5213 97.08 80.5495 96.7267 79.8165 96.0199C79.4566 95.6764 79.1728 95.2614 78.9834 94.8018C78.794 94.3422 78.7033 93.848 78.7171 93.3513C78.7171 90.5684 81.1655 89.181 86.0623 89.1892C86.2537 89.1892 86.5139 89.1892 86.8427 89.1892V88.2784C86.8427 87.0233 85.9854 86.3949 84.2708 86.3932C82.6052 86.3932 81.6596 87.0216 81.4338 88.2784L79.1024 87.9283C79.1682 87.4262 79.3417 86.9441 79.611 86.5149C79.8803 86.0856 80.2392 85.7193 80.6632 85.4409C81.5794 84.788 82.9022 84.4615 84.6315 84.4615C85.4044 84.4482 86.176 84.5304 86.9286 84.7064C87.4866 84.8446 88.0022 85.1169 88.4305 85.4996C88.8098 85.8257 89.101 86.2415 89.2772 86.7091C89.4343 87.1449 89.5226 87.8843 89.5226 88.9125V94.382C89.5242 95.2121 89.6423 96.0378 89.8736 96.8352V96.8352ZM86.8427 90.6704C83.3006 90.6704 81.5295 91.5143 81.5295 93.2019C81.5259 93.442 81.5715 93.6803 81.6635 93.9022C81.7555 94.124 81.8919 94.3248 82.0645 94.4922C82.4195 94.8464 82.9586 95.0243 83.6818 95.0259C84.7248 95.0259 85.5101 94.6954 86.0451 94.0466C86.5676 93.4134 86.85 92.6168 86.8427 91.7966V90.6704Z" fill="white"/>
  <path d="M101.05 96.8352H98.3085V89.2675C98.3085 88.4694 98.122 87.8671 97.7539 87.4631C97.589 87.2714 97.3841 87.1179 97.1535 87.0134C96.9228 86.9089 96.6721 86.856 96.4189 86.8584C96.056 86.8636 95.6989 86.9503 95.3742 87.1122C95.0496 87.2742 94.7658 87.5071 94.5439 87.7937C94.0056 88.4155 93.7373 89.3549 93.7389 90.6116V96.8352H90.9977V84.7235H93.4984V87.5292C94.3721 85.4906 95.5992 84.4713 97.1796 84.4713C98.1865 84.4496 99.1642 84.8091 99.916 85.4776C100.672 86.1517 101.051 87.3309 101.052 89.0154L101.05 96.8352Z" fill="white"/>
  <path d="M112.486 96.8352H109.745V89.2675C109.745 88.4694 109.561 87.8679 109.193 87.4632C109.028 87.2715 108.823 87.1181 108.592 87.0137C108.361 86.9092 108.111 86.8562 107.858 86.8584C107.495 86.8634 107.138 86.9501 106.813 87.112C106.488 87.274 106.204 87.507 105.983 87.7937C105.446 88.4155 105.178 89.3549 105.178 90.6117V96.8352H102.436V84.7235H104.937V87.5293C105.811 85.4906 107.038 84.4713 108.618 84.4713C109.625 84.4492 110.602 84.8089 111.352 85.4776C112.111 86.1517 112.49 87.3309 112.489 89.0154L112.486 96.8352Z" fill="white"/>
  <defs>
    <linearGradient id="paint0_linear_24_345" x1="1581.81" y1="3230.35" x2="4478.7" y2="5427.58" gradientUnits="userSpaceOnUse">
      <stop stop-color="white"/>
      <stop offset="0.18" stop-color="#EF4258"/>
      <stop offset="0.3" stop-color="#EC1A3D"/>
      <stop offset="0.64" stop-color="#6B0005"/>
      <stop offset="1" stop-color="#95031F"/>
    </linearGradient>
  </defs>
</svg>
