<svg width="100" height="100" viewBox="0 0 100 100" fill="none" xmlns="http://www.w3.org/2000/svg">
<rect width="100" height="100" rx="4" fill="#0A308E"/>
<path d="M17.1989 47.5983C17.093 47.4901 16.9658 47.4035 16.8386 47.3385C17.3261 46.7323 17.5805 45.9529 17.5805 45.1519C17.5805 44.0911 17.1142 43.0952 16.3087 42.4241C15.6728 41.8828 14.8673 41.623 13.8074 41.623H9.39844V45.1519V46.7107V48.6591V50.6725V54.656H14.3585C15.5668 54.656 16.4782 54.3746 17.1777 53.7684C18.0892 53.0107 18.6191 51.8849 18.6191 50.6942C18.6403 49.4818 18.1104 48.356 17.1989 47.5983ZM11.6029 43.723H13.4047C14.4221 43.723 14.7613 43.9395 14.9521 44.1777C15.1852 44.4375 15.3336 44.7839 15.3336 45.1519C15.3336 45.52 15.2064 45.8447 14.9521 46.1261C14.7401 46.3643 14.4221 46.5808 13.4047 46.5808H11.6029V43.723ZM15.8635 51.9499C15.5668 52.2529 15.1216 52.5344 13.9558 52.5344H11.6029V48.7024H13.977C15.1428 48.7024 15.5668 48.9839 15.8635 49.287C16.2027 49.655 16.3935 50.1313 16.3935 50.6076C16.3935 51.1055 16.2027 51.5818 15.8635 51.9499Z" fill="white"/>
<path d="M27.882 45.7598H25.8047V54.6577H27.882V45.7598Z" fill="white"/>
<path d="M26.8223 41.6016C26.1016 41.6016 25.5293 42.1861 25.5293 42.9438C25.5293 43.6799 26.1016 44.2644 26.8223 44.2644C27.5642 44.2644 28.1365 43.6799 28.1365 42.9438C28.1365 42.2077 27.543 41.6016 26.8223 41.6016Z" fill="white"/>
<path d="M35.703 46.3437C35.0035 45.8457 34.198 45.5859 33.2865 45.5859C32.5022 45.5859 31.7603 45.7808 31.1456 46.1488C29.7678 46.9715 28.9199 48.5303 28.9199 50.1973C28.9199 51.8859 29.7466 53.4014 31.1456 54.2241C31.7603 54.5921 32.5658 54.8086 33.3289 54.8086C34.198 54.8086 34.9823 54.5705 35.6394 54.0942V54.1591C35.6394 55.1334 35.5122 55.7828 35.2154 56.2375C34.8339 56.822 34.198 57.1251 33.3501 57.1251C32.0147 57.1251 31.294 56.389 30.7641 55.6963L30.6369 55.5231L29.1319 56.9519L29.2167 57.0818C29.8102 58.0344 31.2728 59.1385 33.4349 59.1385C35.1094 59.1385 36.4873 58.3375 37.208 56.9303C37.5683 56.2158 37.7167 55.3282 37.7167 54.0509V45.7591H35.703V46.3437ZM35.6394 51.7344C35.1306 52.4055 34.3464 52.8169 33.5409 52.8169C32.0995 52.8169 30.976 51.6694 30.976 50.2189C30.976 48.7251 32.0359 47.621 33.4561 47.621C34.2828 47.621 35.1094 48.0323 35.6394 48.7035V51.7344Z" fill="white"/>
<path d="M43.207 45.5851C42.2107 45.5851 41.4477 45.9531 40.9601 46.2995V41.6016H38.8828V54.6562H40.9601V48.7026C41.3841 48.2047 42.1048 47.6201 43.1646 47.6201C43.7793 47.6201 44.3728 47.9016 44.7332 48.3779C44.9664 48.6809 45.1783 49.0923 45.1783 50.2181V54.6562H47.2556V50.3047C47.2556 48.8758 47.0013 47.9449 46.4077 47.1655C45.6235 46.1696 44.4788 45.5851 43.207 45.5851Z" fill="white"/>
<path d="M60.8015 46.1488C60.1868 45.7808 59.4449 45.5859 58.6606 45.5859C57.7492 45.5859 56.9437 45.8457 56.2442 46.3437V45.7808H54.2305V59.0086H56.3078V54.1158C56.9649 54.5921 57.7492 54.8303 58.6182 54.8303C59.3813 54.8303 60.208 54.6138 60.8015 54.2457C62.2005 53.4014 63.0272 51.9076 63.0272 50.2189C63.0484 48.5519 62.1793 46.9932 60.8015 46.1488ZM58.4063 52.8169C57.622 52.8169 56.8377 52.4055 56.3078 51.7344V48.6818C56.8377 48.0107 57.6432 47.5993 58.4911 47.5993C59.9113 47.5993 60.9711 48.7251 60.9711 50.1973C60.9711 51.6694 59.8477 52.8169 58.4063 52.8169Z" fill="white"/>
<path d="M68.1769 45.5859C65.718 45.5859 63.9375 47.5344 63.9375 50.2189C63.9375 52.8602 65.8664 54.8519 68.4313 54.8519C70.5934 54.8519 71.6956 53.6828 72.0772 53.1849L72.1831 53.0334L70.8053 51.7127L70.6782 51.8643C70.2118 52.4055 69.5547 52.9468 68.4313 52.9468C67.1806 52.9468 66.142 52.0158 65.9512 50.7818H72.3103L72.3315 50.6086C72.3527 50.4354 72.3527 50.3055 72.3527 50.2189C72.3527 47.5777 70.551 45.5859 68.1769 45.5859ZM66.1632 48.92C66.5023 48.054 67.3078 47.4694 68.2405 47.4694C69.0672 47.4694 69.8727 48.0756 70.1694 48.92H66.1632Z" fill="white"/>
<path d="M80.0057 46.3437C79.3062 45.8457 78.5007 45.5859 77.5892 45.5859C76.8049 45.5859 76.0631 45.7808 75.4483 46.1488C74.0705 46.9715 73.2227 48.5303 73.2227 50.1973C73.2227 51.8859 74.0493 53.4014 75.4483 54.2241C76.0631 54.5921 76.8685 54.8086 77.6316 54.8086C78.5007 54.8086 79.3274 54.5488 80.0057 54.0725V54.6354H82.0194V45.7591H80.0057V46.3437ZM79.9421 51.7344C79.4334 52.4055 78.6491 52.8169 77.8436 52.8169C76.4022 52.8169 75.2788 51.6694 75.2788 50.2189C75.2788 48.7251 76.3386 47.621 77.7588 47.621C78.5855 47.621 79.4122 48.0323 79.9421 48.7035V51.7344Z" fill="white"/>
<path d="M91.3878 41.4941H89.3105V54.657H91.3878V41.4941Z" fill="white"/>
<path d="M53.0643 52.7077C52.7888 52.7943 52.3224 52.8376 52.0257 52.8376C51.5169 52.8376 51.0082 52.6428 50.775 52.3614C50.5631 52.1016 50.5207 51.6902 50.5207 51.1706V47.6634H53.0643V45.7583H50.5207V41.6016H48.4434V51.0407C48.4434 52.2098 48.6977 53.0758 49.2276 53.6603C49.8848 54.4181 50.8174 54.8077 51.9621 54.8077C52.3224 54.8077 52.7252 54.7644 53.0643 54.6995V52.7077Z" fill="white"/>
<path d="M24.703 45.6725C24.4275 45.6076 24.1307 45.5859 23.834 45.5859C22.8377 45.5859 22.0746 45.954 21.5871 46.3004V45.7591H19.5098V54.6571H21.5871V48.7035C22.011 48.2055 22.7317 47.621 23.7916 47.621C24.1095 47.621 24.4275 47.7076 24.7242 47.8375L24.703 45.6725Z" fill="white"/>
<path d="M88.3788 45.6725C88.1033 45.6076 87.8065 45.5859 87.5097 45.5859C86.5135 45.5859 85.7504 45.954 85.2629 46.3004V45.7591H83.1855V54.6571H85.2629V48.7035C85.6868 48.2055 86.4075 47.621 87.4673 47.621C87.7853 47.621 88.1033 47.7076 88.4 47.8375L88.3788 45.6725Z" fill="white"/>
</svg>
