<svg width="100" height="100" viewBox="0 0 100 100" fill="none" xmlns="http://www.w3.org/2000/svg">
<rect width="100" height="100" rx="4" fill="#0146FD"/>
<g clip-path="url(#clip0_8955_181160)">
<path d="M52.2804 55.2205C49.9244 55.2205 48.2524 53.283 48.2524 50.7255C48.2524 48.168 49.9244 46.2305 52.2804 46.2305C54.6364 46.2305 56.3084 48.0905 56.3084 50.7255C56.3084 53.283 54.5604 55.2205 52.2804 55.2205ZM56.3084 42.743V44.448H55.7004L55.6244 44.3705C54.7124 43.363 53.5724 42.3555 51.2164 42.3555C47.2644 42.3555 44.1484 45.998 44.1484 50.7255C44.1484 55.453 47.3404 59.0955 51.4444 59.0955C53.8004 59.0955 54.9404 58.088 55.6244 57.2355L55.7004 57.158H56.3084V60.413C56.3084 61.8855 55.1684 63.048 53.7244 63.048H48.4044V67.0005H54.2564C57.6004 67.0005 60.3364 64.2105 60.3364 60.8005V42.743H56.3084Z" fill="white"/>
<path d="M34.1925 59.405C29.4805 59.405 26.0605 55.9175 26.0605 51.035C26.0605 46.23 29.4805 42.665 34.0405 42.665C38.6005 42.665 41.8685 46.075 41.8685 51.035V51.965H30.2405V52.1975C30.2405 54.3675 31.8365 55.84 34.1165 55.84C35.7885 55.84 37.0805 55.1425 37.6885 53.9025L41.2605 54.755C40.2725 57.7 37.6885 59.405 34.1925 59.405ZM34.1165 45.9975C31.9125 45.9975 30.5445 47.5475 30.3165 49.0975V49.33H37.9165V49.0975C37.6125 47.315 36.0165 45.9975 34.1165 45.9975Z" fill="white"/>
<path d="M63.755 43.44H67.783V58.94H63.755V43.44ZM65.807 40.805C64.439 40.805 63.375 39.7975 63.375 38.4025C63.375 37.0075 64.439 36 65.807 36C67.175 36 68.239 37.085 68.239 38.4025C68.239 39.7975 67.175 40.805 65.807 40.805Z" fill="white"/>
<path d="M77.6632 59.4824C73.5592 59.4824 70.3672 55.7624 70.3672 51.1124C70.3672 46.4624 73.4832 42.7424 77.4352 42.7424C79.3352 42.7424 80.7792 43.4399 81.8432 44.7574L81.9192 44.8349H82.5272V36.2324H86.5552V59.0949H82.5272V57.5449H81.8432L81.7672 57.6224C80.9312 58.8624 79.4872 59.4824 77.6632 59.4824ZM78.4992 46.6174C76.1432 46.6174 74.4712 48.4774 74.4712 51.1124C74.4712 53.7474 76.2192 55.6074 78.5752 55.6074C80.8552 55.6074 82.6032 53.6699 82.6032 51.1124C82.6032 48.4774 80.9312 46.6174 78.4992 46.6174Z" fill="white"/>
<path d="M19.904 59.3282C15.344 59.3282 12 55.9182 12 51.1132C12 46.2307 15.496 42.7432 20.284 42.7432C21.956 42.7432 23.172 43.0532 24.92 43.8282L23.628 47.1607C22.488 46.6957 21.728 46.4632 20.74 46.4632C18.156 46.4632 16.18 48.0132 16.18 51.1132C16.18 54.2132 18.156 55.7632 20.816 55.7632C21.804 55.7632 22.64 55.5307 23.704 54.9107L25.072 57.8557C23.324 58.8632 21.804 59.3282 19.904 59.3282Z" fill="white"/>
</g>
<defs>
<clipPath id="clip0_8955_181160">
<rect width="76" height="31" fill="white" transform="translate(12 36)"/>
</clipPath>
</defs>
</svg>
