<svg width="100" height="100" viewBox="0 0 100 100" fill="none" xmlns="http://www.w3.org/2000/svg">
<rect width="100" height="100" rx="4" fill="#228800"/>
<path d="M48.0445 37.7282C48.0445 33.1827 45.3172 29.3191 41.2263 27.5009C37.1354 25.6827 32.3627 26.5918 29.1808 29.7736C25.999 32.9554 25.0899 37.7282 26.6808 41.8191C28.2718 45.91 32.3627 48.6373 36.9081 48.6373H48.0445V37.7282ZM51.2263 37.7282C51.2263 33.1827 53.9536 29.3191 58.0445 27.5009C62.1354 25.6827 66.9081 26.5918 70.0899 29.7736C73.2717 32.9554 74.1808 37.7282 72.5899 41.8191C70.999 45.91 66.9081 48.6373 62.3627 48.6373H51.2263V37.7282ZM51.2263 62.7282C51.2263 67.2736 53.9536 71.1373 58.0445 72.9554C62.1354 74.7736 66.9081 73.8645 70.0899 70.6827C73.2717 67.5009 74.1808 62.7282 72.5899 58.6373C70.999 54.5463 66.9081 51.8191 62.3627 51.8191H51.2263V62.7282ZM36.9081 70.6827C41.2263 70.6827 44.8627 67.2736 44.8627 62.7282V54.7736H36.9081C32.5899 54.7736 28.9536 58.1827 28.9536 62.7282C28.9536 67.2736 32.5899 70.6827 36.9081 70.6827ZM48.0445 62.7282C48.0445 67.2736 45.3172 71.1373 41.2263 72.9554C37.1354 74.7736 32.3627 73.8645 29.1808 70.6827C25.999 67.5009 25.0899 62.7282 26.6808 58.6373C28.2718 54.5463 32.3627 51.8191 36.9081 51.8191H48.0445V62.7282Z" fill="white"/>
</svg>
