<svg width="100" height="100" viewBox="0 0 100 100" fill="none" xmlns="http://www.w3.org/2000/svg">
<rect width="100" height="100" rx="4" fill="white"/>
<path d="M29.5552 61.8239C29.2187 61.9863 29 62.3282 29 62.7127C29 63.0973 29.2187 63.4391 29.5552 63.6015L48.2312 72.4895C48.4836 72.609 48.7528 72.669 49.022 72.669V52.8418C48.7444 52.8418 48.4668 52.9018 48.206 53.0213L29.5552 61.8239Z" fill="#F27923"/>
<path d="M49.0254 52.834V72.6609C49.3114 72.6697 49.6059 72.6012 49.8751 72.4815L68.5005 63.6279C68.837 63.4655 69.0559 63.1236 69.0559 62.7391C69.0559 62.3631 68.837 62.0127 68.5005 61.8503L49.8414 53.022C49.5806 52.9023 49.303 52.834 49.0254 52.834V52.834Z" fill="#F5A730"/>
<path d="M29 35.8772C29 36.2618 29.2187 36.6036 29.5552 36.766L48.2312 45.6454C48.4836 45.7651 48.7528 45.8249 49.022 45.8335C49.2576 45.8335 49.4931 45.7993 49.7203 45.7138C49.8969 45.6283 49.8633 45.6454 50.2418 45.466C52.1683 44.5601 50.8896 45.1583 68.4889 36.7917C68.8252 36.6293 69.0441 36.2874 69.0441 35.9029C69.0441 35.5268 68.8252 35.1764 68.4889 35.0141L49.838 26.1859C49.3249 25.938 48.7276 25.938 48.2144 26.1859L29.5552 34.9884C29.2187 35.1508 29 35.5012 29 35.8772H29Z" fill="#20AD92"/>
<path d="M49.022 46.9442V52.8326C48.7444 52.8326 48.4668 52.8923 48.206 53.0121L29.5552 61.823C29.2187 61.9854 29 62.3273 29 62.7118V36.535V35.877C29 36.2615 29.2187 36.6034 29.5552 36.7658L48.2312 45.6452C48.4836 45.7648 48.7528 45.8247 49.022 45.8332C49.2576 45.8332 49.4931 45.799 49.7203 45.7136L49.6866 45.7307C49.1061 45.9956 49.022 46.2691 49.022 46.9442V46.9442Z" fill="#D0D1D1"/>
</svg>
