<svg width="100" height="100" viewBox="0 0 100 100" fill="none" xmlns="http://www.w3.org/2000/svg">
<rect width="100" height="100" rx="4" fill="#FFD430"/>
<path d="M61.6667 25H38.3333C36.4833 25 35 26.4833 35 28.3333V51.6667C35 53.5167 36.4833 55 38.3333 55H61.6667C63.5167 55 65 53.5167 65 51.6667V28.3333C65 26.4833 63.5167 25 61.6667 25ZM61.6667 51.6667H38.3333V28.3333H61.6667V51.6667ZM45 50H40V46.6667H45V50ZM51.6667 50H46.6667V46.6667H51.6667V50ZM45 45H40V41.6667H45V45ZM51.6667 45H46.6667V41.6667H51.6667V45ZM45 40H40V36.6667H45V40ZM51.6667 40H46.6667V36.6667H51.6667V40Z" fill="white"/>
<path d="M41.3667 81.225C44.6667 81.225 46.0767 78.975 46.4217 77.505L44.1567 76.86C43.9467 77.625 43.2117 78.855 41.3667 78.855C39.7767 78.855 38.3067 77.7 38.3067 75.705C38.3067 73.47 39.9117 72.45 41.3367 72.45C43.2117 72.45 43.8867 73.695 44.0517 74.43L46.2867 73.725C45.9417 72.195 44.5317 70.14 41.3367 70.14C38.3667 70.14 35.8467 72.39 35.8467 75.705C35.8467 79.02 38.3067 81.225 41.3667 81.225ZM54.4687 72.975C54.2437 71.73 53.2387 70.14 50.5837 70.14C48.5437 70.14 46.7737 71.55 46.7737 73.56C46.7737 75.135 47.8687 76.335 49.6687 76.68L51.1237 76.95C51.8287 77.085 52.2637 77.475 52.2637 78.015C52.2637 78.675 51.6937 79.125 50.7637 79.125C49.3087 79.125 48.6487 78.27 48.5587 77.295L46.3837 77.82C46.5337 79.32 47.7937 81.225 50.7337 81.225C53.2687 81.225 54.6637 79.53 54.6637 77.865C54.6637 76.35 53.6137 75.045 51.5887 74.67L50.1637 74.4C49.4287 74.265 49.1137 73.89 49.1137 73.38C49.1137 72.795 49.6837 72.24 50.5687 72.24C51.8587 72.24 52.2637 73.08 52.3387 73.575L54.4687 72.975ZM59.486 77.85L56.921 70.365H54.311L58.211 81H60.656L64.541 70.365H62.021L59.486 77.85Z" fill="white"/>
</svg>
