<svg width="100" height="100" viewBox="0 0 100 100" fill="none" xmlns="http://www.w3.org/2000/svg">
<rect x="0.5" y="0.5" width="99" height="99" rx="3.5" fill="white" stroke="#EEEEEE"/>
<g clip-path="url(#clip0_8955_181101)">
<path d="M48.0669 57.6172H38.5762V58.9702H48.0669V57.6172Z" fill="#007096"/>
<path d="M57.5571 57.6172H48.0664V58.9702H57.5571V57.6172Z" fill="#009CDE"/>
<path d="M67.0473 57.6172H57.5566V58.9702H67.0473V57.6172Z" fill="#00AEC7"/>
<path d="M76.5376 57.6172H67.0469V58.9702H76.5376V57.6172Z" fill="#FF585D"/>
<path d="M85.9985 57.6172H76.5078V58.9702H85.9985V57.6172Z" fill="#FFC72C"/>
<path d="M22.4478 40.0004C24.1318 39.9784 25.7807 40.4828 27.1648 41.4431C27.2592 41.5043 27.3391 41.5852 27.399 41.6804C27.4589 41.7757 27.4974 41.8828 27.5117 41.9944C27.526 42.106 27.5158 42.2194 27.4818 42.3266C27.4479 42.4339 27.391 42.5324 27.3151 42.6154L26.9546 43.2164C26.6844 43.6973 26.2936 43.7277 25.7835 43.4269C24.826 42.7747 23.6978 42.4192 22.5397 42.405C19.3863 42.405 17.7044 44.7198 17.7044 47.3954C17.7044 50.1014 19.4462 52.566 22.57 52.566C23.8548 52.5292 25.0951 52.0873 26.1142 51.3034C26.5627 50.9729 26.9552 50.9729 27.2854 51.4538L27.7058 51.9948C27.78 52.0773 27.836 52.1745 27.8704 52.28C27.9048 52.3855 27.9167 52.4971 27.9054 52.6075C27.8941 52.7179 27.8598 52.8248 27.8048 52.9211C27.7498 53.0175 27.6752 53.1013 27.5859 53.167C26.143 54.3401 24.3391 54.9774 22.4803 54.9706C17.9427 54.9718 14.9994 51.6951 14.9994 47.4257C14.9695 46.4399 15.1419 45.4584 15.506 44.542C15.8701 43.6255 16.4182 42.7936 17.1163 42.0976C17.8144 41.4016 18.6478 40.8564 19.5648 40.4957C20.4819 40.135 21.4631 39.9664 22.4478 40.0004Z" fill="black"/>
<path d="M28.7557 56.6852C28.9784 56.8015 29.2255 56.8632 29.4766 56.8653C29.8554 56.8175 30.2124 56.6618 30.5052 56.4167C30.798 56.1715 31.0143 55.8473 31.1282 55.4826L31.5206 54.5808L27.5862 45.3215C27.316 44.7205 27.5862 44.3294 28.2472 44.3294H29.3561C29.5723 44.3111 29.7879 44.3707 29.9641 44.4975C30.1402 44.6243 30.2654 44.8098 30.317 45.0208L32.2713 50.312C32.4513 50.853 32.6637 51.725 32.6637 51.725H32.694C32.694 51.725 32.874 50.9136 33.0545 50.3721L34.8866 45.0511C34.9325 44.8356 35.0546 44.6439 35.2304 44.5113C35.4062 44.3787 35.624 44.3141 35.8436 44.3294H36.8644C37.4951 44.3294 37.7654 44.7222 37.5551 45.3215L33.2305 56.2643C32.9745 57.0597 32.4729 57.7532 31.7978 58.2448C31.1228 58.7365 30.3092 59.0009 29.4744 59C28.979 58.9944 28.4894 58.8923 28.033 58.6992C27.9263 58.6618 27.8293 58.6008 27.7493 58.5209C27.6692 58.4409 27.6081 58.344 27.5705 58.2373C27.5328 58.1305 27.5195 58.0167 27.5317 57.9041C27.5438 57.7916 27.581 57.6832 27.6406 57.587L27.8206 57.138C27.8919 56.9594 28.0274 56.8139 28.2004 56.7301C28.3734 56.6463 28.5715 56.6303 28.7557 56.6852Z" fill="black"/>
<path d="M38.5761 41.1122C38.5632 40.9985 38.5762 40.8834 38.6139 40.7754C38.6516 40.6675 38.7131 40.5694 38.7939 40.4885C38.8747 40.4076 38.9727 40.346 39.0806 40.3082C39.1885 40.2705 39.3035 40.2576 39.417 40.2705H40.2882C40.4023 40.255 40.5184 40.2661 40.6275 40.3029C40.7366 40.3397 40.8357 40.4013 40.9171 40.4828C40.9985 40.5642 41.0599 40.6634 41.0967 40.7726C41.1335 40.8818 41.1446 40.998 41.1292 41.1122V44.872C41.1306 45.1631 41.1103 45.4538 41.0686 45.7418H41.0989C41.4365 45.2073 41.908 44.7707 42.4666 44.4753C43.0252 44.1799 43.6513 44.0362 44.2826 44.0583C47.0156 44.0583 48.8477 46.2828 48.8477 49.4697C48.8477 52.7766 46.8054 54.941 44.1027 54.941C43.4634 54.9699 42.8285 54.8225 42.2671 54.5151C41.7057 54.2077 41.2394 53.7519 40.9189 53.1975H40.8887C40.9119 53.346 40.922 53.4962 40.9189 53.6464V53.977C40.9189 54.4259 40.6487 54.6986 40.078 54.6986H39.3868C39.2727 54.7141 39.1566 54.703 39.0475 54.6662C38.9384 54.6293 38.8393 54.5678 38.7579 54.4863C38.6765 54.4048 38.6151 54.3056 38.5783 54.1965C38.5415 54.0873 38.5304 53.9711 38.5458 53.8569V41.1122H38.5761ZM43.6519 52.7766C45.0933 52.7766 46.265 51.6043 46.265 49.56C46.265 47.606 45.2138 46.3131 43.7119 46.3131C42.3603 46.3131 41.0989 47.3052 41.0989 49.5297C41.0989 51.2132 41.9695 52.7766 43.6514 52.7766H43.6519Z" fill="black"/>
<path d="M55.1845 44.0889C58.1277 44.0889 59.7816 46.1932 59.7816 49.049C59.7748 49.2833 59.6768 49.5057 59.5085 49.6687C59.3401 49.8316 59.1148 49.9222 58.8806 49.9211H52.5457C52.5619 50.3144 52.6558 50.7006 52.8219 51.0575C52.988 51.4143 53.223 51.7347 53.5134 52.0002C53.8038 52.2657 54.1438 52.471 54.5138 52.6043C54.8839 52.7376 55.2766 52.7962 55.6694 52.7769C56.4645 52.7607 57.2408 52.5317 57.9175 52.1136C58.4282 51.8728 58.7887 51.9334 59.0589 52.384L59.2994 52.8049C59.3619 52.8961 59.4046 52.9994 59.4249 53.108C59.4451 53.2167 59.4424 53.3285 59.417 53.4361C59.3915 53.5437 59.3439 53.6447 59.2771 53.7328C59.2103 53.8209 59.1259 53.894 59.0292 53.9475C57.9815 54.6251 56.7626 54.99 55.5153 54.9996C54.7853 55.0332 54.0562 54.9166 53.373 54.6569C52.6899 54.3971 52.0673 53.9999 51.5436 53.4897C51.02 52.9795 50.6065 52.3672 50.3287 51.6906C50.051 51.0141 49.9148 50.2877 49.9287 49.5563C49.9287 46.3133 52.091 44.0889 55.1845 44.0889ZM57.2268 48.3279C57.1965 46.8852 56.3259 46.0131 55.1245 46.0131C53.8031 46.0131 52.8719 46.9149 52.6314 48.3279H57.2268Z" fill="black"/>
<path d="M60.8007 45.1713C60.7853 45.0571 60.7964 44.9409 60.8331 44.8317C60.8699 44.7226 60.9314 44.6234 61.0128 44.5419C61.0942 44.4604 61.1933 44.3989 61.3024 44.362C61.4115 44.3252 61.5276 44.3141 61.6416 44.3296H62.4226C62.5361 44.3167 62.6511 44.3296 62.759 44.3674C62.8669 44.4051 62.9649 44.4667 63.0457 44.5476C63.1265 44.6285 63.188 44.7266 63.2258 44.8346C63.2635 44.9426 63.2764 45.0577 63.2635 45.1713V46.1635C63.2629 46.4052 63.2428 46.6466 63.2035 46.8851H63.2338C63.6543 45.6506 64.7654 44.2695 66.237 44.2695C66.8077 44.2695 67.018 44.54 67.018 45.1113V45.893C67.027 46.0085 67.0104 46.1245 66.9693 46.2328C66.9283 46.3411 66.8638 46.439 66.7806 46.5194C66.6973 46.5998 66.5973 46.6609 66.4877 46.6981C66.3782 46.7353 66.2617 46.7478 66.1468 46.7347C64.2547 46.7347 63.3538 48.5984 63.3538 50.4946V53.8318C63.3718 53.9465 63.3625 54.0638 63.3266 54.1741C63.2907 54.2845 63.2293 54.3848 63.1473 54.4669C63.0653 54.5489 62.9651 54.6105 62.8548 54.6464C62.7446 54.6823 62.6274 54.6916 62.5128 54.6736H61.6114C61.4973 54.6891 61.3812 54.6779 61.2721 54.6411C61.1631 54.6043 61.0639 54.5427 60.9826 54.4613C60.9012 54.3798 60.8397 54.2806 60.8029 54.1714C60.7661 54.0622 60.755 53.946 60.7704 53.8318V45.1713H60.8007Z" fill="black"/>
<path d="M69.4506 46.5236H68.9102C68.7961 46.5391 68.68 46.528 68.571 46.4912C68.4619 46.4543 68.3628 46.3928 68.2814 46.3113C68.2 46.2298 68.1385 46.1306 68.1017 46.0214C68.0649 45.9123 68.0538 45.796 68.0693 45.6819V45.321C68.0538 45.2069 68.0649 45.0906 68.1017 44.9815C68.1385 44.8723 68.2 44.7731 68.2814 44.6916C68.3628 44.6101 68.4619 44.5486 68.571 44.5117C68.68 44.4749 68.7961 44.4638 68.9102 44.4793H69.5106V42.3749C69.4978 42.2612 69.5107 42.1461 69.5484 42.0382C69.5861 41.9302 69.6476 41.8321 69.7285 41.7512C69.8093 41.6703 69.9072 41.6087 70.0151 41.5709C70.123 41.5332 70.238 41.5203 70.3516 41.5332H71.1622C71.2758 41.5203 71.3908 41.5332 71.4986 41.5709C71.6065 41.6087 71.7045 41.6703 71.7853 41.7512C71.8661 41.8321 71.9277 41.9302 71.9654 42.0382C72.0031 42.1461 72.016 42.2612 72.0031 42.3749V44.4793H73.5073C73.6208 44.4664 73.7358 44.4793 73.8437 44.5171C73.9516 44.5548 74.0496 44.6164 74.1304 44.6973C74.2112 44.7782 74.2727 44.8763 74.3104 44.9843C74.3482 45.0923 74.3611 45.2074 74.3482 45.321V45.6819C74.3637 45.796 74.3526 45.9123 74.3158 46.0214C74.279 46.1306 74.2175 46.2298 74.1361 46.3113C74.0547 46.3928 73.9556 46.4543 73.8465 46.4912C73.7374 46.528 73.6213 46.5391 73.5073 46.5236H71.9757V50.5522C71.9757 52.0853 72.9366 52.4159 73.6575 52.4765C74.2882 52.5365 74.4984 52.747 74.4984 53.3182V53.9495C74.4984 54.5505 74.138 54.7913 73.4473 54.7913C71.5849 54.7913 69.3929 53.7991 69.3929 50.9754V46.5236H69.4506Z" fill="black"/>
<path d="M75.5773 41.7132V41.1122C75.5618 40.998 75.5729 40.8818 75.6097 40.7726C75.6465 40.6634 75.708 40.5642 75.7894 40.4828C75.8708 40.4013 75.9699 40.3397 76.079 40.3029C76.1881 40.2661 76.3042 40.255 76.4182 40.2705H77.3191C77.4327 40.2576 77.5477 40.2705 77.6556 40.3082C77.7634 40.346 77.8614 40.4076 77.9422 40.4885C78.023 40.5694 78.0846 40.6675 78.1223 40.7754C78.16 40.8834 78.1729 40.9985 78.1601 41.1122V41.7132C78.1729 41.8269 78.16 41.942 78.1223 42.05C78.0846 42.158 78.023 42.256 77.9422 42.3369C77.8614 42.4178 77.7634 42.4794 77.6556 42.5172C77.5477 42.5549 77.4327 42.5678 77.3191 42.555H76.4182C76.3037 42.573 76.1865 42.5637 76.0762 42.5278C75.966 42.4918 75.8658 42.4303 75.7838 42.3483C75.7018 42.2662 75.6404 42.1659 75.6045 42.0555C75.5686 41.9452 75.5593 41.8279 75.5773 41.7132Z" fill="black"/>
<path d="M75.5771 45.1708C75.5616 45.0566 75.5727 44.9404 75.6095 44.8312C75.6463 44.722 75.7078 44.6228 75.7892 44.5414C75.8706 44.4599 75.9697 44.3983 76.0788 44.3615C76.1878 44.3247 76.3039 44.3136 76.418 44.329H77.3189C77.4325 44.3162 77.5475 44.3291 77.6554 44.3668C77.7632 44.4046 77.8612 44.4662 77.942 44.5471C78.0228 44.628 78.0844 44.7261 78.1221 44.834C78.1598 44.942 78.1727 45.0571 78.1599 45.1708V53.8593C78.1779 53.974 78.1686 54.0913 78.1327 54.2017C78.0968 54.312 78.0353 54.4123 77.9534 54.4944C77.8714 54.5765 77.7712 54.638 77.6609 54.6739C77.5506 54.7098 77.4335 54.7191 77.3189 54.7011H76.418C76.3039 54.7166 76.1878 54.7055 76.0788 54.6686C75.9697 54.6318 75.8706 54.5703 75.7892 54.4888C75.7078 54.4073 75.6463 54.3081 75.6095 54.1989C75.5727 54.0897 75.5616 53.9735 75.5771 53.8593V45.1708Z" fill="black"/>
<path d="M81.2545 40.2705H80.3536C80.24 40.2576 80.125 40.2705 80.0171 40.3083C79.9093 40.346 79.8113 40.4076 79.7305 40.4885C79.6497 40.5694 79.5881 40.6675 79.5504 40.7755C79.5127 40.8834 79.4998 40.9985 79.5126 41.1122V53.8591C79.4972 53.9733 79.5083 54.0895 79.5451 54.1987C79.5818 54.3079 79.6433 54.4071 79.7247 54.4886C79.8061 54.57 79.9052 54.6316 80.0143 54.6684C80.1234 54.7052 80.2395 54.7164 80.3536 54.7009H81.2545C81.368 54.7137 81.483 54.7008 81.5909 54.6631C81.6988 54.6253 81.7968 54.5637 81.8776 54.4828C81.9584 54.4019 82.0199 54.3039 82.0577 54.1959C82.0954 54.0879 82.1083 53.9728 82.0954 53.8591V41.1122C82.1057 40.9991 82.0911 40.8851 82.0525 40.7782C82.0139 40.6714 81.9523 40.5744 81.872 40.4941C81.7918 40.4137 81.6949 40.3521 81.5881 40.3134C81.4814 40.2748 81.3675 40.2601 81.2545 40.2705Z" fill="black"/>
<path d="M85.1588 40.2705H84.2579C84.1443 40.2576 84.0293 40.2705 83.9214 40.3083C83.8136 40.346 83.7156 40.4076 83.6348 40.4885C83.554 40.5694 83.4924 40.6675 83.4547 40.7755C83.417 40.8834 83.4041 40.9985 83.4169 41.1122V53.8591C83.4015 53.9733 83.4126 54.0895 83.4494 54.1987C83.4861 54.3079 83.5476 54.4071 83.629 54.4886C83.7104 54.57 83.8095 54.6316 83.9186 54.6684C84.0277 54.7052 84.1438 54.7164 84.2579 54.7009H85.1588C85.2723 54.7137 85.3873 54.7008 85.4952 54.6631C85.6031 54.6253 85.7011 54.5637 85.7819 54.4828C85.8627 54.4019 85.9242 54.3039 85.962 54.1959C85.9997 54.0879 86.0126 53.9728 85.9997 53.8591V41.1122C86.0126 40.9985 85.9997 40.8834 85.962 40.7755C85.9242 40.6675 85.8627 40.5694 85.7819 40.4885C85.7011 40.4076 85.6031 40.346 85.4952 40.3083C85.3873 40.2705 85.2723 40.2576 85.1588 40.2705Z" fill="black"/>
</g>
<defs>
<clipPath id="clip0_8955_181101">
<rect width="71" height="19" fill="white" transform="translate(15 40)"/>
</clipPath>
</defs>
</svg>
