<svg width="100" height="100" viewBox="0 0 100 100" fill="none" xmlns="http://www.w3.org/2000/svg">
<rect x="0.5" y="0.5" width="99" height="99" rx="3.5" fill="white" stroke="#EEEEEE"/>
<path d="M43.6756 29.1342C46.1123 26.5809 49.5061 24.9668 53.2481 24.9668C58.2374 24.9668 62.5596 27.7842 64.8802 31.9516C66.8817 31.0418 69.1153 30.5429 71.4649 30.5429C80.4573 30.5429 87.7092 37.9679 87.7092 47.1244C87.7092 56.2809 80.4283 63.7059 71.4649 63.7059C70.3626 63.7059 69.2894 63.5885 68.2741 63.3831C66.2435 67.0516 62.3565 69.5461 57.8894 69.5461C56.0329 69.5461 54.2634 69.1059 52.697 68.3429C50.6374 73.2439 45.8222 76.707 40.2237 76.707C34.3932 76.707 29.4039 72.9798 27.4894 67.7266C26.6481 67.9026 25.7779 67.9907 24.9077 67.9907C17.9458 67.9907 12.3184 62.2385 12.3184 55.107C12.3184 50.3526 14.842 46.1852 18.613 43.9548C17.8298 42.1646 17.3947 40.1689 17.3947 38.0559C17.3657 29.9266 23.9504 23.2939 32.0145 23.2939C36.7718 23.2939 41.0069 25.5831 43.6756 29.1342Z" fill="#00A1E0"/>
<path d="M23.226 50.9981L23.5451 50.147C23.6031 50.0002 23.6901 50.0589 23.7481 50.0883C23.8352 50.147 23.8932 50.1763 24.0092 50.2644C24.9084 50.8513 25.7497 50.8513 26.0107 50.8513C26.6779 50.8513 27.113 50.4992 27.113 50.0002V49.9709C27.113 49.4426 26.4749 49.2372 25.7207 49.0024L25.5466 48.9437C24.5313 48.6502 23.429 48.21 23.429 46.9187V46.8894C23.429 45.6568 24.4153 44.7763 25.8367 44.7763H25.9817C26.8229 44.7763 27.6061 45.0111 28.1863 45.3926C28.2443 45.422 28.3023 45.4807 28.2733 45.5687C28.2443 45.6568 27.9832 46.3318 27.9542 46.4198C27.8962 46.5665 27.7512 46.4785 27.7512 46.4785C27.229 46.185 26.4458 45.9796 25.7787 45.9796C25.1695 45.9796 24.7924 46.3024 24.7924 46.7426V46.772C24.7924 47.2709 25.4596 47.5057 26.2138 47.7405L26.3588 47.7698C27.3741 48.0926 28.4474 48.5328 28.4474 49.7948V49.8242C28.4474 51.1742 27.4901 51.9959 25.9527 51.9959C25.1985 51.9959 24.4733 51.8785 23.6901 51.4676C23.5451 51.3796 23.4 51.3209 23.255 51.2035C23.226 51.1448 23.168 51.1155 23.226 50.9981ZM45.8519 50.9981L46.171 50.147C46.229 50.0002 46.3451 50.0589 46.3741 50.0883C46.4611 50.147 46.5191 50.1763 46.6352 50.2644C47.5344 50.8513 48.3756 50.8513 48.6367 50.8513C49.3039 50.8513 49.739 50.4992 49.739 50.0002V49.9709C49.739 49.4426 49.1008 49.2372 48.3466 49.0024L48.1726 48.9437C47.1573 48.6502 46.055 48.21 46.055 46.9187V46.8894C46.055 45.6568 47.0413 44.7763 48.4626 44.7763H48.6077C49.4489 44.7763 50.2321 45.0111 50.8123 45.3926C50.8703 45.422 50.9283 45.4807 50.8993 45.5687C50.8703 45.6568 50.6092 46.3318 50.5802 46.4198C50.5222 46.5665 50.3771 46.4785 50.3771 46.4785C49.855 46.185 49.0718 45.9796 48.4046 45.9796C47.7955 45.9796 47.4184 46.3024 47.4184 46.7426V46.772C47.4184 47.2709 48.0855 47.5057 48.8397 47.7405L48.9848 47.7698C50 48.0926 51.0733 48.5328 51.0733 49.7948V49.8242C51.0733 51.1742 50.1161 51.9959 48.5787 51.9959C47.8245 51.9959 47.0993 51.8785 46.3161 51.4676C46.171 51.3796 46.026 51.3209 45.881 51.2035C45.881 51.1448 45.8229 51.1155 45.8519 50.9981ZM62.6184 46.9774C62.7344 47.4176 62.8214 47.8872 62.8214 48.3861C62.8214 48.885 62.7634 49.3546 62.6184 49.7948C62.5023 50.235 62.2993 50.6165 62.0382 50.9394C61.7771 51.2622 61.4291 51.5263 61.052 51.7024C60.6458 51.8785 60.1817 51.9665 59.6596 51.9665C59.1374 51.9665 58.6733 51.8785 58.2672 51.7024C57.8611 51.5263 57.542 51.2622 57.281 50.9394C57.0199 50.6165 56.8168 50.235 56.7008 49.7948C56.5848 49.3546 56.4977 48.885 56.4977 48.3861C56.4977 47.8872 56.5558 47.4176 56.7008 46.9774C56.8168 46.5372 57.0199 46.1557 57.281 45.8328C57.542 45.51 57.8901 45.2459 58.2672 45.0698C58.6733 44.8937 59.1374 44.7763 59.6596 44.7763C60.1817 44.7763 60.6458 44.8644 61.052 45.0698C61.4581 45.2459 61.7771 45.51 62.0382 45.8328C62.2993 46.1557 62.5023 46.5372 62.6184 46.9774ZM61.313 48.3568C61.313 47.5937 61.168 47.0068 60.9069 46.5959C60.6458 46.185 60.2107 45.9796 59.6596 45.9796C59.0794 45.9796 58.6733 46.185 58.4123 46.5959C58.1512 47.0068 58.0061 47.5937 58.0061 48.3568C58.0061 49.1198 58.1512 49.7068 58.4123 50.147C58.6733 50.5578 59.0794 50.7633 59.6596 50.7633C60.2397 50.7633 60.6458 50.5578 60.9069 50.147C61.197 49.7361 61.313 49.1198 61.313 48.3568ZM73.2352 50.5578L73.5542 51.4383C73.5832 51.5557 73.4962 51.585 73.4962 51.585C73.0031 51.7905 72.3359 51.9078 71.6687 51.9078C70.5374 51.9078 69.6962 51.585 69.1161 50.9394C68.5359 50.2937 68.2458 49.4133 68.2458 48.3274C68.2458 47.8285 68.3039 47.3589 68.4489 46.9187C68.5939 46.4785 68.797 46.097 69.0871 45.7742C69.3771 45.4513 69.7252 45.1872 70.1313 45.0111C70.5374 44.835 71.0306 44.7176 71.5817 44.7176C71.9588 44.7176 72.2779 44.747 72.539 44.7763C72.829 44.835 73.2352 44.9231 73.4092 45.0111C73.4382 45.0111 73.5252 45.0698 73.4962 45.1578C73.3802 45.51 73.2932 45.7448 73.1771 46.0383C73.1191 46.185 73.0321 46.1263 73.0321 46.1263C72.597 45.9796 72.1909 45.9209 71.6687 45.9209C71.0306 45.9209 70.5374 46.1263 70.2474 46.5665C69.9283 46.9774 69.7542 47.535 69.7542 48.2981C69.7542 49.1198 69.9573 49.7068 70.3054 50.0883C70.6535 50.4698 71.1466 50.6459 71.7848 50.6459C72.0458 50.6459 72.2779 50.6165 72.481 50.5872C72.684 50.5578 72.8871 50.4992 73.0901 50.4111C73.0611 50.4698 73.1771 50.4405 73.2352 50.5578ZM79.8199 46.7133C80.11 47.7111 79.9649 48.5622 79.9359 48.6209C79.9359 48.7383 79.8199 48.7383 79.8199 48.7383H75.4397C75.4687 49.4133 75.6138 49.8828 75.9619 50.2057C76.281 50.5285 76.7741 50.7339 77.4703 50.7339C78.5145 50.7339 78.9497 50.5285 79.2687 50.4111C79.2687 50.4111 79.3848 50.3818 79.4428 50.4992L79.7329 51.3209C79.7909 51.4676 79.7329 51.497 79.7039 51.5263C79.4428 51.6731 78.7756 51.9665 77.4993 51.9665C76.8901 51.9665 76.339 51.8785 75.9039 51.7024C75.4687 51.5263 75.0916 51.2915 74.8016 50.9687C74.5115 50.6459 74.3084 50.2644 74.1634 49.8535C74.0184 49.4133 73.9604 48.9437 73.9604 48.4448C73.9604 47.9459 74.0184 47.4763 74.1634 47.0361C74.2794 46.5959 74.4825 46.2144 74.7436 45.8915C75.0046 45.5687 75.3527 45.3046 75.7588 45.1285C76.1649 44.9231 76.6581 44.835 77.2092 44.835C77.6733 44.835 78.1084 44.9231 78.4565 45.0992C78.7176 45.2165 79.0077 45.422 79.2978 45.7448C79.4428 45.8622 79.7039 46.3024 79.8199 46.7133ZM75.4687 47.6524H78.5726C78.5436 47.2415 78.4565 46.8894 78.2825 46.5959C78.0214 46.185 77.6443 45.9502 77.0642 45.9502C76.484 45.9502 76.0779 46.185 75.8168 46.5959C75.6428 46.86 75.5558 47.2122 75.4687 47.6524ZM44.8077 46.7133C45.0978 47.7111 44.9527 48.5622 44.9527 48.6209C44.9527 48.7383 44.8367 48.7383 44.8367 48.7383H40.4565C40.4855 49.4133 40.6306 49.8828 40.9787 50.2057C41.2978 50.5285 41.7909 50.7339 42.4871 50.7339C43.5313 50.7339 43.9665 50.5285 44.2855 50.4111C44.2855 50.4111 44.4016 50.3818 44.4596 50.4992L44.7497 51.3209C44.8077 51.4676 44.7497 51.497 44.7207 51.5263C44.4596 51.6731 43.7924 51.9665 42.5161 51.9665C41.9069 51.9665 41.3558 51.8785 40.9207 51.7024C40.4855 51.5263 40.1084 51.2915 39.8184 50.9687C39.5283 50.6459 39.3252 50.2644 39.1802 49.8535C39.0352 49.4133 38.9771 48.9437 38.9771 48.4448C38.9771 47.9459 39.0352 47.4763 39.1802 47.0361C39.2962 46.5959 39.4993 46.2144 39.7603 45.8915C40.0214 45.5687 40.3695 45.3046 40.7756 45.1285C41.1817 44.9231 41.6749 44.835 42.226 44.835C42.6901 44.835 43.1252 44.9231 43.4733 45.0992C43.7344 45.2165 44.0245 45.422 44.3145 45.7448C44.4306 45.8622 44.7207 46.3024 44.8077 46.7133ZM40.4565 47.6524H43.5894C43.5603 47.2415 43.4733 46.8894 43.2993 46.5959C43.0382 46.185 42.6611 45.9502 42.081 45.9502C41.5008 45.9502 41.0947 46.185 40.8336 46.5959C40.6306 46.86 40.5436 47.2122 40.4565 47.6524ZM32.7695 47.4176C32.7695 47.4176 33.1176 47.447 33.4947 47.5057V47.3296C33.4947 46.7426 33.3787 46.4492 33.1466 46.2731C32.9145 46.097 32.5374 45.9796 32.0733 45.9796C32.0733 45.9796 31 45.9796 30.1588 46.4198C30.1298 46.4492 30.1008 46.4492 30.1008 46.4492C30.1008 46.4492 29.9848 46.4785 29.9558 46.3905L29.6367 45.5394C29.5787 45.422 29.6657 45.3633 29.6657 45.3633C30.0718 45.0405 31 44.8644 31 44.8644C31.3191 44.8057 31.8413 44.747 32.1603 44.747C33.0306 44.747 33.6978 44.9524 34.1619 45.3633C34.626 45.7742 34.8581 46.4198 34.8581 47.3296V51.3796C34.8581 51.3796 34.8581 51.497 34.771 51.5263C34.771 51.5263 34.597 51.585 34.452 51.6144C34.3069 51.6437 33.7848 51.7611 33.3497 51.8198C32.9145 51.9078 32.4794 51.9372 32.0153 51.9372C31.5802 51.9372 31.2031 51.9078 30.855 51.8198C30.5069 51.7318 30.2168 51.6144 29.9558 51.4383C29.7237 51.2622 29.5207 51.0274 29.3756 50.7339C29.2306 50.4698 29.1726 50.1176 29.1726 49.7361C29.1726 49.3546 29.2596 49.0024 29.4046 48.7089C29.5497 48.4155 29.7817 48.1807 30.0428 47.9752C30.3039 47.7698 30.6229 47.6524 30.942 47.535C31.2901 47.447 31.6382 47.3883 32.0153 47.3883C32.3634 47.4176 32.5955 47.4176 32.7695 47.4176ZM31.029 50.5285C31.029 50.5285 31.4352 50.8513 32.3054 50.7926C32.9436 50.7633 33.4947 50.6459 33.4947 50.6459V48.6209C33.4947 48.6209 32.9436 48.5328 32.3054 48.5328C31.4061 48.5328 31.029 48.8557 31.029 48.8557C30.768 49.0318 30.652 49.3252 30.652 49.7068C30.652 49.9415 30.71 50.147 30.797 50.2937C30.826 50.3524 30.855 50.4111 31.029 50.5285ZM68.0138 45.1578C67.9848 45.2752 67.7527 45.8915 67.6947 46.097C67.6657 46.185 67.6077 46.2144 67.5207 46.2144C67.5207 46.2144 67.2596 46.1557 67.0275 46.1557C66.8825 46.1557 66.6504 46.185 66.4474 46.2437C66.2443 46.3024 66.0703 46.4198 65.8962 46.5665C65.7222 46.7133 65.6061 46.9481 65.5191 47.2122C65.4321 47.4763 65.3741 47.9165 65.3741 48.3861V51.6731C65.3741 51.7611 65.3161 51.8198 65.229 51.8198H64.0687C63.9817 51.8198 63.9237 51.7611 63.9237 51.6731V45.0698C63.9237 44.9818 63.9817 44.9231 64.0397 44.9231H65.171C65.2581 44.9231 65.2871 44.9818 65.2871 45.0698V45.5981C65.4611 45.3633 65.7512 45.1578 66.0123 45.0405C66.2733 44.9231 66.5924 44.835 67.1436 44.8644C67.4336 44.8937 67.8107 44.9524 67.8687 44.9818C67.9848 45.0111 68.0428 45.0405 68.0138 45.1578ZM57.2519 42.1057C57.281 42.1057 57.368 42.1644 57.339 42.2524L56.9909 43.1915C56.9619 43.2502 56.9329 43.3089 56.7878 43.2502C56.7588 43.2502 56.7008 43.2209 56.5558 43.1915C56.4687 43.1622 56.3237 43.1622 56.2077 43.1622C56.0336 43.1622 55.8886 43.1915 55.7436 43.2209C55.5985 43.2502 55.4825 43.3383 55.3665 43.4557C55.2504 43.5731 55.1344 43.7198 55.0474 43.9252C54.8733 44.3948 54.8153 44.8937 54.8153 44.9231H56.2077C56.3237 44.9231 56.3527 44.9818 56.3527 45.0698L56.1787 45.9796C56.1497 46.1263 56.0336 46.097 56.0336 46.097H54.5832L53.655 51.7611C53.539 52.3481 53.4229 52.847 53.2779 53.2578C53.1329 53.6687 52.9588 53.9622 52.6978 54.2557C52.4657 54.5198 52.2046 54.7252 51.8855 54.8133C51.5955 54.9307 51.2184 54.9894 50.8123 54.9894C50.6092 54.9894 50.4062 54.9894 50.1741 54.9307C50 54.9013 49.913 54.872 49.768 54.8133C49.71 54.7839 49.681 54.7252 49.71 54.6372C49.739 54.5492 50 53.8448 50.0291 53.7274C50.0871 53.61 50.1741 53.6687 50.1741 53.6687C50.2611 53.6981 50.3191 53.7274 50.4061 53.7568C50.5222 53.7861 50.6382 53.7861 50.7542 53.7861C50.9573 53.7861 51.1313 53.7568 51.2764 53.6981C51.4504 53.6394 51.5665 53.522 51.6825 53.3752C51.7985 53.2285 51.8855 53.0231 52.0016 52.7589C52.0886 52.4948 52.1756 52.1133 52.2626 51.6731L53.2489 46.1263H52.2916C52.1756 46.1263 52.1466 46.0676 52.1466 45.9796L52.3207 45.0698C52.3497 44.9231 52.4657 44.9524 52.4657 44.9524H53.4519L53.51 44.6589C53.655 43.7785 53.9451 43.1035 54.3802 42.6633C54.8153 42.2231 55.4535 41.9883 56.2367 41.9883C56.4687 41.9883 56.6718 42.0176 56.8458 42.047C56.9619 42.0176 57.1069 42.047 57.2519 42.1057ZM37.7008 51.6437C37.7008 51.7318 37.6428 51.7905 37.5848 51.7905H36.4245C36.3374 51.7905 36.3084 51.7318 36.3084 51.6437V42.2231C36.3084 42.1644 36.3665 42.0763 36.4245 42.0763H37.5848C37.6718 42.0763 37.7008 42.135 37.7008 42.2231V51.6437Z" fill="white"/>
</svg>
