<svg width="120" height="120" viewBox="0 0 120 120" fill="none"
  xmlns="http://www.w3.org/2000/svg">
  <rect width="120" height="120" fill="#13224D"/>
  <path d="M16 101.269L32.1564 54.7109L16 44.0735V101.269ZM67.0968 72.4733V46.0408L16 101.269L67.0968 72.4733ZM16 18V40.3109L49.344 56.7307L64.842 44.0735L16 18Z" fill="white"/>
  <path d="M70.0337 82.3441H66.4375V93.0558H66.2875L58.9125 82.3441H55.7419V99.3763H59.3547V88.6561H59.4796L66.9133 99.3763H70.0337V82.3441ZM75.9632 99.3763L77.2314 95.4925H83.3969L84.6651 99.3763H88.5362L82.6462 82.3441H77.9907L72.0921 99.3763H75.9632ZM78.1492 92.6816L80.2514 86.236H80.3849L82.4876 92.6816H78.1492ZM91.5691 82.3441H87.5559L93.4545 99.3763H98.11L104 82.3441H99.9954L95.8572 95.2843H95.6987L91.5691 82.3441Z" fill="white"/>
</svg>
