<svg width="100" height="100" viewBox="0 0 100 100" fill="none" xmlns="http://www.w3.org/2000/svg">
<rect width="100" height="100" rx="4" fill="#1C294F"/>
<g clip-path="url(#clip0_8955_181194)">
<path d="M50.7136 75.5772C51.7073 75.6416 52.8099 74.7336 52.8218 73.3878C52.832 72.2265 51.8701 71.2208 50.7918 71.1908C49.6894 71.1602 48.6061 72.0652 48.6189 73.4051C48.6326 74.8247 49.8038 75.6398 50.7136 75.5772ZM27.6643 52.6655C28.8277 52.6646 29.7485 51.6871 29.7481 50.4532C29.7477 49.2604 28.8039 48.2769 27.6579 48.2752C26.5097 48.2735 25.5496 49.2759 25.548 50.4783C25.5464 51.6852 26.4957 52.6664 27.6643 52.6655ZM48.6769 27.8479C48.7033 28.0103 48.7171 28.1758 48.7582 28.3343C49.067 29.5277 50.2286 30.2239 51.3517 29.8938C52.1912 29.6469 52.8193 28.8328 52.8722 27.8371C52.9256 26.8293 52.3497 25.8885 51.3669 25.5816C49.972 25.146 48.5744 26.3399 48.6769 27.8479ZM60.1254 41.5735C59.2716 42.4039 58.4539 43.1991 57.6309 43.9996C56.7228 43.1705 55.71 42.5187 54.5676 42.078C53.4823 41.6594 52.3628 41.432 51.1939 41.4028C49.4816 41.36 47.8636 41.7066 46.3562 42.512C43.6693 43.9477 41.9573 46.1516 41.428 49.1667C40.9484 51.8984 41.6668 54.3613 43.4404 56.4908C45.0034 58.3676 47.0293 59.4578 49.4259 59.8414C52.1684 60.2802 54.5701 59.4815 56.6896 57.7376C57.0084 57.4753 57.3098 57.1918 57.6459 56.8945C58.3631 57.7068 59.0785 58.5172 59.8138 59.35C57.8484 61.3621 55.4789 62.5924 52.6938 63.0664C52.6875 63.1536 52.6766 63.2333 52.6764 63.3131C52.6757 64.8448 52.6792 66.3764 52.6728 67.9081C52.6721 68.0893 52.7225 68.1684 52.8971 68.2508C54.8499 69.1725 55.9914 70.6931 56.221 72.8628C56.5229 75.7181 54.5901 78.3001 51.817 78.8787C48.8078 79.5065 45.8243 77.6443 45.1797 74.5198C44.6207 71.8093 46.0372 69.2341 48.6126 68.1737C48.7857 68.1024 48.8516 68.0188 48.8509 67.8336C48.845 66.3295 48.8448 64.8256 48.8504 63.3215C48.851 63.1409 48.8015 63.0721 48.6121 63.0396C47.2515 62.8067 45.9541 62.3784 44.7395 61.7163C42.3633 60.4211 40.5634 58.5675 39.3551 56.137C38.6972 54.8137 38.3759 53.5565 38.1777 52.3896C36.416 52.3896 34.6512 52.3896 32.8659 52.3896C32.2995 53.8483 31.321 54.9469 29.8776 55.594C28.6737 56.1336 27.4231 56.2278 26.1461 55.8899C23.72 55.2481 21.7947 52.9532 22.0176 50.0174C22.2132 47.4423 24.1092 45.3987 26.5699 44.9658C29.5172 44.4473 31.9171 46.1506 32.8095 48.4328C32.8749 48.4373 32.9467 48.4467 33.0185 48.4467C34.6672 48.4474 36.3158 48.4445 37.9645 48.4508C38.1642 48.4516 38.2282 48.4067 38.2705 48.1876C38.7415 45.7506 39.8112 43.618 41.5245 41.8114C42.9683 40.2889 44.6774 39.1843 46.6611 38.5206C47.2903 38.31 47.9494 38.187 48.5983 38.0391C48.7677 38.0004 48.8506 37.9521 48.8497 37.7582C48.8428 36.2911 48.844 34.8239 48.8504 33.3569C48.8511 33.1789 48.7796 33.106 48.6227 33.0366C46.6736 32.1745 45.5142 30.6704 45.1865 28.5779C44.9256 26.912 45.3565 25.3873 46.4227 24.0674C47.3601 22.907 48.5855 22.2356 50.0566 22.0441C52.2306 21.7613 54.4189 22.8803 55.519 24.7829C56.056 25.7117 56.3527 26.7115 56.3138 27.7723C56.2257 30.1716 55.1207 31.9428 52.929 32.9841C52.7481 33.07 52.6698 33.1572 52.6712 33.368C52.6813 34.8166 52.6802 36.2653 52.6722 37.714C52.6711 37.9255 52.7165 38.0059 52.9483 38.046C55.1747 38.4299 57.218 39.2557 59.0163 40.6448C59.3861 40.9304 59.7339 41.2443 60.1254 41.5735Z" fill="white"/>
<path d="M73.7228 52.6659C73.8346 52.6545 73.985 52.6592 74.1241 52.6217C75.5074 52.2499 76.1283 50.682 75.4272 49.3425C74.8699 48.2774 73.6041 47.9598 72.6161 48.6374C71.7286 49.246 71.4307 50.5587 71.9743 51.5637C72.3385 52.2373 72.8914 52.6471 73.7228 52.6659ZM48.7866 50.4726C48.8134 50.6624 48.8267 50.8554 48.8689 51.0417C49.2032 52.5138 50.859 53.1527 51.9937 52.2507C52.8991 51.5309 53.087 50.0668 52.3869 49.1227C51.9107 48.4807 51.2734 48.1526 50.4757 48.3115C49.464 48.5131 48.8072 49.3966 48.7866 50.4726ZM78.9996 50.9746C78.9942 52.1146 78.4111 53.5333 77.208 54.6681C76.3797 55.4495 75.3867 55.9018 74.2432 56.0403C71.8173 56.3342 69.599 54.8504 68.7298 52.6614C68.6535 52.4694 68.5585 52.4243 68.3692 52.4246C64.252 52.4294 60.1348 52.4292 56.0175 52.4246C55.8361 52.4243 55.7561 52.4724 55.68 52.6523C54.9769 54.3146 53.7858 55.4428 52.0249 55.9183C50.1019 56.4376 47.9026 55.6816 46.6718 54.1155C45.8606 53.0831 45.421 51.9107 45.3957 50.6127C45.3434 47.9252 47.0935 45.4445 49.8462 44.9548C52.3063 44.517 54.527 45.8458 55.5444 47.9687C55.5839 48.0511 55.6234 48.1337 55.6592 48.218C55.8413 48.647 55.8407 48.6471 56.2912 48.6471C60.2426 48.6471 64.1942 48.6416 68.1456 48.6569C68.4907 48.6583 68.6332 48.5447 68.7609 48.2401C69.4659 46.5581 70.6854 45.4219 72.4735 45.0196C74.6035 44.5404 76.3853 45.2123 77.7672 46.8896C78.613 47.916 78.9992 49.1275 78.9996 50.9746Z" fill="white"/>
</g>
<defs>
<clipPath id="clip0_8955_181194">
<rect width="57" height="57" fill="white" transform="translate(22 22)"/>
</clipPath>
</defs>
</svg>
