<svg width="100" height="100" viewBox="0 0 100 100" fill="none" xmlns="http://www.w3.org/2000/svg">
<rect width="100" height="100" rx="4" fill="white"/>
<rect x="0.5" y="0.5" width="99" height="99" rx="3.5" stroke="#EEEEEE"/>
<g clip-path="url(#clip0_972_51450)">
<path fill-rule="evenodd" clip-rule="evenodd" d="M86.9875 26.0293H40.3366V72.9707H86.9875V26.0293ZM38.3372 26.0293H31.0064V72.9707H38.3372V26.0293ZM25.6748 26.0293H22.3426V72.9707H25.6748V26.0293ZM15.0118 26.0293H13.0125V72.9707H15.0118V26.0293Z" fill="black"/>
<path fill-rule="evenodd" clip-rule="evenodd" d="M51.2698 34.5055H52.1182V39.6093C52.1182 40.182 52.0868 40.8231 51.6776 41.2677C51.477 41.4796 51.2311 41.6157 50.9412 41.6734C50.9266 41.6613 50.1542 40.8814 50.1542 40.8814C50.3834 40.8787 50.6233 40.8962 50.8406 40.8063C50.9925 40.7473 51.0998 40.6427 51.1625 40.4932C51.2411 40.3443 51.2698 40.0009 51.2698 39.5114V34.5055ZM57.8125 35.2334C57.1341 35.2334 56.5769 35.4466 56.1404 35.8738C55.7039 36.301 55.4853 36.8462 55.4853 37.5094C55.4853 38.1531 55.7045 38.6876 56.1424 39.1148C56.5803 39.5419 57.1294 39.7552 57.7872 39.7552C58.449 39.7552 59.0001 39.5372 59.4426 39.102C59.8851 38.6668 60.1064 38.1243 60.1064 37.4752C60.1064 36.8428 59.8851 36.3117 59.4426 35.8805C59.0001 35.4493 58.4576 35.2334 57.8125 35.2334M57.7785 34.4226C58.6949 34.4226 59.4579 34.7143 60.0671 35.2978C60.6762 35.8812 60.9808 36.6128 60.9808 37.4926C60.9808 38.3717 60.6729 39.1 60.0584 39.676C59.4433 40.2527 58.6682 40.5411 57.7325 40.5411C56.8388 40.5411 56.0944 40.2527 55.4993 39.676C54.9048 39.1 54.6063 38.3778 54.6063 37.5094C54.6063 36.6182 54.9068 35.8812 55.5059 35.2978C56.1051 34.7143 56.8628 34.4226 57.7785 34.4226M68.6309 40.4714H67.7825V37.8755H64.315V40.4714H63.4659V34.5065H64.315V37.1037H67.7825V34.5065H68.6309V40.4714ZM77.3228 40.4714H76.5924L72.4498 35.8771V40.4714H71.6528V34.5065H72.3399L76.5165 39.1396V34.5065H77.3228V40.4714ZM51.4446 53.3018V52.5279H48.6475V47.3033H47.7918V53.3018H51.4446ZM58.1487 53.3018V52.5279H55.1583V50.663H57.982V49.8891H55.1583V48.0772H58.07V47.3033H54.3026V53.3018H58.1487ZM65.5596 47.3033H64.7479L63.0964 51.4375L61.4523 47.3033H60.5966L63.0085 53.3547H63.1744L65.1498 48.4467L67.1091 53.3547H67.275L69.6949 47.3033H68.8478L67.2211 51.4375L65.5596 47.3033ZM73.1335 47.3038H72.2765V53.3016H73.1335V47.3038ZM77.9561 50.8029L77.307 50.4066C76.9005 50.1565 76.6432 49.907 76.4586 49.675C76.266 49.4349 76.17 49.1399 76.17 48.8247C76.17 48.3526 76.3326 47.9684 76.6585 47.674C76.9844 47.3796 77.4183 47.2367 77.9394 47.2367C78.4879 47.2367 78.8931 47.3776 79.3083 47.6585V48.6336C78.8791 48.2178 78.4166 48.0093 77.9214 48.0093C77.6429 48.0093 77.4143 48.0743 77.235 48.2044C77.0557 48.3338 76.9664 48.5042 76.9664 48.7067C76.9664 48.8864 77.0098 49.0353 77.141 49.1922C77.2737 49.3491 77.5082 49.5322 77.8015 49.7052L78.4773 50.0928C79.2043 50.53 79.5436 51.0859 79.5436 51.7612C79.5436 52.2427 79.3783 52.639 79.0577 52.9388C78.7378 53.2392 78.3273 53.4001 77.8155 53.3908C77.2277 53.3794 76.7012 53.2151 76.2067 52.8382V51.7478C76.6672 52.3352 77.201 52.6162 77.8061 52.6162C78.0741 52.6162 78.2967 52.5539 78.4739 52.4043C78.6519 52.2548 78.7485 52.067 78.7485 51.8417C78.7485 51.4762 78.4793 51.1302 77.9561 50.8029M48.3958 60.6166C48.3958 60.6876 48.4237 60.7701 48.4811 60.864C48.5384 60.9579 48.6037 61.039 48.6797 61.1068C48.7923 61.0377 48.8816 60.9666 48.9476 60.8955C49.0142 60.8244 49.0475 60.7406 49.0475 60.6447C49.0475 60.5562 49.0169 60.4824 48.9549 60.4234C48.8929 60.3644 48.8136 60.3349 48.7163 60.3349C48.631 60.3349 48.555 60.3611 48.4917 60.414C48.4277 60.4664 48.3958 60.5341 48.3958 60.6166M48.0165 62.293C48.0165 62.397 48.0559 62.4848 48.1352 62.5566C48.2151 62.6277 48.3091 62.6632 48.4184 62.6632C48.6037 62.6632 48.7989 62.5733 49.0055 62.393L48.4511 61.768C48.3151 61.8545 48.2091 61.9396 48.1318 62.0228C48.0545 62.1053 48.0165 62.1951 48.0165 62.293M48.7256 59.8628C48.9722 59.8628 49.1782 59.9326 49.3421 60.0734C49.506 60.2135 49.588 60.3933 49.588 60.6119C49.588 60.7701 49.5394 60.917 49.4414 61.0531C49.3434 61.1899 49.1935 61.3254 48.9922 61.4582L49.4361 61.9745C49.5667 61.8431 49.6866 61.6707 49.7966 61.4582H50.3831C50.2291 61.831 50.0319 62.1361 49.7919 62.3749L50.4411 63.1125H49.634L49.3361 62.7705C49.1728 62.9066 49.0155 63.0052 48.8636 63.0642C48.7116 63.1239 48.5304 63.1541 48.3191 63.1541C48.0585 63.1541 47.8393 63.0749 47.66 62.9167C47.4814 62.7584 47.3921 62.5646 47.3921 62.3353C47.3921 62.1442 47.4567 61.9732 47.5854 61.8223C47.714 61.6707 47.8973 61.5312 48.1338 61.4025C48.0212 61.2603 47.9392 61.1309 47.8866 61.0156C47.8346 60.9002 47.8079 60.7822 47.8079 60.6628C47.8079 60.4261 47.8939 60.2337 48.0665 60.0848C48.2385 59.9366 48.4577 59.8628 48.7256 59.8628M53.7071 61.2583C53.8737 61.2583 54.003 61.2194 54.097 61.143C54.1903 61.0665 54.2369 60.9532 54.2369 60.8023C54.2369 60.5032 54.0456 60.3537 53.6638 60.3537H53.2379V61.2583H53.7071ZM53.8617 59.8628C54.1643 59.8628 54.4095 59.9513 54.5981 60.127C54.7867 60.3027 54.8814 60.5294 54.8814 60.807C54.8814 61.088 54.7861 61.3146 54.5948 61.489C54.4035 61.6627 54.1516 61.7485 53.839 61.7485H53.2379V63.1125H52.6135V59.8628H53.8617ZM56.4601 61.8445H57.5024L56.9573 60.5583L56.4601 61.8445ZM57.2745 59.8629L58.7 63.1126H58.0416L57.7063 62.3213H56.2708L55.9589 63.1126H55.3051L56.636 59.8629H57.2745ZM60.5544 61.2492C60.7184 61.2492 60.8463 61.2076 60.9396 61.1258C61.0329 61.0433 61.0796 60.9313 61.0796 60.7885C61.0796 60.6396 61.0336 60.5283 60.941 60.4546C60.8483 60.3815 60.7164 60.3439 60.5458 60.3439H60.1572V61.2492H60.5544ZM60.6957 59.8631C60.9996 59.8631 61.2469 59.9476 61.4375 60.1166C61.6287 60.2856 61.724 60.5062 61.724 60.7771C61.724 60.9615 61.6774 61.1225 61.5821 61.2599C61.4875 61.3967 61.3468 61.5047 61.1602 61.5838C61.2635 61.6395 61.3555 61.7159 61.4355 61.8118C61.5154 61.9077 61.6154 62.0707 61.734 62.298C61.9306 62.6916 62.0773 62.9632 62.1732 63.1121H61.4775C61.4288 63.041 61.3648 62.927 61.2829 62.7708C61.1043 62.4247 60.973 62.1914 60.8897 62.0713C60.807 61.9513 60.7271 61.8661 60.6497 61.8158C60.5724 61.7656 60.4845 61.7394 60.3838 61.7394H60.1572V63.1121H59.5335V59.8631H60.6957ZM64.4338 60.3537V63.1125H63.81V60.3537H62.6637V59.8628H65.5807V60.3537H64.4338ZM69.0692 59.8628H69.679V63.1125H69.1425L67.2131 60.807V63.1125H66.6027V59.8628H67.1505L69.0692 62.1308V59.8628ZM71.6101 60.3537V61.2074H73.0103V61.6976H71.6101V62.621H73.1056V63.1125H70.9857V59.8628H73.0729V60.3537H71.6101ZM75.3313 61.2492C75.4946 61.2492 75.6226 61.2076 75.7159 61.1258C75.8092 61.0433 75.8558 60.9313 75.8558 60.7885C75.8558 60.6396 75.8098 60.5283 75.7172 60.4546C75.6246 60.3815 75.4926 60.3439 75.322 60.3439H74.9335V61.2492H75.3313ZM75.4719 59.8631C75.7758 59.8631 76.0231 59.9476 76.2144 60.1166C76.405 60.2856 76.5009 60.5062 76.5009 60.7771C76.5009 60.9615 76.4536 61.1225 76.3583 61.2599C76.2637 61.3967 76.1231 61.5047 75.9364 61.5838C76.0397 61.6395 76.1317 61.7159 76.2117 61.8118C76.2917 61.9077 76.3916 62.0707 76.5103 62.298C76.7069 62.6916 76.8535 62.9632 76.9494 63.1121H76.2537C76.2057 63.041 76.141 62.927 76.0591 62.7708C75.8805 62.4247 75.7498 62.1914 75.6665 62.0713C75.5832 61.9513 75.5033 61.8661 75.426 61.8158C75.3486 61.7656 75.2607 61.7394 75.16 61.7394H74.9335V63.1121H74.3097V59.8631H75.4719ZM78.8223 59.8209C79.1369 59.8209 79.4395 59.9 79.73 60.0583V60.6169C79.3961 60.4137 79.0996 60.3118 78.8403 60.3118C78.6837 60.3118 78.5604 60.342 78.4725 60.4037C78.3838 60.4653 78.3392 60.5465 78.3392 60.6491C78.3392 60.7718 78.4211 60.8851 78.5864 60.9884C78.6331 61.0199 78.8103 61.1064 79.1202 61.2493C79.3855 61.3747 79.5767 61.5141 79.694 61.6677C79.8107 61.8213 79.8693 62.0057 79.8693 62.221C79.8693 62.5006 79.7694 62.7252 79.5701 62.8969C79.3702 63.0686 79.1122 63.1544 78.7943 63.1544C78.5878 63.1544 78.4105 63.1316 78.2612 63.0853C78.1132 63.0397 77.9466 62.9613 77.7614 62.8493V62.231C78.1066 62.5187 78.4318 62.6629 78.7364 62.6629C78.8896 62.6629 79.0123 62.6293 79.1069 62.563C79.2002 62.4966 79.2475 62.408 79.2475 62.2981C79.2475 62.1479 79.1662 62.0251 79.0029 61.9306C78.867 61.8562 78.6924 61.767 78.4778 61.663C78.2239 61.5463 78.0333 61.4109 77.908 61.256C77.782 61.1011 77.72 60.9213 77.72 60.7168C77.72 60.4439 77.8207 60.2259 78.0226 60.0637C78.2245 59.9021 78.4911 59.8209 78.8223 59.8209" fill="white"/>
</g>
<defs>
<clipPath id="clip0_972_51450">
<rect width="74" height="47" fill="white" transform="translate(13 26)"/>
</clipPath>
</defs>
</svg>
