<svg width="100" height="100" viewBox="0 0 100 100" fill="none" xmlns="http://www.w3.org/2000/svg">
<rect x="0.5" y="0.5" width="99" height="99" rx="3.5" fill="white" stroke="#EEEEEE"/>
<g clip-path="url(#clip0_10222_213006)">
<path fill-rule="evenodd" clip-rule="evenodd" d="M21.3411 40.25C26.3669 40.25 30.4409 44.353 30.4409 49.4154C30.4409 54.4778 26.3669 58.5808 21.3411 58.5808C16.3153 58.5808 12.2402 54.4778 12.2402 49.4154C12.2402 44.353 16.3153 40.25 21.3411 40.25Z" fill="#00B5FA"/>
<path d="M33.434 52.4394C33.434 53.1073 33.6029 53.7031 33.9395 54.2269C34.2761 54.7506 34.8483 55.012 35.6539 55.012C36.24 55.012 36.6863 54.8259 36.9939 54.4527C37.3015 54.0795 37.5069 53.6762 37.6091 53.2417C37.6532 53.075 37.6822 52.9137 37.6973 52.7577C37.7124 52.6018 37.7199 52.4566 37.7199 52.3232C37.7199 51.622 37.5618 50.9928 37.2477 50.4357C36.9326 49.8786 36.3723 49.6011 35.5667 49.6011C34.7171 49.6011 34.1492 49.8937 33.8642 50.4777C33.5781 51.0627 33.4351 51.7048 33.4351 52.4071V52.4566V52.4394H33.434V52.4394ZM46.5648 52.3383C46.5648 52.2254 46.5615 52.1017 46.554 51.9662C46.5476 51.8307 46.5304 51.6951 46.5024 51.5607C46.4196 51.0757 46.2271 50.6304 45.9238 50.2239C45.6205 49.8184 45.1107 49.6151 44.3933 49.6151C43.676 49.6151 43.163 49.8184 42.8522 50.2239C42.5424 50.6293 42.352 51.0757 42.2832 51.5607C42.2553 51.6962 42.238 51.8317 42.2316 51.9662C42.2241 52.1017 42.2208 52.2318 42.2208 52.3555C42.2208 52.4792 42.2241 52.6093 42.2316 52.7448C42.238 52.8803 42.2553 53.0159 42.2832 53.1503C42.352 53.6353 42.5413 54.0806 42.8522 54.4871C43.163 54.8926 43.676 55.0959 44.3933 55.0959C45.1107 55.0959 45.6205 54.8926 45.9238 54.4871C46.2271 54.0817 46.4207 53.6353 46.5024 53.1503C46.5304 53.0148 46.5476 52.8793 46.554 52.7448C46.5605 52.6093 46.5648 52.4792 46.5648 52.3555V52.3383V52.3383ZM48.9868 51.8167C48.9986 51.9909 49.0051 52.1705 49.0051 52.3555V52.3383C49.0051 52.9341 48.9427 53.4719 48.819 53.9515L50.8807 53.9376C50.8807 54.3323 51.0259 54.6528 51.3174 54.9012C51.6078 55.1496 52.1369 55.2733 52.9027 55.2733C53.3426 55.2733 53.676 55.2142 53.9029 55.0959C54.1298 54.9776 54.2782 54.8453 54.3492 54.699C54.3922 54.6313 54.4202 54.5667 54.4342 54.5043C54.4482 54.442 54.4557 54.3893 54.4557 54.3441C54.4557 54.0623 54.2825 53.8601 53.9341 53.7354C53.5867 53.6117 53.1651 53.4988 52.6682 53.3977C52.4983 53.3643 52.3208 53.3299 52.1369 53.2966C51.953 53.2632 51.768 53.2234 51.5841 53.1783C50.8603 53.0094 50.1978 52.7502 49.5955 52.4007C49.3374 52.2512 49.1341 52.0565 48.9868 51.8167V51.8167ZM33.434 47.7954V49.0817H33.4555C33.4846 49.0483 33.5147 49.0096 33.5437 48.9644C33.5728 48.9203 33.6093 48.8752 33.6534 48.8311C33.8879 48.5192 34.2062 48.232 34.6095 47.9707C35.0129 47.7093 35.5872 47.5781 36.3346 47.5781C37.3897 47.5781 38.3157 47.9567 39.1148 48.7139C39.5644 49.1408 39.8881 49.6915 40.0838 50.3658C40.3151 49.7108 40.6807 49.1785 41.1776 48.7687C42.1079 48.0019 43.1802 47.6179 44.3933 47.6179C45.6065 47.6179 46.6788 48.0008 47.6091 48.7687C48.1049 49.1774 48.4673 49.7065 48.6996 50.3572C48.7029 50.3163 48.7072 50.2766 48.7115 50.2357C48.7254 50.112 48.747 49.9872 48.7749 49.8636C48.9169 49.3 49.2643 48.7816 49.8171 48.3084C50.3699 47.8352 51.2421 47.5986 52.4338 47.5986C52.5617 47.5986 52.6897 47.6018 52.8166 47.6072C52.9446 47.6125 53.0791 47.6211 53.221 47.633C54.0298 47.7007 54.774 47.9341 55.4548 48.3342C56.1356 48.7343 56.5185 49.4807 56.6035 50.5745V50.5573H54.2212C54.2212 50.5573 54.218 50.5487 54.2105 50.5314C54.204 50.5142 54.1997 50.5003 54.1997 50.4895C54.1427 50.2077 54.0147 49.9539 53.8169 49.7291C53.6179 49.5043 53.207 49.3914 52.5833 49.3914C52.0304 49.3914 51.654 49.4613 51.4561 49.6022C51.2572 49.7431 51.1442 49.898 51.1152 50.0668C51.1012 50.1002 51.0937 50.1346 51.0937 50.1679V50.269C51.0937 50.5282 51.2604 50.7197 51.5938 50.8444C51.9272 50.9681 52.3348 51.0757 52.8166 51.166C53.0005 51.1993 53.192 51.2359 53.391 51.2757C53.5899 51.3155 53.7953 51.3628 54.0083 51.4198C54.7321 51.5779 55.3946 51.8339 55.998 52.1888C56.6002 52.5437 56.9025 53.1385 56.9025 53.972C56.9025 54.8732 56.6433 55.5444 56.1259 55.9832C55.6086 56.423 55.0375 56.7156 54.4138 56.8618C54.1298 56.9296 53.8534 56.9769 53.5845 57.006C53.3157 57.0339 53.0672 57.0479 52.8403 57.0479H52.6381C52.5747 57.0479 52.5069 57.0425 52.4359 57.0307C51.4292 56.9974 50.5075 56.7575 49.6708 56.3123C49.0707 55.9928 48.6781 55.4981 48.4942 54.8281C48.2716 55.2636 47.978 55.6325 47.6112 55.9315C46.6809 56.693 45.6087 57.0737 44.3955 57.0737C43.1823 57.0737 42.1101 56.693 41.1798 55.9315C40.6237 55.4766 40.2333 54.8679 40.0096 54.1053C39.8547 54.5732 39.6418 55.0195 39.3697 55.4443C38.7395 56.4241 37.707 56.9145 36.2712 56.9145C35.6711 56.9145 35.1871 56.8307 34.8203 56.664C34.4547 56.4972 34.1761 56.308 33.9858 56.0961C33.8836 55.9961 33.7986 55.9014 33.733 55.8122C33.6674 55.7229 33.6126 55.6401 33.5685 55.5616L33.547 55.5444V59.9034H31.0195V47.7954H33.434V47.7954ZM72.1907 52.3996C72.1907 52.2899 72.1874 52.1705 72.181 52.0393C72.1745 51.9081 72.1584 51.778 72.1326 51.6467C72.0551 51.1778 71.8723 50.7465 71.5862 50.354C71.3001 49.9614 70.8172 49.7646 70.1408 49.7646C69.4632 49.7646 68.9781 49.9614 68.6856 50.354C68.392 50.7465 68.2135 51.1778 68.1479 51.6467C68.122 51.778 68.1059 51.9081 68.0995 52.0393C68.093 52.1705 68.0898 52.2953 68.0898 52.4157C68.0898 52.5362 68.093 52.6609 68.0995 52.7922C68.1059 52.9234 68.122 53.0535 68.1479 53.1847C68.2135 53.6536 68.392 54.0849 68.6856 54.4775C68.9781 54.87 69.4643 55.0668 70.1408 55.0668C70.8183 55.0668 71.3001 54.87 71.5862 54.4775C71.8723 54.0849 72.0551 53.6536 72.1326 53.1847C72.1584 53.0535 72.1756 52.9234 72.181 52.7922C72.1874 52.6609 72.1907 52.5362 72.1907 52.4157V52.3996ZM74.4965 52.3996C74.4965 53.9806 74.0566 55.14 73.178 55.8756C72.2982 56.6123 71.2862 56.9801 70.1397 56.9801C68.9932 56.9801 67.9812 56.6123 67.1014 55.8756C66.2216 55.1389 65.7828 53.986 65.7828 52.4157C65.7828 50.8455 66.2227 49.6893 67.1014 48.9472C67.9801 48.2051 68.9932 47.8341 70.1397 47.8341C71.2862 47.8341 72.2982 48.2051 73.178 48.9472C74.0577 49.6893 74.4965 50.8455 74.4965 52.4157V52.3996ZM87.3788 48.0739L84.6804 56.778H82.153L80.6968 50.4304H80.6537L79.1975 56.778H76.6701L74.0362 48.0739H76.6497L78.1059 54.3237H78.1489L79.4771 48.0739H81.94L83.3532 54.3237H83.3747L84.8525 48.0739H87.3788V48.0739ZM65.443 50.7734V56.7941H63.1371V51.5102C63.1371 51.4338 63.1339 51.3413 63.1274 51.2316C63.121 51.123 63.1102 51.0079 63.0973 50.8885C63.0435 50.6272 62.9166 50.382 62.7166 50.1518C62.5155 49.9227 62.1552 49.8087 61.6336 49.8087C61.1259 49.8087 60.6979 49.9776 60.3505 50.3163C60.0031 50.6541 59.8289 51.1563 59.8289 51.821V56.7952H57.5241V48.0901H59.7289V49.3667H59.7687C59.8224 49.2903 59.8827 49.2032 59.9493 49.1053C60.016 49.0075 60.0967 48.9031 60.1903 48.7945C60.3914 48.5654 60.6678 48.3557 61.0227 48.1643C61.3765 47.9728 61.8347 47.8782 62.3961 47.8782C63.2511 47.8782 63.9728 48.1234 64.5611 48.6149C65.1494 49.1064 65.443 49.8313 65.443 50.7906V50.7734V50.7734Z" fill="#00B5FA"/>
<path fill-rule="evenodd" clip-rule="evenodd" d="M23.6627 48.593C24.1273 48.5726 24.5683 48.6382 24.9684 48.7748L20.6556 52.7316C20.4857 52.3917 20.3921 52.0131 20.3921 51.6109C20.3921 50.0235 21.8569 48.6716 23.6627 48.593V48.593ZM23.867 46.5625C25.5814 46.5625 27.1097 47.3358 28.1099 48.5446L21.7053 54.4104C23.2852 55.8645 27.114 55.4935 27.4194 51.0463L29.2402 50.9667C29.294 51.2689 29.3231 51.5797 29.3231 51.897C29.3231 54.8428 26.8795 57.2315 23.867 57.2315C20.8546 57.2315 18.4121 54.8428 18.4121 51.897C18.411 48.9512 20.8546 46.5625 23.867 46.5625" fill="white"/>
</g>
<defs>
<clipPath id="clip0_10222_213006">
<rect width="75.4851" height="20" fill="white" transform="translate(12 40)"/>
</clipPath>
</defs>
</svg>
