<svg width="100" height="100" viewBox="0 0 100 100" fill="none" xmlns="http://www.w3.org/2000/svg">
<rect x="0.5" y="0.5" width="99" height="99" rx="3.5" fill="white" stroke="#EEEEEE"/>
<path fill-rule="evenodd" clip-rule="evenodd" d="M15.1117 44L13 46.2051V55H15.1117V50.6034H18.2752V48.3983H15.1117V46.2051H19.3253V44H15.1117ZM24.6004 44L22.4904 46.2051V55H24.6037V50.6051H26.7039V55H28.8157V46.2051L26.7023 44H24.6004ZM24.6004 48.4H26.7007V46.2034H24.6004V48.4ZM84.8194 44V48.3983H82.7192V44H80.6074V55H82.7192V50.6034H84.8194V55H86.9327V44H84.8194ZM32.7683 44V55H34.8686V50.6051H36.9852V55H39.0936V50.6051L36.9852 48.3983H39.0936V46.2051L36.9852 44H32.7683ZM34.8686 48.4H36.9852V46.2034H34.8686V48.4ZM44.7626 44L42.6525 46.2051V55H44.7626V50.6034H47.9277V48.3983H44.7626V46.2051H48.9778V44H44.7626ZM61.6382 44L61.63 46.2051H63.7368V55H65.8485V46.2051H67.9552V44H61.6382ZM54.2497 44L52.1429 46.2051H52.1412V52.7983H52.1445L54.2497 55H58.4665V52.7983H54.2497V50.6034H57.4148V48.3983H54.2497V46.2051H58.4665V44H54.2497ZM72.8333 44L70.7233 46.2051V52.7983L72.8333 55H77.0486V52.7983H72.835V46.2051H77.0469V44H72.8333Z" fill="black"/>
</svg>
