<svg width="100" height="100" viewBox="0 0 100 100" fill="none" xmlns="http://www.w3.org/2000/svg">
<rect width="100" height="100" rx="4" fill="#FFD430"/>
<g clip-path="url(#clip0_9691_204081)">
<path d="M62.25 36.7327C61.6902 33.8955 60.1627 31.3408 57.9284 29.5048C55.6942 27.6687 52.8918 26.6654 50 26.666C45.1833 26.666 41 29.3993 38.9167 33.3993C36.4671 33.6641 34.2017 34.8247 32.5558 36.6582C30.91 38.4917 29.9997 40.8688 30 43.3327C30 48.8493 34.4833 53.3327 40 53.3327H61.6667C66.2667 53.3327 70 49.5993 70 44.9993C70 40.5993 66.5833 37.0327 62.25 36.7327ZM53.3333 41.666V48.3327H46.6667V41.666H41.6667L49.4167 33.916C49.75 33.5827 50.2667 33.5827 50.6 33.916L58.3333 41.666H53.3333Z" fill="white"/>
</g>
<path d="M46.7581 81H49.3381L45.3781 70.365H42.6331L38.6281 81H41.1181L41.8831 78.84H45.9931L46.7581 81ZM43.9681 73.005L45.2431 76.68H42.6631L43.9681 73.005ZM52.1338 75.135V72.42H53.5138C54.4138 72.42 55.0288 72.93 55.0288 73.785C55.0288 74.61 54.4138 75.135 53.5138 75.135H52.1338ZM53.7538 77.175C55.9138 77.175 57.3988 75.78 57.3988 73.77C57.3988 71.79 55.9138 70.365 53.7538 70.365H49.7488V81H52.1188V77.175H53.7538ZM60.3747 81V70.365H57.9747V81H60.3747Z" fill="white"/>
<defs>
<clipPath id="clip0_9691_204081">
<rect width="40" height="40" fill="white" transform="translate(30 20)"/>
</clipPath>
</defs>
</svg>
