<svg width="100" height="100" viewBox="0 0 100 100" fill="none" xmlns="http://www.w3.org/2000/svg">
<g clip-path="url(#clip0_1314_52016)">
<g clip-path="url(#clip1_1314_52016)">
<rect width="100" height="100" rx="4" fill="white"/>
<g opacity="0.12">
<path d="M93.747 99.9995H7.25175C6.29312 100.023 5.33972 99.8514 4.44939 99.4953C3.55905 99.1392 2.75032 98.606 2.07227 97.9279C1.39422 97.2498 0.860965 96.4411 0.504859 95.5508C0.148753 94.6604 -0.022785 93.7071 0.000650016 92.7484V6.25321C-0.022785 5.29458 0.148753 4.34119 0.504859 3.45085C0.860965 2.56051 1.39422 1.75179 2.07227 1.07374C2.75032 0.395682 3.55905 -0.13757 4.44939 -0.493676C5.33972 -0.849782 6.29312 -1.02132 7.25175 -0.997885H93.747C95.6701 -0.997885 97.5144 -0.233933 98.8743 1.12591C100.234 2.48576 100.998 4.3301 100.998 6.25321V92.7484C100.998 94.6715 100.234 96.5159 98.8743 97.8757C97.5144 99.2356 95.6701 99.9995 93.747 99.9995Z" fill="#AB61E7"/>
</g>
<g opacity="0.24">
<path d="M71.7348 51.8315V34.2217L75.8783 35.2576L81.8345 37.0703L85.719 26.9706L69.663 17.6478H66.0375C65.5124 19.6108 64.3209 21.3302 62.6673 22.5114C61.0138 23.6925 59.0009 24.2619 56.9736 24.122C54.9538 24.2245 52.9588 23.6405 51.3131 22.465C49.6673 21.2895 48.4679 19.5916 47.9098 17.6478H44.0252L27.9692 26.9706L31.5948 37.0703L37.0331 35.2576L40.3997 34.2217V64.7799L31.5948 67.3696L13.4671 36.5524L0.000732422 51.5725V99.9995H100.998V34.4807L71.7348 51.8315Z" fill="#AB61E7"/>
</g>
<g opacity="0.24">
<path d="M100.998 62.1902V99.9995H0.000732422V92.4895L22.7899 75.3976L40.3997 86.2742L65.0016 68.9234L76.1372 79.8001L100.998 62.1902Z" fill="#AB61E7"/>
</g>
<path d="M30.8181 70.2182L13.4672 40.437L0.000923185 54.6802L-3.10669 51.8315L14.2441 33.4448L32.8898 65.2979L38.5871 63.4851V37.3293L30.5591 39.919L25.3798 26.1937L43.5075 15.835H49.4638L49.9817 17.1299C50.374 18.6462 51.2926 19.9737 52.5735 20.875C53.8544 21.7764 55.4141 22.1929 56.9738 22.0502C58.5194 22.1192 60.0443 21.6737 61.3096 20.7833C62.5748 19.8929 63.5091 18.608 63.966 17.1299L64.4839 15.576H69.9222L88.0499 25.9348L82.8706 39.66L73.8067 36.8114V48.206L101.516 31.632L103.847 35.2576L69.6632 55.716V31.3731L76.3964 33.1859L80.2809 34.4807L82.6116 28.0065L68.6274 19.9785H67.3325C66.4129 21.9407 64.9461 23.5955 63.1085 24.7441C61.2708 25.8926 59.1406 26.4859 56.9738 26.4527C54.8002 26.5203 52.6554 25.9412 50.8113 24.7886C48.9672 23.636 47.5068 21.9619 46.6151 19.9785H45.0613L31.077 28.0065L33.4078 34.4807L43.2485 31.3731V66.3337L30.8181 70.2182Z" fill="#9B3BE6"/>
<path d="M-0.517012 95.597L-3.10669 92.2304L22.7901 72.8079L40.3999 83.6845L65.2608 66.0747L76.1374 76.9514L101.516 59.0826L103.847 62.7081L75.8785 82.6486L64.7429 71.513L40.6589 88.8639L22.7901 77.9872L-0.517012 95.597Z" fill="#9B3BE6"/>
</g>
</g>
<defs>
<clipPath id="clip0_1314_52016">
<rect width="100" height="100" rx="4" fill="white"/>
</clipPath>
<clipPath id="clip1_1314_52016">
<rect width="111.356" height="101.002" fill="white" transform="translate(-5.17798 -1)"/>
</clipPath>
</defs>
</svg>
