<svg width="100" height="100" viewBox="0 0 100 100" fill="none" xmlns="http://www.w3.org/2000/svg">
<rect width="100" height="100" rx="4" fill="#FFD430"/>
<path d="M61.6667 25H38.3333C36.4833 25 35 26.4833 35 28.3333V51.6667C35 53.5167 36.4833 55 38.3333 55H61.6667C63.5167 55 65 53.5167 65 51.6667V28.3333C65 26.4833 63.5167 25 61.6667 25ZM61.6667 51.6667H38.3333V28.3333H61.6667V51.6667ZM45 50H40V46.6667H45V50ZM51.6667 50H46.6667V46.6667H51.6667V50ZM45 45H40V41.6667H45V45ZM51.6667 45H46.6667V41.6667H51.6667V45ZM45 40H40V36.6667H45V40ZM51.6667 40H46.6667V36.6667H51.6667V40Z" fill="white"/>
<path d="M30.9957 77.715C30.9957 79.83 32.4507 81.225 34.5507 81.225C36.6657 81.225 38.1507 79.605 38.1507 77.67V70.365H35.7807V77.61C35.7807 78.405 35.3157 78.975 34.5357 78.975C33.8457 78.975 33.2457 78.54 33.2457 77.595V76.62L30.9957 77.01V77.715ZM46.7961 72.975C46.5711 71.73 45.5661 70.14 42.9111 70.14C40.8711 70.14 39.1011 71.55 39.1011 73.56C39.1011 75.135 40.1961 76.335 41.9961 76.68L43.4511 76.95C44.1561 77.085 44.5911 77.475 44.5911 78.015C44.5911 78.675 44.0211 79.125 43.0911 79.125C41.6361 79.125 40.9761 78.27 40.8861 77.295L38.7111 77.82C38.8611 79.32 40.1211 81.225 43.0611 81.225C45.5961 81.225 46.9911 79.53 46.9911 77.865C46.9911 76.35 45.9411 75.045 43.9161 74.67L42.4911 74.4C41.7561 74.265 41.4411 73.89 41.4411 73.38C41.4411 72.795 42.0111 72.24 42.8961 72.24C44.1861 72.24 44.5911 73.08 44.6661 73.575L46.7961 72.975ZM49.5471 75.675C49.5471 73.455 51.1371 72.45 52.6221 72.45C54.0921 72.45 55.6821 73.455 55.6821 75.675C55.6821 77.895 54.0921 78.885 52.6221 78.885C51.1371 78.885 49.5471 77.895 49.5471 75.675ZM47.0871 75.69C47.0871 79.05 49.6221 81.225 52.6221 81.225C55.6071 81.225 58.1421 79.05 58.1421 75.69C58.1421 72.315 55.6071 70.14 52.6221 70.14C49.6221 70.14 47.0871 72.315 47.0871 75.69ZM68.171 81V70.365H65.801V76.83L61.811 70.365H58.931V81H61.286V74.01L65.666 81H68.171Z" fill="white"/>
</svg>
