<svg width="120" height="120" viewBox="0 0 120 120" fill="none" xmlns="http://www.w3.org/2000/svg">
<rect width="120" height="120" rx="4.8" fill="#F60C3D"/>
<g clip-path="url(#clip0_8370_114875)">
<path d="M40.8269 53.4078H48.333V40.9512H19.0251C17.2132 40.9512 15.7598 42.3186 15.7598 44.0232V76.0357C15.7598 77.7402 17.2132 79.1077 19.0251 79.1077H38.1987V47.7882H40.8269V53.4078ZM33.1614 61.6872L28.5223 56.1426L27.1883 57.6224V61.6872H24.5601V47.8257H27.2281V54.438L32.9623 47.8257H36.0683L30.0952 54.4005L36.4665 61.6872C36.4665 61.6872 33.1614 61.6872 33.1614 61.6872Z" fill="white"/>
<path d="M75.1513 59.6077C72.2842 59.6077 69.9746 57.4348 69.9746 54.7374C69.9746 52.0401 72.2842 49.8672 75.1513 49.8672C78.0184 49.8672 80.328 52.0401 80.328 54.7374C80.3081 57.4348 78.0184 59.6077 75.1513 59.6077Z" fill="white"/>
<path d="M60.0016 50.2988L57.4531 56.9111H62.59L60.0016 50.2988Z" fill="white"/>
<path d="M80.0309 68.6742C80.0309 68.0374 79.4734 67.4941 78.7766 67.4941C78.7367 67.4941 78.6969 67.4941 78.6571 67.4941H76.7656V69.8543H78.6571C79.3341 69.8918 79.9513 69.4422 79.9911 68.7866C80.0309 68.7679 80.0309 68.7304 80.0309 68.6742Z" fill="white"/>
<path d="M85.9621 67.3633C84.3494 67.3633 83.334 68.5059 83.334 70.0607C83.334 71.6154 84.3494 72.758 85.9621 72.758C87.5749 72.758 88.5903 71.6154 88.5903 70.0607C88.5903 68.4872 87.5351 67.3633 85.9621 67.3633Z" fill="white"/>
<path d="M56.4172 72.7385C57.8687 72.7385 59.0454 71.5308 59.0454 70.0411C59.0454 68.5514 57.8687 67.3438 56.4172 67.3438C54.9657 67.3438 53.7891 68.5514 53.7891 70.0411C53.7891 71.5308 54.9657 72.7385 56.4172 72.7385Z" fill="white"/>
<path d="M101.095 40.9512H51.1994V61.6872H48.3324V55.693H40.8262V79.1264H101.055C102.867 79.1264 104.32 77.759 104.32 76.0544V44.0419C104.34 42.3186 102.887 40.9512 101.095 40.9512ZM58.2676 47.7882H61.8116L67.5458 61.6497H64.4796L63.4244 58.9523H56.6748L55.6195 61.6497H52.5533L58.2676 47.7882ZM49.0292 72.7389C49.8455 72.7389 50.6021 72.3268 51.0003 71.6712L52.1751 72.2331C51.5379 73.3008 50.3234 73.9377 48.9894 73.9002C46.7196 73.9752 44.8281 72.308 44.7485 70.1726C44.6689 68.0372 46.4409 66.2577 48.7107 66.1828C48.7903 66.1828 48.8699 66.1828 48.9496 66.1828C50.2437 66.1453 51.4583 66.7822 52.1352 67.8499L50.9605 68.4119C50.5623 67.775 49.7858 67.3442 48.9894 67.3442C47.4165 67.4191 46.202 68.6741 46.2816 70.1914C46.4011 71.5775 47.5758 72.664 49.0292 72.7389ZM56.4159 73.919C54.2457 73.9939 52.4538 72.3642 52.3742 70.3412C52.3742 70.2663 52.3742 70.1539 52.3742 70.079C52.3742 67.981 54.186 66.2764 56.4159 66.2764C58.6459 66.2764 60.4577 67.981 60.4577 70.079C60.5374 72.1207 58.8848 73.844 56.6947 73.919C56.615 73.919 56.5354 73.919 56.4159 73.919ZM68.0834 73.7691H66.7494L62.628 68.4493V73.7691H61.2541V66.3326H62.6678L66.7096 71.5026V66.3326H68.0834V73.7691V73.7691ZM74.8131 67.4753H72.4238V73.7691H71.05V67.4565H68.621V66.3139H74.7932V67.4753H74.8131ZM67.506 54.7377C67.506 50.7853 70.9306 47.5635 75.1316 47.5635C79.3327 47.5635 82.7573 50.7853 82.7573 54.7377C82.7573 58.6901 79.3327 61.912 75.1316 61.912C70.9107 61.9307 67.506 58.7276 67.506 54.7377ZM79.9499 73.7691L78.1779 70.9968H76.8041V73.7691H75.4303V66.3326H78.8947C80.4676 66.3326 81.483 67.288 81.483 68.6554C81.5627 69.7231 80.7663 70.6597 79.6314 70.8657L81.5627 73.7879H79.9499V73.7691ZM85.9629 73.919C83.7926 73.9939 81.9609 72.3642 81.9211 70.3412C81.9211 70.2663 81.9211 70.1539 81.9211 70.079C81.9211 67.981 83.7329 66.2764 85.9629 66.2764C88.1928 66.2764 90.0046 67.981 90.0046 70.079C90.0843 72.1207 88.4317 73.844 86.2416 73.919C86.162 73.919 86.0425 73.919 85.9629 73.919ZM95.6592 73.7691H90.7811V66.3326H92.155V72.6452H95.6194L95.6592 73.7691ZM89.8055 61.837C87.3765 61.837 85.2063 61.1065 83.713 59.7391L85.1266 57.6411C86.4208 58.8212 88.153 59.4956 89.9648 59.533C91.8165 59.533 92.7523 58.765 92.7523 57.7535C92.7523 56.6483 91.259 56.3486 89.5268 55.974C87.0579 55.487 84.151 54.8688 84.151 51.8718C84.151 49.6614 86.162 47.807 89.7657 47.807C91.7767 47.7695 93.7677 48.4439 95.3008 49.6989L94.0066 51.7406C92.9116 50.6729 91.3785 50.111 89.8055 50.1484C88.1928 50.1484 87.1376 50.8228 87.1376 51.7781C87.1376 52.7334 88.5512 53.0331 90.2436 53.3703C92.7125 53.8199 95.699 54.5129 95.699 57.6599C95.699 60.0575 93.6283 61.837 89.8055 61.837Z" fill="white"/>
</g>
<defs>
<clipPath id="clip0_8370_114875">
<rect width="88.8" height="38.4" fill="white" transform="translate(15.5996 40.8008)"/>
</clipPath>
</defs>
</svg>
