<svg width="100" height="100" viewBox="0 0 100 100" fill="none" xmlns="http://www.w3.org/2000/svg">
<rect width="100" height="100" rx="4" fill="#ED5153"/>
<path d="M49.9377 16.5566L53.0458 21.9348C53.6674 23.0475 53.6674 24.4075 53.0458 25.5203L34.5214 57.4803L43.2863 72.5639C44.6539 74.913 47.2025 76.3966 49.9377 76.3966C52.6728 76.3966 55.2214 74.913 56.589 72.5639L65.3539 57.4803L63.0539 53.4003L53.1079 70.5239C52.4863 71.6366 51.2431 72.3166 49.9998 72.3166C48.6944 72.3166 47.5133 71.6366 46.8917 70.5239L39.2458 57.4803L56.4647 27.8075L59.5728 33.1857C60.1944 34.2985 60.1944 35.6585 59.5728 36.7712L47.5755 57.4803L49.9377 61.5603L62.9917 39.0585L71.5701 53.833C72.8755 56.1203 72.8755 58.9021 71.5701 61.1894L62.8674 76.2112C61.562 78.4985 57.3971 83.6294 49.9377 83.6294C42.4782 83.6294 38.3755 78.4985 37.0079 76.2112L28.3052 61.1894C26.9998 58.9021 26.9998 56.1203 28.3052 53.833L49.9377 16.5566Z" fill="white"/>
</svg>
