<svg width="100" height="100" viewBox="0 0 100 100" fill="none" xmlns="http://www.w3.org/2000/svg">
<rect x="0.5" y="0.5" width="99" height="99" rx="3.5" fill="#FD0000" stroke="#FD0000"/>
<mask id="mask0_1414_52027" style="mask-type:alpha" maskUnits="userSpaceOnUse" x="0" y="0" width="100" height="100">
<rect x="0.5" y="0.5" width="99" height="99" rx="3.5" fill="#FD0000" stroke="#FD0000"/>
</mask>
<g mask="url(#mask0_1414_52027)">
</g>
<g clip-path="url(#clip0_1414_52027)">
<path d="M49.9379 16.5564L53.046 21.9346C53.6676 23.0473 53.6676 24.4073 53.046 25.52L34.5217 57.48L43.2866 72.5637C44.6541 74.9128 47.2028 76.3964 49.9379 76.3964C52.673 76.3964 55.2217 74.9128 56.5893 72.5637L65.3541 57.48L63.0541 53.4L53.1082 70.5237C52.4865 71.6364 51.2433 72.3164 50.0001 72.3164C48.6947 72.3164 47.5136 71.6364 46.892 70.5237L39.246 57.48L56.4649 27.8073L59.573 33.1855C60.1947 34.2982 60.1947 35.6582 59.573 36.7709L47.5757 57.48L49.9379 61.56L62.992 39.0582L71.5703 53.8328C72.8757 56.12 72.8757 58.9018 71.5703 61.1891L62.8676 76.2109C61.5622 78.4982 57.3974 83.6291 49.9379 83.6291C42.4784 83.6291 38.3757 78.4982 37.0082 76.2109L28.3055 61.1891C27.0001 58.9018 27.0001 56.12 28.3055 53.8328L49.9379 16.5564Z" fill="white"/>
</g>
<defs>
<clipPath id="clip0_1414_52027">
<rect width="46" height="68" fill="white" transform="translate(27 16)"/>
</clipPath>
</defs>
</svg>
