<svg width="120" height="120" viewBox="0 0 120 120" fill="none" xmlns="http://www.w3.org/2000/svg">
<rect width="120" height="120" fill="#1F262F"/>
<path d="M36.9472 64.2917H31.0694L30.9417 64.1639V54.9L31.0694 54.7722H32.1555L32.2833 54.9V62.95L32.4111 63.0778H36.8833L37.0111 63.2056V64.1639L36.9472 64.2917Z" fill="white"/>
<path d="M40.8445 64.2917H39.7584L39.6306 64.1639V54.9L39.7584 54.7722H40.8445L40.9723 54.9V64.1639L40.8445 64.2917Z" fill="white"/>
<path d="M52.0891 64.2917H50.8752L50.6196 64.1639L46.0196 57.0722H45.8918V64.1639L45.7641 64.2917H44.678L44.5502 64.1639V54.9L44.678 54.7722H45.8918L46.1474 54.9L50.7474 61.9917H50.8752V54.9L51.0029 54.7722H52.0891L52.2168 54.9V64.1639L52.0891 64.2917Z" fill="white"/>
<path d="M63.3334 64.2917H62.1195L61.8639 64.1639L57.2639 57.0722H57.1361V64.1639L56.9445 64.2917H55.8584L55.7306 64.1639V54.9L55.8584 54.7722H57.0723L57.3278 54.9L61.9278 61.9917H62.0556V54.9L62.1834 54.7722H63.3334L63.4611 54.9V64.1639L63.3334 64.2917Z" fill="white"/>
<path d="M75.5362 64.1L75.4084 64.2278H74.1945L74.0667 64.1L72.0223 56.9445H71.8945L69.85 64.1639L69.7223 64.2917H68.5084L68.3806 64.1639L66.2084 55.8583V54.9L66.3361 54.7722H67.1667L67.2945 54.9L69.0834 61.8639H69.2111L71.2556 54.9L71.3834 54.7722H72.5973L72.725 54.9L74.7695 61.8639H74.8973L76.6862 54.9L76.8139 54.7722H77.6445L77.7723 54.9V55.8583L75.5362 64.1Z" fill="white"/>
<path d="M84.0334 54.5806C86.9084 54.5806 88.5056 56.625 88.5056 59.5C88.5056 62.375 86.9084 64.4194 84.0334 64.4194C81.1584 64.4194 79.5612 62.375 79.5612 59.5C79.5612 56.625 81.2223 54.5806 84.0334 54.5806ZM84.0334 63.1417C86.0778 63.1417 87.1639 61.6722 87.1639 59.4361C87.1639 57.2 86.0778 55.7306 84.0334 55.7306C81.9889 55.7306 80.9028 57.2 80.9028 59.4361C80.9028 61.6722 81.9889 63.1417 84.0334 63.1417Z" fill="white"/>
<path d="M96.5556 60.075V60.2028L98.4723 63.2056V64.1639L98.3445 64.2917H97.8334L97.5778 64.1639L95.15 60.3306L94.8945 60.2028H92.7223L92.5945 60.3306V64.1639L92.4667 64.2917H91.3806L91.2528 64.1639V54.9L91.3806 54.7722H95.5973C97.5139 54.7722 98.7278 55.6028 98.7278 57.5195C98.6 58.9889 97.7695 59.7556 96.5556 60.075ZM95.4695 55.9861H92.5945L92.4667 56.1139V58.8611L92.5945 58.9889H95.4695C96.6834 58.9889 97.2584 58.6056 97.2584 57.5195C97.2584 56.3695 96.6834 55.9861 95.4695 55.9861Z" fill="white"/>
<path d="M108.567 64.2917H108.056L107.8 64.1639L104.542 59.9472H104.414L103.2 61.1611L102.944 61.4167V64.1639L102.817 64.2917H101.731L101.603 64.1639V54.9L101.731 54.7722H102.817L102.944 54.9V59.3722H103.072L107.544 54.9L107.8 54.7722H108.183L108.311 54.9V55.8583L105.308 58.8611V58.9889L108.567 63.2056V64.1639V64.2917Z" fill="white"/>
<path d="M114.509 64.4195C112.209 64.4195 110.675 63.3333 110.675 61.2889L110.803 61.1611H111.889L112.017 61.2889C112.017 62.6306 112.975 63.2056 114.572 63.2056C115.786 63.2056 116.745 62.8222 116.745 61.7361C116.745 60.5222 115.914 60.2667 113.997 59.9472C112.081 59.6917 110.867 58.8611 110.867 57.2C110.867 55.9861 111.825 54.6445 114.253 54.6445C116.297 54.6445 117.767 55.475 117.767 57.5195L117.639 57.6472H116.553L116.425 57.5195C116.425 56.4333 115.914 55.9222 114.125 55.9222C112.911 55.9222 112.209 56.4333 112.209 57.2639C112.209 58.35 112.911 58.6056 114.764 58.8611C116.681 59.1167 118.022 59.8195 118.022 61.7361C118.214 63.1417 117.128 64.4195 114.509 64.4195Z" fill="white"/>
<path d="M16.0557 62.4389H17.4612L17.589 62.3111V60.5222L17.7807 60.3305H19.5696L19.6974 60.2028V58.7972L19.5696 58.6694H17.7807L17.589 58.4778V56.6889L17.4612 56.5611H16.0557L15.9279 56.6889V58.4778L15.7362 58.6694H13.9474L13.8196 58.7972V60.2028L13.9474 60.3305H15.7362L15.9279 60.5222V62.3111L16.0557 62.4389Z" fill="white"/>
<path d="M4.93896 58.7972V60.2028L5.13063 60.3305H10.689L10.8806 60.2028V58.7972L10.689 58.6694H5.13063L4.93896 58.7972Z" fill="white"/>
<path d="M21.2944 63.6528C21.1667 63.7167 21.1028 63.7167 20.975 63.7806C20.7833 64.1639 20.5917 64.5472 20.3361 64.8667C20.0167 65.3778 19.5694 65.825 19.1861 66.2722C18.7389 66.7195 18.2917 67.1028 17.7806 67.4222C17.2694 67.7417 16.6944 68.0611 16.1194 68.3167C14.9056 68.8278 13.6917 69.0833 12.35 69.0833C11.0083 69.0833 9.79444 68.8278 8.58056 68.3167C8.00556 68.0611 7.43055 67.8056 6.91944 67.4222C6.40833 67.1028 5.96111 66.6556 5.51389 66.2722C5.06667 65.825 4.68333 65.3778 4.36389 64.8667C4.10833 64.5472 3.91667 64.1639 3.725 63.7806C3.59722 63.7167 3.53333 63.7167 3.40556 63.6528L2.12778 64.2278C2.06389 64.3556 2.06389 64.4833 2 64.6111C3.85278 68.3806 7.81389 71 12.2861 71C16.7583 71 20.7194 68.3806 22.5722 64.6111C22.5083 64.4833 22.5083 64.4195 22.4444 64.2917L21.2944 63.6528Z" fill="white"/>
<path d="M3.40556 55.3472C3.53333 55.2833 3.59722 55.2833 3.725 55.2194C3.91667 54.8361 4.10833 54.4528 4.36389 54.1333C4.68333 53.6222 5.13056 53.1111 5.51389 52.6639C5.96111 52.2806 6.47222 51.8333 6.98333 51.5139C7.49444 51.1944 8.06944 50.875 8.64444 50.6194C9.85833 50.1083 11.0722 49.8528 12.4139 49.8528C13.7556 49.8528 14.9694 50.1083 16.1833 50.6194C16.7583 50.875 17.3333 51.1306 17.8444 51.5139C18.3556 51.8333 18.8028 52.2806 19.25 52.6639C19.6972 53.1111 20.0806 53.5583 20.4 54.0694C20.6556 54.3889 20.8472 54.7722 21.0389 55.1556C21.1667 55.2194 21.2306 55.2194 21.3583 55.2833L22.6361 54.7083C22.7 54.5806 22.7 54.5167 22.7639 54.3889C20.7833 50.6194 16.8861 48 12.35 48C7.81389 48 3.91667 50.6194 2 54.3889C2.06389 54.5167 2.06389 54.5806 2.12778 54.7083L3.40556 55.3472Z" fill="white"/>
</svg>
