<svg width="100" height="100" viewBox="0 0 100 100" fill="none" xmlns="http://www.w3.org/2000/svg">
<rect x="0.5" y="0.5" width="99" height="99" rx="3.5" fill="white" stroke="#EEEEEE"/>
<mask id="mask0_1157_249" style="mask-type:alpha" maskUnits="userSpaceOnUse" x="17" y="16" width="67" height="67">
<path fill-rule="evenodd" clip-rule="evenodd" d="M17 49.5C17 52.468 19.0585 54.9551 21.8256 55.6117C24.2189 66.8957 33.1044 75.7811 44.3883 78.1744C45.0449 80.9416 47.532 83 50.5 83C53.468 83 55.9551 80.9416 56.6117 78.1744C67.8956 75.7811 76.7811 66.8957 79.1744 55.6118C81.9415 54.9552 83.9999 52.468 83.9999 49.5001C83.9999 46.5322 81.9416 44.045 79.1745 43.3883C76.7812 32.1044 67.8957 23.2189 56.6117 20.8256C55.9551 18.0585 53.468 16 50.5 16C47.532 16 45.0449 18.0585 44.3883 20.8256C33.1043 23.2189 24.2189 32.1044 21.8256 43.3883C19.0585 44.0449 17 46.532 17 49.5Z" fill="#8DF7DB"/>
</mask>
<g mask="url(#mask0_1157_249)">
<path d="M50.5 83C69.0015 83 84 68.0015 84 49.5C84 30.9985 69.0015 16 50.5 16C31.9985 16 17 30.9985 17 49.5C17 68.0015 31.9985 83 50.5 83Z" fill="url(#paint0_linear_1157_249)"/>
<path fill-rule="evenodd" clip-rule="evenodd" d="M53.2917 27.9096C55.3599 26.8818 56.7812 24.7475 56.7812 22.2812C56.7812 18.8122 53.9691 16 50.5 16C47.0309 16 44.2188 18.8122 44.2188 22.2812C44.2188 24.7475 45.6401 26.8818 47.7083 27.9096V32.0521H53.2917V27.9096Z" fill="#9DF3F9"/>
<path fill-rule="evenodd" clip-rule="evenodd" d="M47.7083 71.0898C45.6401 72.1176 44.2188 74.2519 44.2188 76.7181C44.2188 80.1872 47.0309 82.9993 50.5 82.9993C53.9691 82.9993 56.7812 80.1872 56.7812 76.7181C56.7812 74.2519 55.3599 72.1176 53.2917 71.0898V66.9473H47.7083V71.0898Z" fill="#82EBF1"/>
<path fill-rule="evenodd" clip-rule="evenodd" d="M28.9096 46.7083C27.8818 44.6401 25.7475 43.2188 23.2812 43.2188C19.8122 43.2188 17 46.0309 17 49.5C17 52.9691 19.8122 55.7812 23.2812 55.7812C25.7475 55.7812 27.8818 54.3599 28.9096 52.2917H33.0521V46.7083H28.9096Z" fill="#9DF3F9"/>
<g filter="url(#filter0_f_1157_249)">
<path d="M50.5013 69.0417C60.523 69.0417 68.6471 60.9175 68.6471 50.8958C68.6471 40.8742 60.523 32.75 50.5013 32.75C40.4796 32.75 32.3555 40.8742 32.3555 50.8958C32.3555 60.9175 40.4796 69.0417 50.5013 69.0417Z" fill="black" fill-opacity="0.32"/>
<path fill-rule="evenodd" clip-rule="evenodd" d="M58.4004 53.6882C57.2507 56.941 54.1485 59.2715 50.502 59.2715C45.8766 59.2715 42.127 55.5219 42.127 50.8965C42.127 46.2711 45.8766 42.5215 50.502 42.5215C54.1485 42.5215 57.2507 44.852 58.4004 48.1048H72.8353V53.6882H58.4004Z" fill="black" fill-opacity="0.32"/>
<path d="M77.7207 57.1777C74.2516 57.1777 71.4395 54.3656 71.4395 50.8965C71.4395 47.4275 74.2516 44.6152 77.7207 44.6152C81.1898 44.6152 84.002 47.4275 84.002 50.8965C84.002 54.3656 81.1898 57.1777 77.7207 57.1777Z" fill="black" fill-opacity="0.32"/>
</g>
<g filter="url(#filter1_f_1157_249)">
<path d="M50.5013 67.9108C60.523 67.9108 68.6471 59.7866 68.6471 49.765C68.6471 39.7433 60.523 31.6191 50.5013 31.6191C40.4796 31.6191 32.3555 39.7433 32.3555 49.765C32.3555 59.7866 40.4796 67.9108 50.5013 67.9108Z" fill="black" fill-opacity="0.24"/>
<path fill-rule="evenodd" clip-rule="evenodd" d="M58.4004 52.5573C57.2507 55.8101 54.1485 58.1406 50.502 58.1406C45.8766 58.1406 42.127 54.391 42.127 49.7656C42.127 45.1403 45.8766 41.3906 50.502 41.3906C54.1485 41.3906 57.2507 43.7212 58.4004 46.974H72.8353V52.5573H58.4004Z" fill="black" fill-opacity="0.24"/>
<path d="M77.7207 56.0469C74.2516 56.0469 71.4395 53.2347 71.4395 49.7656C71.4395 46.2966 74.2516 43.4844 77.7207 43.4844C81.1898 43.4844 84.002 46.2966 84.002 49.7656C84.002 53.2347 81.1898 56.0469 77.7207 56.0469Z" fill="black" fill-opacity="0.24"/>
</g>
<path d="M50.4993 67.6452C60.521 67.6452 68.6452 59.521 68.6452 49.4993C68.6452 39.4777 60.521 31.3535 50.4993 31.3535C40.4777 31.3535 32.3535 39.4777 32.3535 49.4993C32.3535 59.521 40.4777 67.6452 50.4993 67.6452Z" fill="url(#paint1_linear_1157_249)"/>
<path fill-rule="evenodd" clip-rule="evenodd" d="M58.3985 52.2917C57.2487 55.5445 54.1465 57.875 50.5 57.875C45.8746 57.875 42.125 54.1254 42.125 49.5C42.125 44.8746 45.8746 41.125 50.5 41.125C54.1465 41.125 57.2487 43.4556 58.3985 46.7083H72.8333V52.2917H58.3985Z" fill="url(#paint2_linear_1157_249)"/>
<path d="M77.7188 55.7812C74.2497 55.7812 71.4375 52.9691 71.4375 49.5C71.4375 46.031 74.2497 43.2188 77.7188 43.2188C81.1878 43.2188 84 46.031 84 49.5C84 52.9691 81.1878 55.7812 77.7188 55.7812Z" fill="url(#paint3_linear_1157_249)"/>
</g>
<defs>
<filter id="filter0_f_1157_249" x="24.3555" y="24.75" width="67.6465" height="52.291" filterUnits="userSpaceOnUse" color-interpolation-filters="sRGB">
<feFlood flood-opacity="0" result="BackgroundImageFix"/>
<feBlend mode="normal" in="SourceGraphic" in2="BackgroundImageFix" result="shape"/>
<feGaussianBlur stdDeviation="4" result="effect1_foregroundBlur_1157_249"/>
</filter>
<filter id="filter1_f_1157_249" x="31.5955" y="30.8591" width="53.1665" height="37.811" filterUnits="userSpaceOnUse" color-interpolation-filters="sRGB">
<feFlood flood-opacity="0" result="BackgroundImageFix"/>
<feBlend mode="normal" in="SourceGraphic" in2="BackgroundImageFix" result="shape"/>
<feGaussianBlur stdDeviation="0.38" result="effect1_foregroundBlur_1157_249"/>
</filter>
<linearGradient id="paint0_linear_1157_249" x1="32.8446" y1="23.9223" x2="67.7027" y2="75.0777" gradientUnits="userSpaceOnUse">
<stop stop-color="#009CA8"/>
<stop offset="1" stop-color="#007D85"/>
</linearGradient>
<linearGradient id="paint1_linear_1157_249" x1="39.1818" y1="34.3338" x2="63.1751" y2="74.1717" gradientUnits="userSpaceOnUse">
<stop stop-color="#36E3EE"/>
<stop offset="1" stop-color="#00B1BE"/>
</linearGradient>
<linearGradient id="paint2_linear_1157_249" x1="38.7298" y1="32.7499" x2="69.5135" y2="60.3648" gradientUnits="userSpaceOnUse">
<stop stop-color="#D2F6F9"/>
<stop offset="1" stop-color="#82EBF1"/>
</linearGradient>
<linearGradient id="paint3_linear_1157_249" x1="84.6791" y1="51.5371" x2="67.4764" y2="45.4256" gradientUnits="userSpaceOnUse">
<stop stop-color="#9AEEF3"/>
<stop offset="1" stop-color="#82EBF1"/>
</linearGradient>
</defs>
</svg>
