<svg width="120" height="120" viewBox="0 0 120 120" fill="none"
  xmlns="http://www.w3.org/2000/svg">
  <rect width="120" height="120" fill="#323433"/>
  <path d="M15.8426 74.5796V64.7006H17.8519L22.2292 71.1465V64.7006H24.3819V74.5796H22.3727L17.9954 68.1338V74.5796H15.8426Z" fill="white"/>
  <path d="M26.3912 74.5796V64.7006H32.9931V66.5223H28.6157V68.6943H32.6343V70.5159H28.6157V72.828H33.1366V74.5096L26.3912 74.5796Z" fill="white"/>
  <path d="M37.2986 74.5796V66.4522H34.2847V64.7006H42.3935V66.5223H39.3796V74.5796H37.2986Z" fill="white"/>
  <path d="M43.757 74.0892V72.9681C44.6898 73.3885 45.6944 73.5987 46.6991 73.5987C47.3449 73.6688 47.9907 73.4586 48.4931 73.1783C48.9236 72.8981 49.1389 72.4076 49.1389 71.9172C49.1389 71.5669 48.9954 71.2166 48.7083 70.9363C48.2778 70.586 47.7755 70.3057 47.2731 70.1656L46.1968 69.7452C45.4792 69.535 44.8333 69.1146 44.2593 68.6242C43.9005 68.2038 43.6852 67.7134 43.6852 67.1529C43.6852 66.3822 44.044 65.6815 44.6181 65.1911C45.4074 64.7006 46.2685 64.4204 47.2014 64.4904C47.7037 64.4904 48.1343 64.5605 48.6366 64.6306C49.0671 64.7006 49.4977 64.8408 49.8565 65.0509V66.172C49.0671 65.8216 48.1343 65.6115 47.2731 65.5414C45.7662 65.5414 44.9769 66.0318 44.9769 67.0127C44.9769 67.363 45.1204 67.6433 45.4074 67.8535C45.838 68.2038 46.3403 68.414 46.8426 68.6242L47.919 69.0446C48.6366 69.2548 49.3542 69.6751 49.9282 70.2357C50.287 70.656 50.5023 71.2166 50.5023 71.8471C50.5741 72.6178 50.2153 73.3885 49.5694 73.879C48.7801 74.4395 47.8472 74.6497 46.9144 74.6497C46.5556 74.6497 46.1968 74.6497 45.838 74.5796C45.4792 74.5095 45.1204 74.4395 44.7616 74.3694C44.2593 74.3694 43.9722 74.2293 43.757 74.0892Z" fill="white"/>
  <path d="M52.081 70.0955V64.7006H53.3727V70.0955C53.3727 71.2866 53.588 72.1975 54.0185 72.758C55.0231 73.8089 56.7454 73.949 57.8218 72.9682C57.8935 72.8981 57.9653 72.828 58.037 72.758C58.4676 72.1975 58.6829 71.2866 58.6829 70.0955V64.7006H59.9745V70.1656C59.9745 71.7771 59.6157 72.8981 58.9699 73.6688C58.3241 74.4395 57.3194 74.7898 56.0278 74.7898C54.7361 74.7898 53.7315 74.4395 53.0857 73.6688C52.4398 72.8981 52.081 71.707 52.081 70.0955Z" fill="white"/>
  <path d="M62.1273 74.5796V64.7006H63.419V74.5796H62.1273Z" fill="white"/>
  <path d="M68.3704 74.5796V65.7516H65.213V64.7006H72.8912V65.7516H69.662V74.5096H68.3704V74.5796V74.5796Z" fill="white"/>
  <path d="M74.6134 74.5796V64.7006H80.8565V65.7516H75.9051V68.9745H80.4259V70.0255H75.9051V73.3885H81V74.4395H74.6134V74.5796V74.5796Z" fill="white"/>
  <path d="M53.2255 53.8161H59.2238L56.0668 48.5863L50.2264 58H47.5429L54.6461 46.7357C55.1986 45.9311 56.2246 45.7702 57.0139 46.3334C57.1717 46.4139 57.3296 46.4944 57.4085 46.6553L64.5117 58H61.8283L60.5655 55.9081H54.4883L53.2255 53.8161ZM80.7702 55.9081V46.0921H78.4813V56.8736C78.4813 57.1954 78.6392 57.4368 78.797 57.6782C79.0338 57.9195 79.2706 58 79.5863 58H89.8465L91.1882 55.9081H80.7702ZM43.5967 54.138C45.8066 54.138 47.5429 52.3679 47.5429 50.115C47.5429 47.8622 45.8066 46.0921 43.5967 46.0921H33.7311V58H36.0199V48.184H43.4389C44.4649 48.2645 45.2541 49.1495 45.2541 50.1955C45.1752 51.161 44.4649 51.9656 43.4389 52.046H37.1249L43.8335 58H47.0694L42.5707 54.138H43.5967ZM19.9193 58H26.7069C29.9428 58 32.5473 55.3448 32.5473 52.046C32.5473 48.7472 29.9428 46.0921 26.7069 46.0921H19.9193C16.6834 46.0921 14 48.7472 14 52.046C14 55.3448 16.6834 58 19.9193 58ZM26.549 55.9081H19.9983C17.9462 55.8276 16.2888 54.0575 16.3677 51.8851C16.4467 49.8736 18.0252 48.2645 19.9983 48.184H26.549C28.601 48.1035 30.4163 49.7932 30.4952 51.8851C30.5742 53.977 28.9167 55.8276 26.8647 55.9081C26.7069 55.9081 26.6279 55.9081 26.549 55.9081ZM69.2472 58H76.1925L77.5343 55.9081H69.405C67.353 55.9885 65.5377 54.2989 65.4588 52.2069C65.3799 50.115 67.0373 48.2645 69.0893 48.184C69.1683 48.184 69.2472 48.184 69.3261 48.184H75.9558L77.2975 46.0921H69.2472C66.0113 46.0921 63.4068 48.7472 63.4068 52.046C63.4068 55.3448 66.0113 58 69.2472 58ZM96.7918 55.9081C95.1344 55.9081 93.6349 54.7816 93.1613 53.092H102.79L104.132 51.0001H93.1613C93.6349 49.3104 95.1344 48.184 96.7918 48.184H103.422L104.763 46.0921H96.7129C93.477 46.0921 90.8725 48.7472 90.8725 52.046C90.8725 55.3448 93.477 58 96.7129 58H103.658L105 55.9081H96.7918Z" fill="white"/>
</svg>
