<svg width="100" height="100" viewBox="0 0 100 100" fill="none" xmlns="http://www.w3.org/2000/svg">
<rect width="100" height="100" rx="4" fill="#875A7B"/>
<g clip-path="url(#clip0_1544_52037)">
<path fill-rule="evenodd" clip-rule="evenodd" d="M75.0214 59.8624C76.598 59.8638 78.1396 59.4036 79.4512 58.5398C80.7629 57.6761 81.7858 56.4477 82.3905 55.0099C82.9951 53.5722 83.1544 51.9897 82.8483 50.4625C82.5421 48.9353 81.7843 47.5321 80.6705 46.4302C79.5567 45.3284 78.137 44.5774 76.591 44.2723C75.045 43.9672 73.4421 44.1216 71.985 44.716C70.5279 45.3105 69.282 46.3182 68.4049 47.6119C67.5278 48.9055 67.0588 50.427 67.0574 51.9838C67.0564 53.0175 67.2616 54.0412 67.6614 54.9966C68.0611 55.9519 68.6474 56.8202 69.3869 57.5518C70.1265 58.2834 71.0047 58.864 71.9714 59.2604C72.9382 59.6569 73.9746 59.8614 75.0214 59.8624ZM75.0214 56.6327C75.9511 56.6342 76.8603 56.3633 77.6342 55.8545C78.408 55.3456 79.0116 54.6216 79.3687 53.774C79.7259 52.9264 79.8204 51.9932 79.6405 51.0926C79.4605 50.1919 79.0141 49.3641 78.3578 48.7139C77.7014 48.0638 76.8645 47.6204 75.9529 47.4399C75.0414 47.2594 74.0961 47.3499 73.2366 47.6999C72.3771 48.0499 71.642 48.6437 71.1243 49.4062C70.6066 50.1687 70.3295 51.0657 70.328 51.9838C70.3271 52.5933 70.4477 53.1971 70.683 53.7606C70.9184 54.3242 71.2638 54.8364 71.6996 55.2681C72.1355 55.6998 72.6531 56.0425 73.2231 56.2766C73.793 56.5108 74.4041 56.6318 75.0214 56.6327Z" fill="white"/>
<path fill-rule="evenodd" clip-rule="evenodd" d="M58.1327 59.8624C59.7093 59.8638 61.2509 59.4036 62.5626 58.5398C63.8743 57.6761 64.8971 56.4477 65.5018 55.0099C66.1064 53.5722 66.2658 51.9897 65.9596 50.4625C65.6535 48.9353 64.8956 47.5321 63.7818 46.4302C62.668 45.3284 61.2484 44.5774 59.7024 44.2723C58.1564 43.9672 56.5534 44.1216 55.0963 44.716C53.6392 45.3105 52.3933 46.3182 51.5162 47.6119C50.6391 48.9055 50.1702 50.427 50.1687 51.9838C50.1668 54.0701 51.0037 56.0719 52.4957 57.5492C53.9876 59.0266 56.0125 59.8586 58.1254 59.8624H58.1327ZM58.1327 56.6327C59.0624 56.6342 59.9717 56.3633 60.7455 55.8545C61.5193 55.3456 62.1229 54.6216 62.4801 53.774C62.8372 52.9264 62.9318 51.9932 62.7518 51.0926C62.5718 50.1919 62.1255 49.3641 61.4691 48.7139C60.8127 48.0638 59.9758 47.6204 59.0643 47.4399C58.1527 47.2594 57.2074 47.3499 56.3479 47.6999C55.4885 48.0499 54.7534 48.6437 54.2357 49.4062C53.7179 50.1687 53.4408 51.0657 53.4394 51.9838C53.4384 52.5933 53.559 53.1971 53.7944 53.7606C54.0297 54.3242 54.3752 54.8364 54.811 55.2681C55.2468 55.6998 55.7645 56.0425 56.3344 56.2766C56.9043 56.5108 57.5154 56.6318 58.1327 56.6327Z" fill="white"/>
<path fill-rule="evenodd" clip-rule="evenodd" d="M49.45 51.9331V51.991C49.45 53.7635 48.8436 55.484 47.7291 56.8735C46.6147 58.263 45.0576 59.24 43.3103 59.646C41.5631 60.052 39.7282 59.8633 38.1032 59.1104C36.4781 58.3575 35.1584 57.0846 34.3578 55.4982C33.5573 53.9117 33.323 52.1048 33.6929 50.3703C34.0628 48.6359 35.0153 47.0757 36.3958 45.9428C37.7763 44.8099 39.5038 44.1708 41.2983 44.129C43.0928 44.0873 44.849 44.6453 46.282 45.7127V40.7017C46.282 40.2869 46.4489 39.889 46.7459 39.5957C47.043 39.3024 47.4459 39.1376 47.866 39.1376C48.2861 39.1376 48.689 39.3024 48.986 39.5957C49.2831 39.889 49.45 40.2869 49.45 40.7017V51.9331ZM41.4786 56.6327C42.4083 56.637 43.3184 56.369 44.0939 55.8625C44.8693 55.3561 45.4752 54.6339 45.835 53.7874C46.1948 52.9409 46.2923 52.008 46.1152 51.1068C45.9381 50.2056 45.4943 49.3765 44.84 48.7243C44.1857 48.0721 43.3502 47.6261 42.4392 47.4428C41.5283 47.2595 40.5827 47.3471 39.7221 47.6944C38.8615 48.0417 38.1246 48.6333 37.6044 49.3942C37.0843 50.1551 36.8043 51.0513 36.8 51.9693C36.7971 52.5789 36.9158 53.183 37.1494 53.7473C37.3829 54.3115 37.7267 54.8248 38.1612 55.2579C38.5957 55.6909 39.1122 56.0352 39.6814 56.2711C40.2507 56.507 40.8613 56.6299 41.4786 56.6327Z" fill="white"/>
<path fill-rule="evenodd" clip-rule="evenodd" d="M24.9713 59.8479C26.5479 59.8479 28.0891 59.3863 29.4 58.5214C30.7108 57.6564 31.7326 56.4271 32.3359 54.9888C32.9392 53.5505 33.0971 51.9678 32.7895 50.4409C32.4819 48.914 31.7227 47.5115 30.6079 46.4106C29.4931 45.3098 28.0728 44.5601 26.5265 44.2564C24.9802 43.9527 23.3774 44.1086 21.9208 44.7043C20.4643 45.3001 19.2193 46.309 18.3434 47.6034C17.4675 48.8979 17 50.4197 17 51.9765C17 54.0642 17.8398 56.0663 19.3347 57.5425C20.8297 59.0186 22.8572 59.8479 24.9713 59.8479ZM24.898 56.6472C25.8289 56.6472 26.7389 56.3742 27.5126 55.8629C28.2862 55.3516 28.8887 54.6249 29.2436 53.7751C29.5985 52.9252 29.6898 51.9904 29.5061 51.0893C29.3223 50.1881 28.8717 49.361 28.2114 48.7131C27.551 48.0651 26.7107 47.6253 25.7969 47.4495C24.8832 47.2737 23.9371 47.3697 23.0787 47.7255C22.2203 48.0813 21.4882 48.6807 20.9752 49.4478C20.4623 50.215 20.1915 51.1152 20.1973 52.0345C20.2051 53.2605 20.7037 54.4337 21.5845 55.298C22.4652 56.1622 23.6564 56.6473 24.898 56.6472Z" fill="white"/>
</g>
<defs>
<clipPath id="clip0_1544_52037">
<rect width="66" height="21" fill="white" transform="translate(17 39)"/>
</clipPath>
</defs>
</svg>
