<svg width="100" height="100" viewBox="0 0 100 100" fill="none" xmlns="http://www.w3.org/2000/svg">
<rect width="100" height="100" rx="4" fill="white"/>
<path d="M14.8555 60.2615L15.6297 57.4435C16.5507 57.7027 17.5087 57.8355 18.4858 57.8355C20.2043 57.8355 21.8637 57.4223 23.3657 56.6406L24.6871 59.2419C22.7797 60.2345 20.6677 60.7604 18.4858 60.7604C17.2465 60.7604 16.0282 60.5916 14.8555 60.2615Z" fill="#FF7070"/>
<path d="M12.0645 59.1263L13.4325 56.5498C14.1304 56.9294 14.8658 57.229 15.6288 57.4428L14.8575 60.2617C13.8864 59.9895 12.9509 59.6084 12.0645 59.1263Z" fill="#1E1F4D"/>
<path d="M81.5683 44.0059C83.0341 44.0059 84.1184 44.5714 84.6605 45.2985V44.2078H87.4115V54.6497H84.6605V53.5793C84.1184 54.2862 83.0341 54.8719 81.5683 54.8719C78.6366 54.8719 76.5684 52.7108 76.5684 49.4389C76.5684 46.1468 78.6366 44.0059 81.5683 44.0059ZM82.0502 46.5305C80.5843 46.5305 79.5402 47.5807 79.5402 49.4389C79.5402 51.297 80.5843 52.3271 82.0502 52.3271C83.4959 52.3271 84.4999 51.3576 84.4999 49.661V49.1965C84.4999 47.5202 83.4959 46.5305 82.0502 46.5305Z" fill="#1E1F4D"/>
<path d="M72.7372 39C73.7211 39 74.5042 39.7877 74.5042 40.7773C74.5042 41.7468 73.7211 42.5345 72.7372 42.5345C71.7533 42.5345 70.9902 41.7468 70.9902 40.7773C70.9902 39.7877 71.7934 39 72.7372 39ZM74.203 54.7577H71.2714V44.3158H74.203V54.7577Z" fill="#1E1F4D"/>
<path d="M69.4209 44.2568V47.1046C67.7342 47.1046 66.6699 48.0741 66.6699 49.5081V54.7997H63.7383V44.3578H66.5695V45.5494C67.0113 44.8627 67.8346 44.2568 69.4209 44.2568Z" fill="#1E1F4D"/>
<path d="M59.075 46.7505L59.0549 50.6283C59.0549 51.7796 59.7979 52.2037 60.6212 52.2037C61.0428 52.2037 61.3039 52.1431 61.5248 52.1027V54.7283C61.1031 54.7889 60.7015 54.8495 59.8983 54.8495C57.6493 54.8495 56.1032 53.7589 56.1233 51.3352L56.1434 46.7505H54.2559V44.2057H56.1634L56.1835 40.752H59.1152L59.0951 44.2057H61.5248V46.7505H59.075Z" fill="#1E1F4D"/>
<path d="M53.3423 50.3679H46.2139C46.2742 51.6606 47.0573 52.4886 48.3826 52.4886C49.4066 52.4886 50.0693 52.0645 50.2902 51.3374L53.2419 51.4788C52.8805 53.4581 50.8925 54.8719 48.4629 54.8719C45.2903 54.8719 43.1016 52.7916 43.1016 49.4389C43.1016 46.066 45.2903 44.0059 48.3826 44.0059C51.3745 44.0059 53.3423 45.9448 53.3423 49.1965V50.3679ZM48.3625 46.3083C47.1175 46.3083 46.2943 47.0758 46.2139 48.4088H50.3906C50.3303 47.1364 49.6878 46.3083 48.3625 46.3083Z" fill="#1E1F4D"/>
<path d="M37.7581 44.1309C40.1275 44.1309 41.6937 45.7264 41.6937 48.3722V54.7747H38.7621V48.958C38.7621 47.625 38.1597 46.8777 37.0352 46.8777C35.991 46.8777 35.3485 47.5644 35.228 48.6146V54.7747H32.2963V48.958C32.2963 47.625 31.6739 46.8777 30.6096 46.8777C29.445 46.8777 28.7422 47.7259 28.7422 48.9782V54.7747H25.8105V44.1902H28.5816V45.4033C29.0434 44.6762 29.8868 44.1309 31.3124 44.1309C32.7381 44.1309 33.8826 44.7166 34.5654 45.787C35.1678 44.8378 36.1918 44.1309 37.7581 44.1309Z" fill="#1E1F4D"/>
<path d="M18.5447 43.9199C21.5392 43.9199 23.9664 46.377 23.9664 49.4071C23.9664 52.4376 21.5392 54.8946 18.5447 54.8946C15.5506 54.8946 13.123 52.4376 13.123 49.4071C13.123 46.377 15.5506 43.9199 18.5447 43.9199ZM18.5447 52.0541C19.9889 52.0541 21.1599 50.8696 21.1599 49.4071C21.1599 47.9461 19.9889 46.7604 18.5447 46.7604C17.1006 46.7604 15.9296 47.9461 15.9296 49.4071C15.9296 50.8696 17.1006 52.0541 18.5447 52.0541Z" fill="#1E1F4D"/>
</svg>
