<svg width="120" height="120" viewBox="0 0 120 120" fill="none"
  xmlns="http://www.w3.org/2000/svg">
  <rect width="120" height="120" fill="white"/>
  <path d="M89.1888 74.405L85.798 86.8922L73.519 83.6502L70.1308 96.1374L57.4849 92.8037L60.8756 80.3165L48.2298 76.9803L44.839 89.4675L32.1932 86.1338L35.5839 73.6465L23 70.2508L26.3907 57.7661L39.0366 61.0998L42.4249 48.6126L29.7815 45.2789L33.1375 32.7916L45.7834 36.1254L49.0824 24L61.7308 27.3362L58.4317 39.4566L71.0751 42.7928L74.3741 30.6699L87.02 34.0037L83.7235 46.1265L96 49.3686L92.6093 61.8583L80.3302 58.6138L76.942 71.101L89.1888 74.405Z" fill="#FFD430"/>
</svg>
