<svg width="120" height="120" viewBox="0 0 120 120" fill="none"
  xmlns="http://www.w3.org/2000/svg">
  <rect width="120" height="120" fill="#00ADEF"/>
  <path d="M53.3877 56.3485V57.797C53.3877 58.9003 53.0965 59.4253 51.4416 59.4253H46.8242V54.7204H51.4416C53.0965 54.7204 53.3877 55.2455 53.3877 56.3485ZM51.6782 53.0005H45.1247V66.9999H46.8242V61.1446L51.6782 61.1453C54.4958 61.1453 55.0872 59.5059 55.0872 58.1308V56.015C55.0872 54.6398 54.4958 53.0005 51.6782 53.0005Z" fill="white"/>
  <path d="M19.1797 56.3485V57.5912C19.1797 58.7234 18.8542 59.4253 17.2337 59.4253H12.6163V54.7204H17.2337C18.8886 54.7204 19.1797 55.2455 19.1797 56.3485ZM17.4703 53.0005H10.9167V66.9999H12.6163V61.1446L17.4703 61.1453C19.6368 61.1453 20.8793 59.9714 20.8793 57.9248V56.015C20.8793 54.6398 20.2879 53.0005 17.4703 53.0005Z" fill="white"/>
  <path d="M82.2117 64.3247L77.834 53.003L76.0187 52.9979C76.0187 52.9979 76.0187 52.9979 81.1846 66.2335C81.3981 66.7803 81.7895 67.1053 82.2257 67.1053C82.2261 67.1053 82.2266 67.1053 82.2269 67.1053C82.6601 67.1048 83.0447 66.7825 83.2559 66.2434C83.6429 65.256 88.2611 53.3665 88.3077 53.2465L88.4044 52.9977L86.5734 53.003L82.2117 64.3247" fill="white"/>
  <path d="M106.335 59.9123L110.948 53.0046L108.877 52.9993L105.289 58.3762L101.709 52.9957L99.6121 53.0043L104.262 59.913L99.3817 66.9967L101.534 67.0052L105.28 61.4334L109.084 67.0022L111.233 66.992L106.335 59.9123Z" fill="white"/>
  <path d="M22.3041 56.0146V63.9854C22.3041 65.3606 22.8955 67 25.7131 67H31.4838V65.28H25.9497C24.2948 65.28 24.0035 64.755 24.0035 63.6518V60.9391H30.5582V59.2194H24.0035V56.3482C24.0035 55.245 24.2948 54.72 25.9497 54.72H31.4838V53H25.7131C22.8955 53 22.3041 54.6393 22.3041 56.0146Z" fill="white"/>
  <path d="M58.2115 63.6518V53.0005H56.5119V63.9854C56.5119 65.3606 57.1034 67 59.9209 67H65.5605V65.28H60.1577C58.5026 65.28 58.2115 64.755 58.2115 63.6518Z" fill="white"/>
  <path d="M41.5638 56.3482V63.6518C41.5638 64.755 41.2726 65.28 39.6177 65.28H36.5096C34.8547 65.28 34.5635 64.755 34.5635 63.6518V56.3482C34.5635 55.245 34.8547 54.72 36.5096 54.72H39.6177C41.2726 54.72 41.5638 55.245 41.5638 56.3482ZM39.8543 53H36.273C33.4554 53 32.864 54.6393 32.864 56.0146V63.9854C32.864 65.3606 33.4554 67 36.273 67H39.8543C42.6718 67 43.2632 65.3606 43.2632 63.9854V56.0146C43.2632 54.6393 42.6718 53 39.8543 53Z" fill="white"/>
  <path d="M97.478 56.3482V63.6518C97.478 64.755 97.1869 65.28 95.532 65.28H92.424C90.769 65.28 90.4779 64.755 90.4779 63.6518V56.3482C90.4779 55.245 90.769 54.72 92.424 54.72H95.532C97.1869 54.72 97.478 55.245 97.478 56.3482ZM95.7687 53H92.1873C89.3698 53 88.7784 54.6393 88.7784 56.0146V63.9854C88.7784 65.3606 89.3698 67 92.1873 67H95.7687C98.5863 67 99.1777 65.3606 99.1777 63.9854V56.0146C99.1777 54.6393 98.5863 53 95.7687 53Z" fill="white"/>
  <path d="M66.17 56.0146V63.9854C66.17 65.3606 66.7615 67 69.579 67H75.3497V65.28H69.8157C68.1609 65.28 67.8696 64.755 67.8696 63.6518V60.9391H74.4241V59.2194H67.8696V56.3482C67.8696 55.245 68.1609 54.72 69.8157 54.72H75.3497V53H69.579C66.7615 53 66.17 54.6393 66.17 56.0146" fill="white"/>
</svg>
