<svg width="100" height="100" viewBox="0 0 100 100" fill="none" xmlns="http://www.w3.org/2000/svg">
<rect width="100" height="100" rx="4" fill="url(#paint0_linear_764_48005)"/>
<path opacity="0.2" d="M68.0448 68.24L51.6648 62.48C51.1098 62.27 50.4648 62.21 49.9998 62.21C49.5348 62.21 48.9348 62.27 48.3498 62.48L31.9548 68.24C31.2198 68.45 31.2348 69.515 31.9548 69.785L48.3498 75.53C48.9198 75.74 49.5348 75.8 49.9998 75.8C50.4648 75.8 51.0948 75.74 51.6648 75.53L68.0448 69.77C68.7648 69.515 68.7948 68.435 68.0448 68.24Z" fill="white"/>
<path d="M68.7799 33.575L52.3249 39.275C51.4999 39.56 50.9449 40.37 50.9449 41.27L50.9749 65.195C50.9749 66.695 52.4299 67.715 53.7499 67.145L70.1749 60.185C71.0449 59.735 71.4349 58.76 71.4349 57.905V35.57C71.4349 34.145 70.0849 33.125 68.7799 33.575ZM28.5649 35.585V57.92C28.5649 58.775 28.9549 59.75 29.8249 60.2L46.2499 67.145C47.5699 67.715 49.0249 66.695 49.0249 65.195L49.0549 41.27C49.0549 40.355 48.4999 39.56 47.6749 39.275L31.2199 33.575C29.9149 33.125 28.5649 34.145 28.5649 35.585ZM68.0899 31.745L51.7399 37.49C51.1849 37.7 50.5399 37.76 50.0749 37.76C49.6099 37.76 49.0099 37.7 48.4399 37.49L32.0749 31.745C31.3549 31.49 31.3399 30.425 32.0749 30.215L48.4399 24.47C49.0099 24.26 49.6249 24.2 50.0749 24.2C50.5399 24.2 51.1699 24.26 51.7399 24.47L68.0899 30.215C68.8249 30.41 68.8099 31.49 68.0899 31.745Z" fill="url(#paint1_linear_764_48005)"/>
<defs>
<linearGradient id="paint0_linear_764_48005" x1="40" y1="1.50651e-06" x2="177" y2="168.5" gradientUnits="userSpaceOnUse">
<stop stop-color="#533A6A"/>
<stop offset="1" stop-color="#8875B0"/>
</linearGradient>
<linearGradient id="paint1_linear_764_48005" x1="32.9527" y1="29.1979" x2="67.1293" y2="63.3745" gradientUnits="userSpaceOnUse">
<stop stop-color="white"/>
<stop offset="1" stop-color="white"/>
</linearGradient>
</defs>
</svg>
