<svg width="100" height="100" viewBox="0 0 100 100" fill="none" xmlns="http://www.w3.org/2000/svg">
<rect width="100" height="100" rx="4" fill="#EF2637"/>
<path d="M61.8078 62.6477C68.0902 58.8602 71.6801 52.4618 71.6801 45.089C71.6801 32.8071 62.0276 23.9082 48.7121 23.9082H26.0371V78.0001H73.5666L61.8078 62.6477ZM30.6893 28.5783H48.7121C59.5001 28.5783 67.0278 35.3627 67.0278 45.089C67.0278 51.0093 64.0973 56.0655 58.9689 58.9337L54.5365 53.1053C57.7601 51.8919 59.7198 48.8582 59.7198 44.9971C59.7198 39.7386 55.4156 35.7672 49.7011 35.7672H37.9973V66.1779H48.3824C51.606 66.1779 54.683 65.6814 57.5036 64.6702L64.1339 73.3301H30.6893V28.5783ZM54.4815 60.7356C52.5767 61.2504 50.5253 61.5078 48.3824 61.5078H42.6495V40.4373H49.7011C52.247 40.4373 54.9394 42.0737 54.9394 45.1258C54.9394 47.8837 52.9247 49.7591 49.9209 49.7591H46.0746L54.4815 60.7356Z" fill="white"/>
</svg>
