<svg width="120" height="120" viewBox="0 0 120 120" fill="none"
  xmlns="http://www.w3.org/2000/svg">
  <rect width="120" height="120" fill="white"/>
  <rect width="120" height="120" fill="#00DB01"/>
  <g clip-path="url(#clip0_8_50)">
    <path fill-rule="evenodd" clip-rule="evenodd" d="M116.996 56.2921C116.996 51.352 113.231 42.1339 101.059 42.0964C95.7788 42.0804 91.8001 44.4536 89.9702 46.0161V42.5113L81.8284 42.5072V46.0161C79.8336 44.2614 77.4095 42.6778 74.9703 42.3039C72.377 41.9059 69.7839 42.0239 66.577 43.0088C63.9101 43.8271 62.2102 45.0356 60.5641 46.9268C57.1652 43.0538 51.7953 42.2802 47.5152 42.121C42.6419 41.9404 37.7286 42.5523 33.9 45.4002C30.2097 43.4793 25.5467 41.9704 20.3702 42C15.8186 42.0265 11.4583 43.0711 8.36899 45.7881C7.25538 46.7676 6.75495 47.5462 6.20292 48.9359C5.10969 51.6887 5.56459 54.8679 6.78357 56.5271C9.05719 59.6214 11.6031 60.8233 16.1763 61.3469C20.1937 61.8073 23.0068 61.8082 25.979 62.3654C27.3836 62.6292 28.6719 63.6875 28.6719 65.2561C28.6719 67.0859 26.1585 70.0847 20.09 69.6827C15.0341 69.3482 13.1248 68.6222 8.36899 65.4731L3 69.893C3 69.893 3.9163 70.6371 4.54075 71.0546C5.14179 71.4567 5.76667 71.8359 6.41194 72.1894H6.42755C11.8421 75.164 18.695 76.4078 24.8975 75.3973C27.9408 74.9002 30.8271 73.8618 33.3111 72.2168C35.3189 73.6152 37.9715 76.0124 44.3934 75.7185C48.4354 75.5329 51.4363 75.681 54.2433 72.3957V75.6787H62.1062L62.1039 72.3957C62.1039 72.3957 63.3442 73.4164 64.2159 73.9488C69.2093 76.9999 77.1515 75.8458 81.848 72.207L81.8588 76.4542C81.7244 79.0744 79.361 80.8684 76.8762 81.8781C72.5852 83.6225 68.6759 82.0592 65.185 79.553L59.2267 83.6093C60.8352 85.2495 62.3056 86.2074 64.5974 87.2767C71.0414 90.2801 78.5804 89.2563 83.782 86.1146C87.2121 84.0423 88.5391 81.5016 89.3673 77.5956C89.8075 75.5187 89.8509 73.9988 89.9181 72.1813C89.9203 72.1284 89.9203 72.0811 89.9224 72.0347C89.9918 72.0846 90.0612 72.1328 90.1285 72.1813C91.7871 73.3602 93.2551 74.2339 95.4992 74.9288C99.1222 76.0499 103.244 76.1007 107.845 74.8781C109.986 74.3081 111.876 73.3978 113.564 72.1813H113.567C114.48 71.52 115.335 70.771 116.14 69.9389L111 66.214C109.259 67.6603 106.668 69.1193 103.715 69.4992C100.304 69.9389 96.4358 69.3115 94.3413 66.9997C93.2095 65.7501 92.8149 65.3577 92.8149 62.1922L116.996 62.2192V56.2921ZM65.5081 58.5915C65.5731 56.7724 65.7423 54.8264 65.9331 52.9153C66.0263 51.983 67.1321 50.8567 68.6867 49.9933C70.0983 49.2103 71.8806 48.6433 73.6108 48.6341C74.9269 48.6271 76.2777 48.8807 77.4725 49.3495C79.5561 50.1652 81.1714 51.6339 81.3384 53.5122C81.4924 55.262 81.6701 56.9168 81.7504 58.5027C81.8501 60.4839 81.8024 62.358 81.3796 64.1744C81.1086 65.3317 80.5449 66.3134 79.3804 67.2538C78.0644 68.3142 76.0263 69.2567 73.6108 69.1184C70.2305 68.9262 67.208 67.5618 66.3147 65.6551C65.5644 64.0489 65.4061 61.4799 65.5081 58.5915ZM51.1561 69.19C49.4709 69.7268 46.7763 70.0008 43.9077 69.6487C41.5204 69.3557 39.2478 69.1833 38.3176 66.9997C37.8137 65.8164 37.9195 64.7302 38.7035 63.7189C39.9342 62.1308 42.7845 61.8228 44.4936 61.8042H53.8577C54.1071 64.2884 54.888 68.0013 51.1561 69.19ZM23.3437 55.6283C19.5892 55.4238 16.1351 55.35 14.2592 53.8211C13.1794 52.9405 13.3937 50.4077 14.9071 49.4896C17.0844 48.1697 19.7189 48.214 21.237 48.2939C24.3112 48.4556 27.8514 49.4794 30.6381 51.3697L33.9 48.2939C33.9 48.2939 37.344 51.5067 37.344 51.3697C41.3596 48.5219 42.7763 48.5148 46.5165 48.5183C51.6313 48.5219 53.0997 49.5338 53.8516 50.6782C54.327 51.4006 53.8577 55.8104 53.8577 55.8104C53.8577 55.8104 49.3421 55.9518 46.0854 55.7856C43.4979 55.6535 42.0504 55.6438 39.4476 56.0764C37.1206 56.463 35.5214 57.1554 33.9 58.5234C33.9 58.5234 32.5132 57.5359 31.0019 56.832C28.2534 55.5515 26.2869 55.7884 23.3437 55.6283ZM93.0035 56.2001C93.0035 54.2126 93.5153 52.6232 94.3565 51.3869C96.0368 48.9213 99.0334 47.8649 101.915 47.871C104.751 47.8768 107.674 48.9143 109.413 51.174C110.395 52.4487 111 54.1128 111 56.2001H93.0035Z" fill="#F8FFF8"/>
  </g>
  <defs>
    <clipPath id="clip0_8_50">
      <rect width="114" height="47" fill="white" transform="translate(3 42)"/>
    </clipPath>
  </defs>
</svg>
