<svg width="100" height="100" viewBox="0 0 100 100" fill="none" xmlns="http://www.w3.org/2000/svg">
<rect x="0.5" y="0.5" width="99" height="99" rx="3.5" fill="white" stroke="#EEEEEE"/>
<path fill-rule="evenodd" clip-rule="evenodd" d="M17 67H50.4811L83.247 34H17V67Z" fill="url(#paint0_linear_8955_181099)"/>
<path fill-rule="evenodd" clip-rule="evenodd" d="M56.3153 40.5997H49.7726L49.7945 56.095L44.0973 40.5946H38.4482L33.5848 53.5401C33.0678 50.246 29.6857 49.1093 27.0247 48.2579C25.2674 47.6896 23.4023 46.8536 23.4212 45.9296C23.4358 45.1713 24.419 44.468 26.3729 44.5729C27.6837 44.644 28.8417 44.7504 31.1452 45.8709L33.4101 41.8962C31.3098 40.8197 28.4055 40.1399 26.024 40.1377H26.0095C23.2326 40.1377 20.9204 41.0434 19.4872 42.5357C18.488 43.577 17.9491 44.9014 17.9272 46.3659C17.8908 48.3811 18.6242 49.8096 20.1652 50.9514C21.4673 51.9121 23.1328 52.5354 24.6003 52.993C26.41 53.5577 27.8884 54.049 27.8702 55.0948C27.8556 55.4761 27.7129 55.8325 27.4405 56.12C26.989 56.5893 26.2971 56.7653 25.3395 56.7844C23.4919 56.824 22.1227 56.5314 19.9409 55.2326L17.9258 59.2586C20.1055 60.5068 22.4192 61.133 25.0482 61.133L25.6395 61.1286C27.9277 61.0868 29.7848 60.5346 31.2602 59.3393C31.3447 59.2711 31.4205 59.2022 31.4991 59.1325L31.2515 60.4173L36.7717 60.3997L37.7621 57.8462C38.8036 58.2041 39.9877 58.4021 41.2447 58.4021C42.4696 58.4021 43.6217 58.2144 44.6435 57.877L45.3339 60.3997L55.2382 60.4092L55.2623 54.588H57.3698C62.464 54.588 65.4754 51.9774 65.4754 47.5994C65.4739 42.7234 62.5463 40.5997 56.3153 40.5997ZM41.2447 53.8452C40.4837 53.8452 39.77 53.7117 39.156 53.477L41.2214 46.91H41.2614L43.2933 53.4954C42.6816 53.7154 41.9846 53.8452 41.244 53.8452H41.2447ZM56.6984 50.0722H55.2608V44.7797H56.6991C58.6144 44.7797 60.1438 45.4221 60.1438 47.3918C60.1423 49.4305 58.6144 50.0722 56.6991 50.0722" fill="white"/>
<defs>
<linearGradient id="paint0_linear_8955_181099" x1="50.1235" y1="34" x2="50.1235" y2="67.0007" gradientUnits="userSpaceOnUse">
<stop stop-color="#00AEEF"/>
<stop offset="0.212" stop-color="#0097DC"/>
<stop offset="0.519" stop-color="#007CC5"/>
<stop offset="0.792" stop-color="#006CB8"/>
<stop offset="1" stop-color="#0066B3"/>
</linearGradient>
</defs>
</svg>
