<svg width="100" height="100" viewBox="0 0 100 100" fill="none" xmlns="http://www.w3.org/2000/svg">
<rect width="100" height="100" rx="4" fill="#FFD430"/>
<path d="M63.334 29.9993H50.0007L47.6507 27.6493C47.0173 27.016 46.1673 26.666 45.284 26.666H36.6673C34.834 26.666 33.3507 28.166 33.3507 29.9993L33.334 49.9993C33.334 51.8327 34.834 53.3327 36.6673 53.3327H63.334C65.1673 53.3327 66.6673 51.8327 66.6673 49.9993V33.3327C66.6673 31.4993 65.1673 29.9993 63.334 29.9993ZM51.6673 41.666V46.666C51.6673 47.5827 50.9173 48.3327 50.0007 48.3327C49.084 48.3327 48.334 47.5827 48.334 46.666V41.666H45.3507C44.6007 41.666 44.234 40.766 44.7673 40.2493L49.434 35.5993C49.7673 35.266 50.284 35.2827 50.6173 35.5993L55.2673 40.2493C55.7673 40.766 55.4007 41.666 54.6673 41.666H51.6673V41.666Z" fill="white"/>
<path d="M41.3533 72.975C41.1283 71.73 40.1233 70.14 37.4683 70.14C35.4283 70.14 33.6583 71.55 33.6583 73.56C33.6583 75.135 34.7533 76.335 36.5533 76.68L38.0083 76.95C38.7133 77.085 39.1483 77.475 39.1483 78.015C39.1483 78.675 38.5783 79.125 37.6483 79.125C36.1933 79.125 35.5333 78.27 35.4433 77.295L33.2683 77.82C33.4183 79.32 34.6783 81.225 37.6183 81.225C40.1533 81.225 41.5483 79.53 41.5483 77.865C41.5483 76.35 40.4983 75.045 38.4733 74.67L37.0483 74.4C36.3133 74.265 35.9983 73.89 35.9983 73.38C35.9983 72.795 36.5683 72.24 37.4533 72.24C38.7433 72.24 39.1483 73.08 39.2233 73.575L41.3533 72.975ZM44.6589 81V77.025H48.5889V74.865H44.6439V72.615H49.1289V70.365H42.2739V81H44.6589ZM58.5403 72.63V70.365H49.6153V72.63H52.8853V81H55.2553V72.63H58.5403ZM61.4625 75.135V72.42H62.8425C63.7425 72.42 64.3575 72.93 64.3575 73.785C64.3575 74.61 63.7425 75.135 62.8425 75.135H61.4625ZM63.0825 77.175C65.2425 77.175 66.7275 75.78 66.7275 73.77C66.7275 71.79 65.2425 70.365 63.0825 70.365H59.0775V81H61.4475V77.175H63.0825Z" fill="white"/>
</svg>
