<svg width="119" height="119" viewBox="0 0 119 119" fill="none"
  xmlns="http://www.w3.org/2000/svg">
  <rect width="119" height="119" fill="#88C532"/>
  <path fill-rule="evenodd" clip-rule="evenodd" d="M81.5 29.5891C81.5 29.5891 88.6675 30.1203 89.0061 30.1487C89.3454 30.1772 89.7559 30.4364 89.8203 30.9053C89.884 31.375 100 99.7659 100 99.7659L71.1862 105.999L75.2074 23.7476C75.4958 23.7925 75.7715 23.8967 75.976 24.1012C76.5221 24.6473 81.5 29.5891 81.5 29.5891Z" fill="white"/>
  <path fill-rule="evenodd" clip-rule="evenodd" d="M75.1897 23.7444L70.9174 105.95L71.1832 106L100 99.7659C100 99.7659 89.884 31.3743 89.8203 30.9053C89.7559 30.4364 89.3454 30.1772 89.006 30.1487C88.6674 30.1202 81.4999 29.5891 81.4999 29.5891C81.4999 29.5891 76.5221 24.6472 75.976 24.1004C75.7678 23.8925 75.4841 23.7877 75.1897 23.7444ZM70.1885 105.814L18 96.0353C18 96.0353 24.8252 43.2529 25.0836 41.3921C25.4259 38.9343 25.5076 38.8519 28.1167 38.0339C28.5407 37.9005 31.8608 36.8712 36.5338 35.4232C38.3354 27.783 44.0811 12.7491 56.1073 12.7491C57.6782 12.7491 59.497 13.5926 60.9645 15.5343C61.1121 15.5261 61.2589 15.5201 61.4013 15.5201C66.5642 15.5201 69.4984 19.9174 71.1614 24.7019C72.8597 24.1768 73.886 23.8599 73.9474 23.8419C74.0695 23.806 74.2483 23.7662 74.4538 23.742L70.1885 105.814ZM55.7769 15.9748C56.2961 15.9748 56.819 16.1508 57.3194 16.4954C53.4652 18.309 49.3338 22.8771 47.5892 31.999L46.187 32.4332C44.1276 33.0708 42.1225 33.6916 40.2426 34.2741C42.2862 27.3163 47.1389 15.9748 55.7769 15.9748ZM59.3502 19.357C60.0896 21.2103 60.5705 23.8697 60.5705 27.4586C60.5705 27.6422 60.569 27.81 60.5675 27.98L60.0241 28.1483L60.009 28.153C57.2378 29.011 54.2591 29.9333 51.2733 30.8581C53.0629 23.9513 56.4174 20.6155 59.3502 19.357ZM68.2219 25.6113L65.7855 26.3654L63.722 27.0039C63.7235 26.6871 63.7243 26.3747 63.7243 26.0338C63.7243 23.0599 63.3123 20.6657 62.6493 18.7674C65.3101 19.1016 67.0818 22.128 68.2219 25.6113ZM61.4013 46.0711L57.8483 56.6403C57.8483 56.6403 54.7349 54.9788 50.919 54.9788C45.3246 54.9788 45.0429 58.4898 45.0429 59.3745C45.0429 61.2822 47.008 62.7248 49.385 64.4699C53.0229 67.1406 57.6258 70.5198 57.6258 77.3585C57.6258 86.2542 51.9842 91.9826 44.3762 91.9826C35.2461 91.9826 30.5783 86.3006 30.5783 86.3006L33.0227 78.2244C33.0227 78.2244 37.8215 82.3446 41.8712 82.3446C44.5163 82.3446 45.5935 80.2613 45.5935 78.7391C45.5935 75.9795 43.6108 74.3753 41.3832 72.5729C38.5278 70.2626 35.27 67.6268 35.27 61.8144C35.27 53.106 41.5199 44.6785 54.1379 44.6785C58.9996 44.6785 61.4013 46.0711 61.4013 46.0711Z" fill="white"/>
</svg>
