<svg width="100" height="100" viewBox="0 0 100 100" fill="none" xmlns="http://www.w3.org/2000/svg">
<rect x="0.5" y="0.5" width="99" height="99" rx="3.5" fill="white" stroke="#EEEEEE"/>
<path fill-rule="evenodd" clip-rule="evenodd" d="M43.4129 58.3802C43.5958 57.8149 43.6825 57.2058 43.6887 56.5875C43.6902 56.4093 43.4828 56.3041 43.3354 56.4062L34.858 62.2898C34.3357 62.6531 33.8895 63.4611 33.8595 64.0902C33.8595 64.0902 33.7374 66.8215 33.1513 68.6172C32.0207 72.1205 32.192 74.3886 33.3687 75.2212C34.5447 76.0546 36.7421 75.4539 39.6639 73.2134C41.1571 72.0659 43.6864 71.0375 43.6864 71.0375C44.2701 70.8017 44.8777 70.1065 45.0482 69.4928L47.7265 59.6875C47.7734 59.5162 47.6082 59.3557 47.4408 59.4148C46.8908 59.6092 46.377 59.8711 45.9207 60.2021C43.6864 61.822 42.5581 61.004 43.4129 58.3802Z" fill="#64B298"/>
<path fill-rule="evenodd" clip-rule="evenodd" d="M40.8999 50.6455C38.6647 49.021 39.0972 47.6922 41.8577 47.6922C42.4476 47.6922 43.0459 47.5908 43.6327 47.4103C43.8032 47.3581 43.8393 47.1261 43.6972 47.0178L35.5271 40.8324C35.0332 40.453 34.1461 40.2971 33.5547 40.4691C33.5547 40.4691 30.9816 41.2403 29.1405 41.2748C25.5474 41.3455 23.4928 42.2342 23.078 43.6206C22.6648 44.997 23.8884 46.8772 26.8547 48.9104C28.3701 49.9488 30.096 52.0011 30.096 52.0011C30.4962 52.4743 31.3234 52.8253 31.9394 52.7838L41.8899 52.1294C42.0666 52.1171 42.1641 51.9097 42.0543 51.7715C41.714 51.3398 41.33 50.9565 40.8999 50.6455Z" fill="#E59B42"/>
<path fill-rule="evenodd" clip-rule="evenodd" d="M56.2371 34.9521C56.4553 34.3783 56.357 33.4958 56.0167 32.9889C56.0167 32.9889 54.5451 30.7799 53.9859 29.0525C52.8891 25.6875 51.4458 24 50.0041 24C48.5578 24 47.1192 25.6875 46.0147 29.0525C45.4563 30.7829 43.9808 32.9927 43.9808 32.9927C43.6429 33.5004 43.5423 34.3853 43.7589 34.9544L47.3166 44.3373C47.3796 44.5047 47.61 44.5362 47.7083 44.3872C48.0202 43.921 48.2675 43.4271 48.4327 42.9148C49.2875 40.2849 50.6877 40.2849 51.5388 42.9148C51.7093 43.4348 51.9651 43.9387 52.2838 44.4087C52.3829 44.5554 52.6118 44.5232 52.6748 44.3565L56.2371 34.9521Z" fill="#E05151"/>
<path fill-rule="evenodd" clip-rule="evenodd" d="M66.1385 64.0901C66.1124 63.4618 65.6631 62.6538 65.1431 62.2897L56.6419 56.3924C56.4952 56.291 56.2871 56.3947 56.2886 56.5729C56.2948 57.1935 56.3792 57.8057 56.5613 58.3802C57.4185 61.004 56.2894 61.8227 54.0504 60.2021C53.6042 59.8779 53.1003 59.6168 52.5627 59.4217C52.3952 59.3618 52.2293 59.5231 52.2754 59.6936L54.9506 69.4928C55.1181 70.1065 55.7295 70.8016 56.3124 71.0382C56.3124 71.0382 58.8425 72.0667 60.3341 73.2142C63.2574 75.4547 65.4511 76.0545 66.6316 75.2212C67.8083 74.3886 67.9758 72.1166 66.8459 68.618C66.2637 66.8222 66.1385 64.0901 66.1385 64.0901Z" fill="#35779D"/>
<path fill-rule="evenodd" clip-rule="evenodd" d="M76.923 43.6199C76.5067 42.2335 74.4536 41.3448 70.8582 41.2741C69.0194 41.2396 66.4448 40.4684 66.4448 40.4684C65.8519 40.2971 64.9678 40.4546 64.4708 40.8317L56.2961 47.0255C56.1525 47.1331 56.1886 47.3658 56.3607 47.4173C56.9406 47.5947 57.5343 47.6922 58.1173 47.6922C60.8808 47.6922 61.3102 49.0202 59.0766 50.6447C58.6511 50.9566 58.264 51.3399 57.9245 51.7708C57.8146 51.9098 57.913 52.1172 58.0888 52.1287L68.0555 52.7839C68.6761 52.8246 69.5056 52.4735 69.9035 52.0004C69.9035 52.0004 71.6294 49.9481 73.1448 48.9104C76.1112 46.8765 77.3347 44.994 76.923 43.6199Z" fill="#A85A8E"/>
</svg>
