<svg width="120" height="120" viewBox="0 0 120 120" fill="none"
  xmlns="http://www.w3.org/2000/svg">
  <rect width="120" height="120" fill="white"/>
  <mask id="mask0_24_206" style="mask-type:alpha" maskUnits="userSpaceOnUse" x="26" y="7" width="68" height="68">
    <path fill-rule="evenodd" clip-rule="evenodd" d="M46.0235 7.17449C42.8129 7.58778 39.2255 8.86358 36.6826 10.4965C34.27 12.0456 31.887 14.3231 30.2682 16.627C28.4142 19.2653 26.9694 22.8175 26.4275 26.0701C26.2109 27.3698 26.1684 28.2928 26.2352 30.2399C26.2826 31.6224 26.4415 33.3121 26.5906 34.0189C27.5453 38.543 29.6601 42.568 32.6633 45.5765C35.7044 48.6229 39.2669 50.6628 43.2875 51.6599C44.1326 51.8695 45.2199 52.0942 45.7036 52.159L46.5832 52.277L44.8241 52.564C41.7766 53.0608 38.4171 54.4445 35.7085 56.3182C34.0772 57.4468 31.0727 60.5374 29.9248 62.2679C27.6342 65.7208 26.4658 69.2121 26.1065 73.6768L26 74.9999H49.6246C75.8103 74.9999 74.9951 75.0296 78.2655 73.9552C84.1834 72.0113 88.9492 67.8588 91.6605 62.2843C92.5829 60.3876 93.3714 57.9995 93.6694 56.1994C94.1585 53.2465 94.0139 49.8571 93.2708 46.8537C92.8174 45.0214 92.4419 44.0011 91.5785 42.2548C90.3567 39.7835 88.8999 37.8096 86.8899 35.9016C83.5045 32.6879 79.9173 30.8755 75.0493 29.9192L74.0897 29.7306L75.609 29.4222C76.4446 29.2525 77.7759 28.8969 78.5676 28.6318C84.1525 26.7615 88.9399 22.5721 91.6348 17.1971C92.3482 15.7741 92.5629 15.2235 93.1409 13.3349C93.5839 11.887 93.9926 9.30302 93.9971 7.92217L94 7L70.5315 7.02037C57.6239 7.03159 46.5952 7.10088 46.0235 7.17449ZM71.2606 38.8583C71.2996 43.8107 71.2791 48.8445 71.215 50.0446L71.0984 52.2264H48.7421V41.1069C48.7421 34.9911 48.7906 29.9387 48.8498 29.8794C48.9091 29.8201 53.9598 29.7899 60.0736 29.8125L71.1896 29.8537L71.2606 38.8583Z" fill="black"/>
  </mask>
  <g mask="url(#mask0_24_206)">
    <rect x="26.1772" y="7.12399" width="22.8644" height="22.6871" fill="#F2C15B"/>
    <rect x="49.0416" y="7.12399" width="22.5099" height="22.6871" fill="#E06E37"/>
    <rect x="71.5515" y="7.12399" width="22.5099" height="22.8644" fill="#D93C2A"/>
    <rect x="26.1772" y="29.8111" width="22.8644" height="22.5099" fill="#FAE24D"/>
    <rect x="71.5515" y="52.321" width="22.5099" height="22.5099" fill="#317548"/>
    <rect x="26.1772" y="52.321" width="22.6871" height="22.5099" fill="#703B8D"/>
    <rect x="48.8644" y="52.321" width="22.6871" height="22.5099" fill="#4AADE3"/>
    <rect x="71.5515" y="29.8111" width="22.5099" height="22.5099" fill="#ADC84A"/>
  </g>
  <path fill-rule="evenodd" clip-rule="evenodd" d="M30.4954 80.5736C29.7915 80.6899 28.3301 81.31 27.7537 81.7369C26.3415 82.783 25.4621 84.1475 25.1437 85.7866C24.9 87.0413 25.01 88.8082 25.3805 89.5919C26.1891 91.3016 28.2943 92.433 32.2768 93.2984C34.2691 93.7314 35.8483 94.2366 36.2008 94.5539C36.8652 95.1516 36.6731 96.9666 35.863 97.7449C35.1223 98.4567 34.3834 98.6611 32.5503 98.6611C31.1087 98.6611 30.77 98.608 30.165 98.2869C29.2816 97.8183 28.7139 96.8245 28.7139 95.7469C28.7139 95.3305 28.6017 94.8355 28.4618 94.6352C28.2358 94.3113 28.071 94.274 26.8674 94.274C25.7334 94.274 25.4799 94.324 25.2336 94.5972C24.9818 94.8765 24.9567 95.1023 25.0495 96.2627C25.1316 97.2878 25.277 97.8521 25.6649 98.6511C25.9444 99.2264 26.4952 100.011 26.8891 100.396C27.2829 100.78 28.0915 101.33 28.6859 101.618C29.7191 102.119 29.8686 102.145 32.0881 102.207C33.518 102.248 34.7911 102.197 35.4028 102.077C38.0377 101.557 39.526 99.9742 40.1471 97.0324C40.453 95.583 40.3727 94.4642 39.8798 93.315C39.412 92.2239 38.3799 91.3198 36.9967 90.7894C36.3991 90.5603 34.5903 90.0143 32.9769 89.5761C31.3637 89.1379 29.896 88.6998 29.7154 88.6028C28.2979 87.8417 28.4325 85.738 29.9663 84.6844C30.5161 84.3066 30.6853 84.2809 32.6193 84.2809H34.6852L35.1825 84.7591C35.7043 85.2609 35.9992 86.0379 36.0007 86.915C36.0013 87.2416 36.1343 87.5608 36.3562 87.7681C36.6496 88.0425 36.9264 88.0994 37.9664 88.0994C39.0806 88.0994 39.2507 88.0586 39.4743 87.7382C39.7618 87.3266 39.796 86.2428 39.5548 85.1933C39.2868 84.0263 38.5692 82.7392 37.8696 82.1699C36.9401 81.4135 35.7357 80.8446 34.6293 80.6394C33.7165 80.4703 31.3496 80.4324 30.4954 80.5736ZM42.5857 81.0846C42.3425 81.3544 42.3177 82.3061 42.3177 91.4026C42.3177 103.108 42.1402 102.073 44.1492 102.073C46.1104 102.073 45.9484 102.673 46.0425 95.0607L46.1235 88.509L46.9455 89.7259C47.3979 90.3954 49.3558 93.3193 51.297 96.2238C53.2379 99.1283 54.9713 101.633 55.1488 101.789C55.3935 102.005 55.759 102.073 56.6619 102.073C57.6778 102.073 57.9006 102.021 58.1824 101.718C58.5073 101.368 58.5126 101.201 58.5126 91.3997C58.5126 79.7556 58.6919 80.7874 56.6682 80.7874C55.7669 80.7874 55.3868 80.8576 55.1287 81.0718C54.7913 81.3516 54.7852 81.4585 54.7463 87.8557L54.7068 94.3552L50.2773 87.6932C47.8411 84.0291 45.7641 80.9774 45.6618 80.9117C45.5594 80.8461 44.8857 80.7913 44.1647 80.7899C43.0983 80.7879 42.8037 80.8428 42.5857 81.0846ZM67.0493 81.0744C66.6496 81.5175 65.754 84.0304 61.3367 97.1018L59.9145 101.311L60.3563 101.692C60.7338 102.018 60.9725 102.073 61.9973 102.073C62.9771 102.073 63.2496 102.016 63.4863 101.758C63.6456 101.584 64.097 100.502 64.4894 99.3527L65.2028 97.2628L67.5664 96.2313C68.8664 95.6639 70.217 95.0645 70.5678 94.8994C70.9186 94.7341 71.2665 94.5989 71.3411 94.5989C71.5083 94.5989 71.5756 94.7725 72.8567 98.4987C73.5351 100.472 74.0088 101.602 74.2357 101.789C74.4936 102.001 74.8765 102.073 75.7421 102.073C77.0495 102.073 77.6227 101.803 77.6227 101.187C77.6227 100.977 76.7775 98.4041 75.7442 95.4682C74.7111 92.5326 73.7338 89.7284 73.5725 89.2368C72.5125 86.0082 70.7861 81.3433 70.5573 81.0897C70.3293 80.8368 70.0416 80.7874 68.7964 80.7874C67.5795 80.7874 67.261 80.8398 67.0493 81.0744ZM79.4446 81.0333L79.0802 81.2933V91.3277C79.0802 101.201 79.0856 101.368 79.4104 101.718C79.6922 102.021 79.9151 102.073 80.931 102.073C81.8265 102.073 82.206 102.003 82.463 101.789C82.7867 101.519 82.8067 101.336 82.8454 98.2796L82.886 95.0546L86.3679 93.1151C88.283 92.0484 90.3964 90.8065 91.0645 90.3556C92.4276 89.4352 93.1742 88.5513 93.5578 87.4032C93.8885 86.4131 93.8908 84.798 93.5625 83.8315C93.2108 82.7956 92.2253 81.7253 91.1921 81.2569C90.3538 80.877 90.2241 80.8677 85.0723 80.8209C80.4561 80.779 79.7641 80.8051 79.4446 81.0333ZM89.3107 84.7936C89.5141 84.9782 89.6069 85.2916 89.6069 85.7937C89.6069 86.4329 89.5271 86.6011 88.9718 87.1311C88.3032 87.7691 86.5895 88.8501 84.2221 90.1269L82.805 90.8911V84.5247H85.9098C88.5716 84.5247 89.0568 84.563 89.3107 84.7936ZM70.0711 90.5375C70.1523 90.7246 69.8096 90.946 68.6158 91.478C67.757 91.8609 67.0299 92.1494 66.9998 92.1194C66.9698 92.0893 67.3619 90.8835 67.8709 89.4399L68.7964 86.8151L69.3807 88.554C69.7022 89.5105 70.0128 90.403 70.0711 90.5375ZM25.2591 105.269C25.1996 105.329 25.151 107.264 25.151 109.569C25.151 113.418 25.1745 113.774 25.4387 113.916C25.621 114.014 25.8283 114.013 26.0055 113.913C26.2442 113.779 26.2847 113.489 26.2847 111.915V110.074L28.0256 110.047C29.2735 110.028 29.8315 109.956 29.9956 109.792C30.1833 109.605 30.187 109.519 30.0163 109.312C29.8515 109.113 29.4399 109.06 28.0464 109.06H26.2847V106.136H28.3034C30.1005 106.136 30.3396 106.103 30.4821 105.835C30.7898 105.259 30.4024 105.161 27.8179 105.161C26.4698 105.161 25.3183 105.209 25.2591 105.269ZM38.3075 105.349C38.1642 105.493 38.1075 106.317 38.1086 108.24C38.1101 110.728 38.1389 110.99 38.4929 111.741C39.1827 113.205 40.3118 113.938 41.8671 113.931C42.9247 113.927 43.8842 113.507 44.4948 112.78C45.3222 111.796 45.4451 111.29 45.5186 108.573C45.5949 105.755 45.4699 105.104 44.8681 105.19C44.5097 105.241 44.5027 105.287 44.4188 108.167C44.3407 110.849 44.303 111.141 43.9631 111.691C43.5687 112.329 42.5012 112.96 41.815 112.96C41.145 112.96 40.0033 112.275 39.6492 111.66C39.3637 111.165 39.3112 110.715 39.2406 108.167C39.1639 105.392 39.143 105.239 38.8338 105.195C38.6547 105.169 38.4178 105.239 38.3075 105.349ZM53.9178 105.409C53.7568 105.83 53.8046 113.503 53.9698 113.765C54.0893 113.954 54.5813 113.998 56.4784 113.987C59.0092 113.972 59.462 113.851 59.1514 113.268C59.0037 112.991 58.7841 112.96 56.9713 112.96H54.9556L54.8688 105.242L54.4441 105.193C54.1674 105.16 53.984 105.236 53.9178 105.409ZM66.6848 105.362C66.6405 105.478 66.6239 107.436 66.6477 109.713L66.6911 113.854L67.0776 113.909C67.2903 113.939 67.5259 113.866 67.6016 113.746C67.677 113.627 67.7399 112.745 67.7413 111.787L67.7437 110.046L71.3876 109.954V109.142L67.7437 109.05V106.145L71.8735 106.054V105.242L69.3192 105.197C67.3476 105.163 66.7468 105.2 66.6848 105.362ZM79.6678 105.409C79.6117 105.555 79.5661 107.494 79.5661 109.718C79.5661 113.495 79.586 113.772 79.8676 113.923C80.0775 114.036 80.2506 114.025 80.4372 113.888C80.6769 113.712 80.7008 113.243 80.6621 109.467L80.6187 105.242L80.1941 105.193C79.9173 105.16 79.734 105.236 79.6678 105.409ZM89.2291 105.269C89.1697 105.329 89.1211 107.262 89.1211 109.565C89.1211 112.469 89.1765 113.788 89.3017 113.865C89.5797 114.038 94.1613 113.98 94.3388 113.802C94.4251 113.716 94.4698 113.509 94.4382 113.343C94.3861 113.071 94.1784 113.037 92.3176 112.996L90.2547 112.95V109.251C90.2547 106.589 90.2001 105.496 90.0604 105.356C89.8487 105.143 89.4009 105.096 89.2291 105.269Z" fill="#2E2E2E"/>
  <path d="M94.2589 79.4362C94.0716 79.387 93.9667 79.269 94.0255 79.1735C94.0856 79.076 94.6542 79.0001 95.324 79.0001C96.4781 79.0001 96.5205 79.0142 96.6716 79.4469L96.8279 79.8938L97.005 79.4469C97.2012 78.9523 97.7414 78.8381 97.9018 79.2571C97.9558 79.3985 98.0001 79.8372 98.0001 80.2321C98.0001 80.7684 97.9374 80.9499 97.7521 80.9499C97.6156 80.9499 97.4612 80.8381 97.4089 80.7015C97.3259 80.4841 97.2888 80.4875 97.1135 80.7278C96.8557 81.0817 96.4269 80.9189 96.3342 80.4318C96.2706 80.0975 96.2602 80.1053 96.2406 80.5031C96.224 80.8417 96.1362 80.9499 95.8784 80.9499C95.5745 80.9499 95.5444 80.8718 95.5962 80.2187C95.6413 79.6499 95.6 79.4875 95.41 79.4874C95.231 79.4872 95.1659 79.6702 95.1659 80.1744C95.1659 80.6992 95.0989 80.8749 94.8825 80.9176C94.6466 80.9644 94.5991 80.8523 94.5991 80.2496C94.5991 79.6505 94.5403 79.51 94.2589 79.4362Z" fill="#2E2E2E"/>
</svg>
