<svg width="100" height="100" viewBox="0 0 100 100" fill="none" xmlns="http://www.w3.org/2000/svg">
<rect width="100" height="100" rx="4" fill="#FF7950"/>
<path d="M76.549 24.1774C75.6719 23.8169 74.6601 24.016 73.9878 24.6821L38.9078 59.4382L26.1378 44.6187C25.4985 43.8773 24.46 43.6074 23.5371 43.9463C22.6135 44.2837 22 45.1557 22 46.1308V73.6713C22 74.9574 23.0523 76 24.3504 76H48.0822C48.7166 76 49.3069 75.7429 49.7401 75.3139L49.7441 75.3179L77.3116 48.0049C77.7524 47.5682 78 46.9758 78 46.3583V26.3287C78 25.3868 77.4274 24.538 76.549 24.1774ZM26.7007 71.3426V52.4448L42.9852 71.3426H26.7007ZM73.2993 45.3938L48.2185 70.243L41.9695 62.9912L73.2993 31.9506V45.3938Z" fill="white"/>
</svg>
