<svg width="100" height="100" viewBox="0 0 100 100" fill="none" xmlns="http://www.w3.org/2000/svg">
<rect width="100" height="100" rx="4" fill="white"/>
<g clip-path="url(#clip0_875_50892)">
<path d="M62.9343 69.6521C57.7953 75.4019 48.4211 76.0003 42.6308 70.7927C39.7263 68.1812 37.0742 65.2829 34.3161 62.5061C34.1416 62.3316 34.0419 62.0854 33.9764 61.9795C35.6468 60.2716 37.258 58.6262 38.9814 56.8623C41.2876 59.1778 43.6031 61.5026 45.9217 63.8244C49.9045 67.8134 53.476 68.0378 57.9075 64.5848C59.5842 66.2739 61.2608 67.9599 62.9375 69.649L62.9343 69.6521Z" fill="#E7256A"/>
<path d="M64.1996 49.3517C61.6037 46.4285 58.7272 43.7608 55.966 40.984C55.9006 40.9186 55.8258 40.8656 55.751 40.8189C54.4733 39.5443 53.1924 38.2727 51.896 37.0168C50.9642 36.1131 49.6708 36.0133 48.418 36.4901C45.7846 37.4936 45.1551 40.6942 47.2681 42.8072C49.8516 45.3907 52.4819 47.9275 55.109 50.4674C55.8133 51.1779 56.5145 51.8853 57.2157 52.5959C61.1798 56.6036 61.3824 60.1782 57.9013 64.5879C59.578 66.2739 61.2546 67.963 62.9313 69.649C68.7122 64.5474 69.3698 55.1763 64.1996 49.3517Z" fill="#F29049"/>
<path d="M38.7446 28.7458C43.8836 22.996 53.2578 22.3976 59.0481 27.6052C61.9526 30.2168 64.6047 33.1151 67.3628 35.8918C67.5373 36.0663 67.637 36.3125 67.7025 36.4185C66.0321 38.1263 64.4209 39.7718 62.6975 41.5357C60.3913 39.2201 58.0758 36.8953 55.7572 34.5735C51.7744 30.5845 48.2029 30.3601 43.7714 33.8131C42.0947 32.124 40.4181 30.438 38.7415 28.7489L38.7446 28.7458Z" fill="#494B9A"/>
<path d="M54.414 55.5908C51.8305 53.0072 49.2002 50.4705 46.5731 47.9306C45.8688 47.22 45.1676 46.5126 44.4633 45.8021C40.4992 41.7943 40.2966 38.2198 43.7776 33.81C42.101 32.124 40.4244 30.4349 38.7477 28.7489C32.9636 33.8505 32.3061 43.2185 37.4793 49.0431C40.0753 51.9664 42.9518 54.634 45.713 57.4108C45.7784 57.4762 45.8532 57.5292 45.928 57.5759C47.2057 58.8506 48.4866 60.1221 49.783 61.378C50.7148 62.2817 52.0081 62.3815 53.261 61.9047C55.8943 60.9012 56.5239 57.7006 54.4109 55.5877L54.414 55.5908Z" fill="#41C0ED"/>
</g>
<defs>
<clipPath id="clip0_875_50892">
<rect width="33.7323" height="50.3148" fill="white" transform="translate(33.9733 24.04)"/>
</clipPath>
</defs>
</svg>
