<svg width="100" height="100" viewBox="0 0 100 100" fill="none" xmlns="http://www.w3.org/2000/svg">
<rect width="100" height="100" rx="4" fill="black"/>
<path d="M62.7764 41.8917C66.4955 44.5617 71.0515 46.1327 75.9722 46.1327V36.6229C75.0409 36.6231 74.1121 36.5255 73.201 36.3317V43.8173C68.2807 43.8173 63.7253 42.2463 60.0052 39.5765V58.9833C60.0052 68.6915 52.169 76.561 42.5031 76.561C38.8966 76.561 35.5444 75.466 32.7598 73.5879C35.938 76.8516 40.3702 78.8763 45.2737 78.8763C54.9402 78.8763 62.7768 71.0067 62.7768 61.2981V41.8917H62.7764V41.8917ZM66.195 32.2975C64.2944 30.2121 63.0465 27.5171 62.7764 24.5376V23.3145H60.1503C60.8113 27.1013 63.066 30.3366 66.195 32.2975ZM38.8734 66.1381C37.8115 64.7398 37.2377 63.0292 37.2403 61.2703C37.2403 56.8301 40.8245 53.2299 45.2465 53.2299C46.0706 53.2297 46.8897 53.3565 47.6751 53.6067V43.8844C46.7573 43.7581 45.831 43.7044 44.9051 43.7241V51.2915C44.1191 51.0412 43.2996 50.9141 42.4753 50.9149C38.0533 50.9149 34.4693 54.5147 34.4693 58.9555C34.4693 62.0954 36.2608 64.8139 38.8734 66.1381Z" fill="#FF004F"/>
<path d="M60.0053 39.5763C63.7253 42.2461 68.2807 43.8171 73.201 43.8171V36.3315C70.4545 35.7439 68.0231 34.3025 66.195 32.2975C63.0659 30.3364 60.8114 27.1011 60.1504 23.3145H53.2523V61.2977C53.2367 65.7258 49.6586 69.3112 45.2461 69.3112C42.6459 69.3112 40.3359 68.0664 38.8729 66.1381C36.2604 64.8138 34.4689 62.0952 34.4689 58.9556C34.4689 54.5153 38.0529 50.9151 42.4749 50.9151C43.3221 50.9151 44.1387 51.0476 44.9047 51.2917V43.7243C35.4086 43.9213 27.7715 51.714 27.7715 61.2979C27.7715 66.0821 29.6733 70.4192 32.76 73.5881C35.5446 75.466 38.8968 76.5612 42.5034 76.5612C52.1694 76.5612 60.0055 68.6913 60.0055 58.9833V39.5763H60.0053Z" fill="white"/>
<path d="M73.2005 36.3321V34.308C70.7239 34.3118 68.2958 33.6152 66.1946 32.2979C68.0547 34.3432 70.5041 35.7535 73.2005 36.3321ZM60.1499 23.315C60.0868 22.9531 60.0384 22.5888 60.0048 22.2232V21H50.4804V58.9836C50.4652 63.4111 46.8873 66.9966 42.4744 66.9966C41.1789 66.9966 39.9557 66.6877 38.8724 66.1389C40.3354 68.067 42.6454 69.3116 45.2456 69.3116C49.6577 69.3116 53.2364 65.7265 53.2518 61.2985V23.315H60.1499ZM44.9046 43.7249V41.5701C44.1088 41.4609 43.3064 41.4061 42.5031 41.4065C32.8362 41.4063 25 49.2762 25 58.9836C25 65.0697 28.0798 70.4333 32.7597 73.5883C29.673 70.4196 27.7712 66.0823 27.7712 61.2983C27.7712 51.7146 35.4082 43.9219 44.9046 43.7249Z" fill="#00F2EA"/>
</svg>
