<svg width="120" height="120" viewBox="0 0 120 120" fill="none"
  xmlns="http://www.w3.org/2000/svg">
  <g clip-path="url(#clip0_24_281)">
    <rect width="120" height="120" fill="#007F7B"/>
    <path d="M105.703 65.6094L113.925 47.1082H102.89L93.5849 67.9897C92.3947 70.6945 94.5586 73.3994 97.8044 73.3994H113.493L116.522 66.5832H106.46C105.703 66.475 105.486 66.0422 105.703 65.6094Z" fill="white"/>
    <path d="M40.786 53.8162C43.1663 53.8162 45.0056 53.8162 47.9269 52.7343C49.0088 52.3015 58.3135 47.8656 60.1528 47H53.2284C50.0907 48.8393 46.9531 50.6786 46.1957 51.0032C43.4909 52.3015 40.786 52.6261 39.0549 52.6261H4.43278L4 53.8162H21.9602L15.4686 68.4225C14.4948 70.6945 16.6587 73.2912 19.4718 73.2912H24.1241L32.7797 53.8162H40.786V53.8162ZM43.0581 47H14.0621C8.00319 47 5.9475 49.4885 4.97375 51.6524H35.3763C39.7041 51.6524 41.327 49.0557 43.0581 47ZM82.2244 65.6094L90.4472 47.1082H79.4114L70.1067 67.9897C68.9165 70.6945 71.0804 73.3994 74.3262 73.3994H90.0144L93.0438 66.5832H82.9818C82.2244 66.475 82.008 66.0422 82.2244 65.6094ZM73.6771 49.4885C72.9197 48.1901 71.1886 47.1082 68.8083 47.1082H65.8871C63.7232 47.9737 51.0645 52.9507 49.4416 53.5998C48.035 54.1408 45.0056 54.8982 42.5171 54.8982H39.4877L35.8091 63.2291C31.0486 73.9404 41.9762 73.3994 41.9762 73.3994H54.6349C54.6349 73.3994 65.7789 73.9404 68.9165 66.1504L73.1361 56.5211C74.2181 54.1408 74.9754 51.3278 73.6771 49.4885ZM62.4249 55.8719C62.3167 56.0883 58.7463 64.0947 58.7463 64.0947C57.6643 66.475 55.1759 66.475 55.1759 66.475H47.6023C47.6023 66.475 45.3302 66.5832 46.4121 64.0947C46.4121 64.0947 50.1989 55.4391 50.4153 55.1146C50.6317 54.5736 51.4973 53.8162 53.012 53.8162H61.0184C62.1003 53.8162 62.9658 54.5736 62.4249 55.8719Z" fill="white"/>
  </g>
  <defs>
    <clipPath id="clip0_24_281">
      <rect width="120" height="120" fill="white"/>
    </clipPath>
  </defs>
</svg>
