<svg width="120" height="120" viewBox="0 0 120 120" fill="none"
  xmlns="http://www.w3.org/2000/svg">
  <rect width="120" height="120" fill="#B8AC36"/>
  <path d="M59.8382 16C44.1094 16 31.3586 28.7853 31.3586 44.5557C31.3586 47.8838 31.9262 51.0769 32.9699 54.0466L39.3623 47.5308C39.2229 46.5594 39.1505 45.5659 39.1505 44.5557C39.1505 33.0999 48.4125 23.8127 59.8383 23.8127C71.2631 23.8127 80.5253 33.0999 80.5253 44.5557C80.5253 56.0118 71.2631 65.2996 59.8383 65.2996C54.5423 65.2996 49.7128 63.3041 46.0538 60.0224C44.1722 58.3361 42.6005 56.3093 41.4346 54.0397L35.7399 59.8179L31.3108 64.3088V75L40.5604 65.5973C45.63 70.2631 52.4019 73.1116 59.8263 73.1116C75.5546 73.1116 88.3108 60.3272 88.3108 44.5557C88.3107 28.7854 75.5666 16 59.8382 16Z" fill="white"/>
  <path d="M7 83.0029V86.6564H12.5853V102.983H16.4563V86.6564H20.9727L24.1391 83.0029H7Z" fill="white"/>
  <path d="M113.622 86.6564V83.0029H100.912V102.983H113.622V99.3315H104.784V94.6756H113.622V91.0223H104.784V86.6564H113.622Z" fill="white"/>
  <path d="M94.4981 96.0193C94.4981 98.0764 92.9996 99.6321 90.7569 99.6321C88.5242 99.6321 87.0188 98.0764 87.0188 96.0193V83.0029H83.1456V96.1484C83.1456 100.334 86.1992 103.505 90.7512 103.505C95.3064 103.505 98.3569 100.334 98.3569 96.1484H98.3681V83.0029H94.4981V96.0193H94.4981Z" fill="white"/>
  <path d="M32.3855 82.4803C26.5798 82.4803 21.8739 87.1862 21.8739 92.992C21.8739 98.7976 26.5798 103.505 32.3855 103.505C38.1912 103.505 42.8978 98.7976 42.8978 92.992C42.8978 87.1862 38.1912 82.4803 32.3855 82.4803ZM32.3855 99.6321C28.718 99.6321 25.7456 96.6594 25.7456 92.992C25.7456 89.3247 28.718 86.3519 32.3855 86.3519C36.053 86.3519 39.0263 89.3247 39.0263 92.992C39.0263 96.6594 36.053 99.6321 32.3855 99.6321Z" fill="white"/>
  <path d="M56.625 92.8654L56.6259 92.8685C57.6484 91.8455 58.2803 90.434 58.2803 88.8732C58.2803 87.3116 57.6489 85.8941 56.625 84.8711C54.6086 82.9151 52.5225 83.0029 49.5498 83.0029H45.1731V102.983H49.0429V95.227L56.386 102.983H61.4311L53.5644 94.5011C54.6624 94.2713 55.6525 93.8095 56.625 92.8654ZM50.5585 91.2987H49.005V86.6564H50.5585C51.7369 86.6564 52.5651 86.6264 53.3608 87.4012C53.7665 87.807 54.0177 88.3703 54.0177 88.989C54.0177 89.6085 53.7665 90.1617 53.3608 90.5669C52.5652 91.3425 51.7369 91.2987 50.5585 91.2987Z" fill="white"/>
  <path d="M78.725 99.5C80.1393 97.7106 80.9851 95.4507 80.9851 92.992C80.9851 87.1862 76.2769 82.4803 70.4718 82.4803C64.6671 82.4803 59.9619 87.1862 59.9619 92.992C59.9619 98.7976 64.6671 103.505 70.4718 103.505C71.8033 103.505 73.0765 103.257 74.2491 102.806L71.2614 99.5851C71.0025 99.6158 70.7391 99.6321 70.4718 99.6321C66.806 99.6321 63.8318 96.6594 63.8318 92.9919C63.8318 89.3247 66.806 86.3518 70.4718 86.3518C74.1409 86.3518 77.1119 89.3247 77.1119 92.9919C77.1119 94.3543 76.701 95.6213 75.9971 96.675C75.3625 97.6296 74.4836 98.4078 73.4513 98.9259L77.4536 103.244H81.7854L78.5341 99.739C78.5996 99.6608 78.6618 99.58 78.725 99.5Z" fill="white"/>
</svg>
