<svg width="100" height="100" viewBox="0 0 100 100" fill="none" xmlns="http://www.w3.org/2000/svg">
<rect width="100" height="100" rx="4" fill="#FFD430"/>
<path d="M55 25H38.3333C37.4493 25 36.6014 25.3512 35.9763 25.9763C35.3512 26.6014 35 27.4493 35 28.3333V51.6667C35 52.5507 35.3512 53.3986 35.9763 54.0237C36.6014 54.6488 37.4493 55 38.3333 55H61.6667C62.5507 55 63.3986 54.6488 64.0237 54.0237C64.6488 53.3986 65 52.5507 65 51.6667V35L55 25ZM61.6667 51.6667H38.3333V28.3333H53.3333V36.6667H61.6667M58.3333 43.3333H41.6667V40H58.3333M53.3333 48.3333H41.6667V45H53.3333" fill="white"/>
<path d="M45.4469 72.63V70.365H36.5219V72.63H39.7919V81H42.1619V72.63H45.4469ZM54.8952 70.365H52.1202L50.0202 73.815L47.9202 70.365H45.0702L48.5052 75.675L45.0702 81H47.8602L49.9452 77.55L52.0452 81H54.9252L51.4752 75.705L54.8952 70.365ZM63.4809 72.63V70.365H54.5559V72.63H57.8259V81H60.1959V72.63H63.4809Z" fill="white"/>
</svg>
