<svg width="100" height="100" viewBox="0 0 100 100" fill="none" xmlns="http://www.w3.org/2000/svg">
<rect x="0.5" y="0.5" width="99" height="99" rx="3.5" fill="white" stroke="#EEEEEE"/>
<path d="M78.6184 57.3532C82.7666 53.1947 82.6678 46.4921 78.4703 42.4315C74.2728 38.3708 67.5567 38.4197 63.4086 42.5783C61.9765 44.046 60.9888 45.8561 60.5938 47.8131C61.0876 41.4041 66.7172 36.6096 73.137 37.0988C79.6061 37.588 84.4456 43.1653 83.9518 49.5254C83.5567 55.0049 79.3098 59.4569 73.8283 60.1419C75.6555 59.7015 77.2851 58.7231 78.6184 57.3532Z" fill="#009AED"/>
<path d="M65.0366 56.8647C69.2341 59.2131 74.6169 57.7454 76.9872 53.5379C79.3576 49.3305 77.8761 44.0467 73.6292 41.6984C72.1971 40.9156 70.5675 40.5242 68.8885 40.5731C74.123 39.5947 79.1601 43.0193 80.1477 48.2052C81.1354 53.3912 77.6786 58.3814 72.444 59.3598C67.9502 60.1915 63.5057 57.7943 61.7773 53.6358C62.5675 55.0056 63.6539 56.1309 65.0366 56.8647Z" fill="#EF7E6E"/>
<path d="M74.9642 46.5409C74.421 45.6603 73.6803 44.8775 72.7914 44.3882C71.9025 43.8501 70.8655 43.6055 69.779 43.6055C68.3469 43.6055 66.9148 44.1436 65.8778 45.1221C64.6432 46.2473 63.9025 47.8618 63.9519 49.5252C63.9025 51.0908 64.5445 52.6074 65.6803 53.7327C66.7667 54.8579 68.2482 55.4939 69.8284 55.445C70.8655 55.445 71.9025 55.2004 72.8408 54.6622C73.7297 54.1241 74.4704 53.3902 74.9642 52.4607C75.5074 51.5311 75.7543 50.5037 75.7543 49.4763C75.7543 48.4978 75.458 47.4704 74.9642 46.5409ZM69.8284 52.5585C69.0877 52.5585 68.3469 52.265 67.8037 51.7268C67.2605 51.1397 66.9642 50.308 67.0136 49.5252C66.9642 48.6935 67.2605 47.9108 67.8037 47.3237C68.2976 46.7855 69.0383 46.443 69.8284 46.492C70.6185 46.443 71.3099 46.7855 71.8531 47.3237C72.3963 47.9108 72.6926 48.6935 72.6432 49.5252C72.6926 50.3569 72.3963 51.1397 71.8531 51.7268C71.3099 52.3139 70.5692 52.6074 69.8284 52.5585Z" fill="#2C3235"/>
<path d="M16.1484 43.9473H19.8028L22.4694 49.3778L25.0373 43.9473H28.2966L22.3213 55.3954H22.1731L16.1484 43.9473Z" fill="#2C3235"/>
<path d="M33.2352 52.6563C34.3216 52.7052 35.3587 52.3138 36.1488 51.5799L38.1241 53.5369C37.1364 54.6132 35.6549 55.396 33.334 55.396C29.4821 55.396 26.9636 52.9009 26.9636 49.5251C26.9142 46.3451 29.4821 43.7032 32.7414 43.6543H32.9883C36.8895 43.6543 39.1117 46.7365 38.8648 50.6504H30.3216C30.6673 51.8735 31.6056 52.6563 33.2352 52.6563ZM35.408 48.351C35.2105 47.1768 34.1735 46.2962 32.9389 46.394C31.7043 46.2962 30.5685 47.1279 30.3216 48.351H35.408Z" fill="#2C3235"/>
<path d="M45.4813 52.6563C46.5677 52.7052 47.6047 52.3138 48.3949 51.5799L50.3702 53.5369C49.3825 54.6132 47.901 55.396 45.5801 55.396C41.7282 55.396 39.2097 52.9009 39.2097 49.5251C39.1603 46.3451 41.7282 43.7032 44.9875 43.6543H45.2344C49.1356 43.6543 51.3578 46.7365 51.1109 50.6504H42.5677C42.9134 51.8735 43.8517 52.6563 45.4813 52.6563ZM47.6541 48.351C47.4566 47.1768 46.4196 46.2962 45.185 46.394C43.9504 46.2962 42.8146 47.1279 42.5677 48.351H47.6541Z" fill="#2C3235"/>
<path d="M60.1484 53.8304C59.5558 54.8089 58.3706 55.396 56.6916 55.396C53.778 55.396 51.457 52.9009 51.457 49.5251C51.457 46.1494 53.8274 43.6543 56.6916 43.6543C58.3706 43.6543 59.5064 44.2414 60.1484 45.2199V43.9478H63.4076V62.0007H60.1484V53.8304ZM60.1978 49.5251C60.1978 47.715 59.2101 46.5408 57.5311 46.5408C55.8521 46.5408 54.8151 47.715 54.8151 49.5251C54.8151 51.3353 55.9015 52.5095 57.5311 52.5095C59.1607 52.5095 60.1978 51.3353 60.1978 49.5251Z" fill="#2C3235"/>
</svg>
