<svg width="100" height="100" viewBox="0 0 100 100" fill="none" xmlns="http://www.w3.org/2000/svg">
<rect x="0.5" y="0.5" width="99" height="99" rx="3.5" fill="white" stroke="#EEEEEE"/>
<path d="M50.1655 57.833L39.2126 38.583H28.1773C23.6479 38.583 20.8479 43.583 23.0714 47.4997L39.542 76.4163C41.7655 80.333 47.4479 80.4163 49.7537 76.4163L60.3773 57.833C58.1537 61.833 52.4714 61.7497 50.1655 57.833Z" fill="#8759F2"/>
<path d="M61.2011 38.583H39.2129L50.1658 57.833C52.3894 61.7497 58.0717 61.833 60.3776 57.833L66.307 47.4997C68.5305 43.4997 65.6482 38.583 61.2011 38.583Z" fill="#FF3E80"/>
<path d="M71.8238 20H38.8003C34.2709 20 31.4709 24.9167 33.6944 28.9167L39.2121 38.5833H61.2003C65.7297 38.5833 68.5297 43.5833 66.3062 47.5L76.9297 28.9167C79.1533 25 76.3533 20 71.8238 20Z" fill="#FFC300"/>
<path d="M33.6958 28.9167C32.6252 27.0833 32.6252 24.8333 33.6958 23L23.0723 41.5833C24.1429 39.75 26.037 38.5833 28.1781 38.5833H39.2134L33.6958 28.9167Z" fill="#00D4E6"/>
</svg>
