<svg width="100" height="100" viewBox="0 0 100 100" fill="none" xmlns="http://www.w3.org/2000/svg">
<rect width="100" height="100" rx="4" fill="#FF6F61"/>
<mask id="mask0_657_47916" style="mask-type:alpha" maskUnits="userSpaceOnUse" x="22" y="25" width="39" height="50">
<path d="M33.2466 25C39.3271 25 44.2269 29.8773 44.2269 35.8645C44.2269 39.7488 45.26 43.5456 47.2377 46.875C49.1563 50.1168 51.9309 52.8329 55.2073 54.7021C60.4613 57.7103 62.2618 64.34 59.192 69.5678C57.1554 73.0432 53.4658 75 49.6876 75C48.9497 75 48.2117 74.9124 47.4738 74.7664H47.4443C46.8835 74.6495 46.3226 74.4743 45.7618 74.2699C38.8844 71.9334 33.7484 66.1799 29.8522 60.3388C29.3209 59.5502 28.7896 58.7617 28.3173 57.9439C23.9488 50.8762 20.6724 40.3914 22.532 33.4696C23.6536 28.6507 28.0221 25.0292 33.2466 25Z" fill="white"/>
</mask>
<g mask="url(#mask0_657_47916)">
<path d="M22 25H60.6909V75H22V25Z" fill="white"/>
</g>
<mask id="mask1_657_47916" style="mask-type:alpha" maskUnits="userSpaceOnUse" x="55" y="25" width="23" height="22">
<path d="M66.8 25C72.9856 25 78 29.9249 78 36C78 42.0751 72.9856 47 66.8 47C60.6144 47 55.6 42.0751 55.6 36C55.6 29.9249 60.6144 25 66.8 25Z" fill="white"/>
</mask>
<g mask="url(#mask1_657_47916)">
<path d="M55.6 25H78V47H55.6V25Z" fill="white"/>
</g>
</svg>
