<svg width="120" height="120" viewBox="0 0 120 120" fill="none"
  xmlns="http://www.w3.org/2000/svg">
  <rect width="120" height="120" fill="#7F54B3"/>
  <g clip-path="url(#clip0_1_3)">
    <path d="M25.7962 35H94.1708C98.4978 35 102.001 38.4188 102.001 42.6424V68.1166C102.001 72.3399 98.4982 75.759 94.1708 75.759H69.6511L73.0166 83.8034L58.2152 75.759H25.831C21.504 75.759 18.0009 72.3402 18.0009 68.1166V42.6424C17.9666 38.4524 21.4695 35 25.7965 35H25.7962Z" fill="white"/>
    <path d="M22.7834 41.9657C23.2614 41.3325 23.9785 40.9992 24.9346 40.9325C26.6761 40.7992 27.6663 41.5991 27.9054 43.3321C28.9639 50.2978 30.1249 56.1967 31.3543 61.0295L38.8323 47.1317C39.5152 45.8653 40.3688 45.1987 41.3932 45.1321C42.8957 45.0321 43.8176 45.9652 44.1932 47.9316C45.0469 52.3644 46.1396 56.1303 47.4371 59.3297C48.325 50.8642 49.8274 44.7655 51.9446 40.9992C52.4568 40.0661 53.208 39.5995 54.1983 39.5328C54.9836 39.4661 55.7007 39.6994 56.3495 40.1994C56.9983 40.6993 57.3397 41.3325 57.408 42.099C57.4422 42.699 57.3397 43.1989 57.0665 43.6988C55.7348 46.0984 54.6422 50.1312 53.7544 55.73C52.9008 61.1626 52.5935 65.3952 52.7984 68.4281C52.8666 69.2613 52.7301 69.9945 52.3886 70.6277C51.9788 71.3609 51.3642 71.7609 50.5788 71.8275C49.691 71.8942 48.7691 71.4943 47.8813 70.5944C44.7057 67.4282 42.1788 62.6958 40.3351 56.3966C38.1156 60.6625 36.4767 63.8622 35.4181 65.9951C33.4035 69.7611 31.6962 71.6942 30.262 71.7941C29.34 71.8608 28.5546 71.0942 27.8717 69.4945C26.1302 65.1283 24.2522 56.6965 22.2375 44.1986C22.1009 43.3321 22.3058 42.5655 22.7838 41.9656L22.7834 41.9657ZM96.1653 47.1981C94.9361 45.0985 93.1263 43.8319 90.702 43.3319C90.0532 43.1986 89.4386 43.132 88.8581 43.132C85.5801 43.132 82.9168 44.7984 80.8338 48.1312C79.0582 50.9641 78.1704 54.0971 78.1704 57.5296C78.1704 60.0959 78.7167 62.2954 79.8094 64.1286C81.0387 66.2283 82.8484 67.4949 85.2727 67.9948C85.9215 68.1281 86.5361 68.1948 87.1166 68.1948C90.4287 68.1948 93.0921 66.5284 95.1409 63.1955C96.9165 60.3293 97.8043 57.1964 97.8043 53.7638C97.8385 51.1642 97.258 48.998 96.1653 47.1981ZM91.8629 56.43C91.3849 58.6296 90.5312 60.2625 89.2678 61.3626C88.2776 62.2292 87.3556 62.5958 86.502 62.4291C85.6824 62.2625 84.9995 61.5626 84.4873 60.2628C84.0776 59.2297 83.8727 58.1965 83.8727 57.23C83.8727 56.3968 83.941 55.5636 84.1117 54.7971C84.419 53.4306 84.9995 52.0975 85.9215 50.8309C87.0483 49.1979 88.2434 48.5313 89.4727 48.7646C90.2923 48.9313 90.9752 49.6311 91.4874 50.9309C91.8971 51.9641 92.102 52.9973 92.102 53.9638C92.102 54.8303 92.0337 55.6635 91.863 56.43L91.8629 56.43ZM74.7896 47.1981C73.5603 45.0985 71.7164 43.8319 69.3263 43.3319C68.6775 43.1986 68.0629 43.132 67.4824 43.132C64.2044 43.132 61.541 44.7984 59.4581 48.1312C57.6825 50.9641 56.7947 54.0971 56.7947 57.5296C56.7947 60.0959 57.341 62.2954 58.4337 64.1286C59.663 66.2283 61.4727 67.4949 63.897 67.9948C64.5458 68.1281 65.1604 68.1948 65.7409 68.1948C69.053 68.1948 71.7164 66.5284 73.7652 63.1955C75.5408 60.3293 76.4286 57.1964 76.4286 53.7638C76.4286 51.1642 75.8823 48.998 74.7896 47.1981ZM70.4531 56.43C69.975 58.6296 69.1214 60.2625 67.858 61.3626C66.8677 62.2292 65.9458 62.5958 65.0921 62.4291C64.2726 62.2625 63.5897 61.5626 63.0775 60.2628C62.6677 59.2297 62.4628 58.1965 62.4628 57.23C62.4628 56.3968 62.5311 55.5636 62.7019 54.7971C63.0092 53.4306 63.5897 52.0975 64.5116 50.8309C65.6384 49.1979 66.8336 48.5313 68.0629 48.7646C68.8824 48.9313 69.5654 49.6311 70.0775 50.9309C70.4873 51.9641 70.6922 52.9973 70.6922 53.9638C70.7263 54.8303 70.6239 55.6635 70.4532 56.43L70.4531 56.43Z" fill="#7F54B3"/>
  </g>
  <defs>
    <clipPath id="clip0_1_3">
      <rect width="84" height="49" fill="white" transform="translate(18 35)"/>
    </clipPath>
  </defs>
</svg>
