<svg width="120" height="120" viewBox="0 0 120 120" fill="none"
  xmlns="http://www.w3.org/2000/svg">
  <rect width="120" height="120" fill="#4DBDE7"/>
  <path d="M36.0332 71.3066C32.1908 67.4792 28.3612 63.636 24.5241 59.8039C28.4688 55.8319 32.443 51.8898 36.3901 47.9211C37.1084 47.2147 37.274 46.0216 36.7252 45.1714C36.0783 44.0376 34.3306 43.8205 33.4146 44.7423C29.4282 48.7207 25.4451 52.7029 21.4659 56.6893C17.4956 52.7939 13.5728 48.8523 9.64022 44.9159C9.1139 44.3655 8.32723 44.0439 7.56466 44.1974C6.47024 44.3856 5.63699 45.5065 5.81134 46.6105C5.92705 47.5113 6.67515 48.1058 7.26978 48.7126C10.9074 52.3501 14.5562 55.9815 18.1818 59.6367C18.202 59.6889 18.2421 59.7973 18.2631 59.8512C14.3505 63.8578 10.3401 67.7765 6.39954 71.7606C5.8451 72.3222 5.65145 73.2005 5.91259 73.9477C6.2099 74.9499 7.33567 75.5847 8.35295 75.3876C9.19344 75.2736 9.7061 74.5319 10.2806 73.9919C14.0356 70.3254 17.7126 66.585 21.4322 62.8846C25.3879 66.8082 29.3148 70.7617 33.257 74.6966C33.8108 75.2841 34.6704 75.591 35.4595 75.3458C36.4479 75.1169 37.1543 74.0859 37.0426 73.0816C37.0346 72.3528 36.5275 71.7797 36.0332 71.3066" fill="white"/>
  <path d="M41.4443 57.1651C42.1427 54.4017 43.8774 51.9058 46.2784 50.3591C49.1389 48.4572 52.8947 47.9943 56.1307 49.1498C59.72 50.355 62.5355 53.4976 63.43 57.1666C56.1025 57.1651 48.7742 57.1666 41.4443 57.1651V57.1651ZM63.5384 48.6516C61.1945 46.261 58.018 44.7205 54.7035 44.2811C50.6753 43.7002 46.4222 44.7423 43.1574 47.1826C38.0036 50.9135 35.5841 57.9645 37.3608 64.0738C38.333 67.5998 40.6215 70.7191 43.6332 72.7786C46.5435 74.7995 50.1586 75.7719 53.6902 75.481C56.1901 75.2496 58.6514 74.4702 60.7848 73.1386C62.4576 72.0916 63.8422 70.6492 65.0571 69.1105C65.5794 68.4676 65.6798 67.5677 65.4613 66.7858C65.0828 65.5645 63.4645 64.9643 62.3693 65.6135C61.6743 65.9848 61.3342 66.7319 60.8249 67.2945C59.4082 68.891 57.5593 70.123 55.4942 70.6959C52.0229 71.6874 48.0623 70.8717 45.3142 68.5135C43.216 66.7496 41.6693 64.249 41.2844 61.5129C48.513 61.5275 55.745 61.509 62.976 61.521C64.0993 61.5693 65.278 61.4125 66.2424 60.7938C67.5159 59.9958 68.1667 58.3872 67.88 56.9232C67.2789 53.8247 65.8124 50.8596 63.5384 48.6516" fill="white"/>
  <path d="M108.467 66.2256C106.86 68.5398 104.346 70.2048 101.588 70.7713C99.1136 71.3146 96.4579 70.9466 94.2095 69.7854C91.1867 68.2666 88.9278 65.3057 88.2899 61.9815C87.6446 58.9142 88.408 55.5853 90.3059 53.0936C91.9717 50.8435 94.4988 49.2543 97.255 48.7583C99.5314 48.3317 101.945 48.6314 104.035 49.6325C107.13 51.0694 109.506 53.9878 110.234 57.3305C110.953 60.3655 110.276 63.6905 108.467 66.2256V66.2256ZM113.928 54.0964C112.635 50.7222 110.118 47.8392 106.962 46.0849C104.023 44.4216 100.533 43.7788 97.1906 44.2239C92.0867 44.8756 87.4332 48.2224 85.2019 52.8564C83.3738 56.5223 83.0981 60.9118 84.4023 64.7873C85.3866 67.783 87.3328 70.4338 89.8408 72.3285C92.5567 74.3953 95.9677 75.5347 99.3818 75.4824C102.783 75.4987 106.166 74.3173 108.858 72.2483C111.596 70.1495 113.623 67.1242 114.483 63.779C115.327 60.601 115.135 57.1546 113.928 54.0964Z" fill="white"/>
  <path d="M84.579 47.1586C84.9647 46.0319 84.219 44.6547 83.0362 44.4282C80.7157 44.1349 78.2955 44.7279 76.4232 46.1413C76.0817 45.0163 74.8602 44.2441 73.7031 44.5985C72.7334 44.8388 72.0737 45.8198 72.1324 46.8049C72.1243 55.5026 72.1243 64.1968 72.1324 72.8951C72.0439 74.1085 73.0805 75.2673 74.3139 75.2319C75.471 75.2632 76.518 74.2451 76.4754 73.08C76.4915 68.0322 76.4779 62.9794 76.4835 57.9291C76.4915 56.0465 76.4071 54.1332 76.8169 52.2819C77.0539 51.1754 77.6726 50.11 78.6732 49.5371C79.8704 48.87 81.267 48.6804 82.6184 48.6154C83.4904 48.6049 84.3476 48.0168 84.579 47.1586" fill="white"/>
</svg>
