<svg width="100" height="100" viewBox="0 0 100 100" fill="none" xmlns="http://www.w3.org/2000/svg">
<rect width="100" height="100" rx="4" fill="#FFD430"/>
<path d="M61.6667 25H38.3333C36.4833 25 35 26.4833 35 28.3333V51.6667C35 53.5167 36.4833 55 38.3333 55H61.6667C63.5167 55 65 53.5167 65 51.6667V28.3333C65 26.4833 63.5167 25 61.6667 25ZM61.6667 51.6667H38.3333V28.3333H61.6667V51.6667ZM45 50H40V46.6667H45V50ZM51.6667 50H46.6667V46.6667H51.6667V50ZM45 45H40V41.6667H45V45ZM51.6667 45H46.6667V41.6667H51.6667V45ZM45 40H40V36.6667H45V40ZM51.6667 40H46.6667V36.6667H51.6667V40Z" fill="white"/>
<path d="M44.3694 70.365H41.5944L39.4944 73.815L37.3944 70.365H34.5444L37.9794 75.675L34.5444 81H37.3344L39.4194 77.55L41.5194 81H44.3994L40.9494 75.705L44.3694 70.365ZM56.9891 81V70.365H53.7341L50.9591 77.55L48.0341 70.365H44.9441V81H47.1941V74.04L49.9691 81H51.8891L54.6641 73.95V81H56.9891ZM65.3595 81V78.735H60.7695V70.365H58.3995V81H65.3595Z" fill="white"/>
</svg>
