<svg width="100" height="100" viewBox="0 0 100 100" fill="none" xmlns="http://www.w3.org/2000/svg">
<rect width="100" height="100" rx="4" fill="#2F84ED"/>
<path d="M50 77C64.9117 77 77 64.9117 77 50C77 35.0883 64.9117 23 50 23C35.0883 23 23 35.0883 23 50C23 64.9117 35.0883 77 50 77Z" fill="white"/>
<path fill-rule="evenodd" clip-rule="evenodd" d="M34.8633 38.627H38.0542L40.5087 43.127L42.8815 38.627H45.9087L41.8996 45.827V49.6724H38.9542V45.9088L34.8633 38.627Z" fill="#2F84ED"/>
<path d="M45.0078 44.1904C45.0078 40.8358 47.7078 38.5449 50.8169 38.5449C53.926 38.5449 56.626 40.9176 56.626 44.1904C56.626 47.5449 53.926 49.9176 50.8169 49.9176C47.7078 49.8358 45.0078 47.5449 45.0078 44.1904ZM53.5987 44.1904C53.5987 42.4722 52.5351 41.0813 50.7351 41.0813C48.9351 41.0813 47.8714 42.4722 47.8714 44.1904C47.8714 45.9086 48.9351 47.2995 50.7351 47.2995C52.6169 47.2995 53.5987 45.9086 53.5987 44.1904Z" fill="#2F84ED"/>
<path fill-rule="evenodd" clip-rule="evenodd" d="M59.3265 41.0815H56.4629V38.627H65.1356V41.0815H62.272V49.6724H59.3265V41.0815Z" fill="#2F84ED"/>
<path d="M38.6273 61.7818H35.7637V50.7363H39.8546C42.8 50.7363 44.4364 52.6181 44.4364 55.0727C44.4364 57.5272 42.8 59.4091 39.8546 59.4091H38.6273V61.7818ZM39.6909 56.8727C41 56.8727 41.4909 56.1363 41.4909 55.0727C41.4909 54.0091 41 53.1909 39.6909 53.1909H38.6273V56.8727H39.6909Z" fill="#2F84ED"/>
<path d="M44.9277 56.2998C44.9277 52.9452 47.6277 50.6543 50.7368 50.6543C53.8459 50.6543 56.5459 53.027 56.5459 56.2998C56.5459 59.6543 53.8459 62.027 50.7368 62.027C47.6277 61.9452 44.9277 59.6543 44.9277 56.2998ZM53.6005 56.2998C53.6005 54.5816 52.5368 53.1907 50.7368 53.1907C48.9368 53.1907 47.8732 54.5816 47.8732 56.2998C47.8732 58.0179 48.9368 59.4088 50.7368 59.4088C52.5368 59.4088 53.6005 58.0179 53.6005 56.2998Z" fill="#2F84ED"/>
<path fill-rule="evenodd" clip-rule="evenodd" d="M56.5449 60.3903C56.5449 59.4085 57.2813 58.7539 58.0995 58.7539C58.9177 58.7539 59.654 59.4085 59.654 60.3903C59.654 61.3721 58.9177 62.0266 58.0995 62.0266C57.2813 61.9448 56.5449 61.2903 56.5449 60.3903Z" fill="#2F84ED"/>
</svg>
