<svg width="24" height="24" viewBox="0 0 24 24" fill="none" xmlns="http://www.w3.org/2000/svg">
<path d="M22.0001 7.99948C21.9999 7.82101 21.9519 7.64584 21.8612 7.49215C21.7705 7.33847 21.6402 7.21186 21.4841 7.12548L12.4621 2.12548C12.3138 2.04381 12.1473 2.00098 11.9781 2.00098C11.8088 2.00098 11.6423 2.04381 11.4941 2.12548L2.51607 7.08548C2.3601 7.17184 2.23006 7.29833 2.13941 7.45185C2.04876 7.60536 2.0008 7.78032 2.00049 7.9586C2.00018 8.13688 2.04754 8.312 2.13767 8.46583C2.22779 8.61965 2.3574 8.74658 2.51307 8.83348L11.5351 13.8735C11.6836 13.9569 11.8511 14.0009 12.0214 14.001C12.1918 14.0012 12.3594 13.9576 12.5081 13.8745L21.4861 8.87448C21.642 8.78776 21.7719 8.66089 21.8623 8.50703C21.9527 8.35317 22.0002 8.17792 22.0001 7.99948ZM12.0231 11.8545L5.06007 7.96548L11.9771 4.14348L18.9411 8.00248L12.0231 11.8545Z" fill="black"/>
<path d="M20.5152 11.126L12.0002 15.856L3.48516 11.126L2.51416 12.874L11.5142 17.874C11.6627 17.9565 11.8298 17.9997 11.9997 17.9997C12.1695 17.9997 12.3366 17.9565 12.4852 17.874L21.4852 12.874L20.5152 11.126Z" fill="black"/>
<path d="M20.5152 15.126L12.0002 19.856L3.48516 15.126L2.51416 16.874L11.5142 21.874C11.6627 21.9565 11.8298 21.9997 11.9997 21.9997C12.1695 21.9997 12.3366 21.9565 12.4852 21.874L21.4852 16.874L20.5152 15.126Z" fill="black"/>
</svg>
