<svg width="26" height="26" viewBox="0 0 26 26" fill="none" xmlns="http://www.w3.org/2000/svg">
<path d="M21.64 3.28003H4.36C3.16876 3.28003 2.2 4.24879 2.2 5.44003V20.56C2.2 21.7513 3.16876 22.72 4.36 22.72H21.64C22.8312 22.72 23.8 21.7513 23.8 20.56V5.44003C23.8 4.24879 22.8312 3.28003 21.64 3.28003ZM4.36 20.56V7.60003H21.64L21.6422 20.56H4.36Z" fill="black"/>
<path d="M10.0764 10.0764L6.07288 14.08L10.0764 18.0835L11.6036 16.5564L9.12712 14.08L11.6036 11.6035L10.0764 10.0764ZM15.9236 10.0764L14.3964 11.6035L16.8729 14.08L14.3964 16.5564L15.9236 18.0835L19.9271 14.08L15.9236 10.0764Z" fill="black"/>
</svg>
