<svg width="270" height="276" viewBox="0 0 270 276" fill="none" xmlns="http://www.w3.org/2000/svg">
<path fill-rule="evenodd" clip-rule="evenodd" d="M0.460938 73.1681C0.460938 33.0125 33.0135 0.459961 73.1691 0.459961H196.833C236.988 0.459961 269.541 33.0125 269.541 73.1681V202.768C269.541 242.924 236.988 275.476 196.833 275.476H73.1691C33.0135 275.476 0.460938 242.924 0.460938 202.768V73.1681ZM73.1691 29.5398C49.0738 29.5398 29.5408 49.0728 29.5408 73.1681V202.768C29.5408 226.863 49.0738 246.396 73.1691 246.396H196.833C220.928 246.396 240.461 226.863 240.461 202.768V73.1681C240.461 49.0729 220.928 29.5398 196.833 29.5398H73.1691Z" fill="#131113"/>
<path d="M60.4395 206.864V65.1537H86.0803V121.133C88.2985 117.74 91.887 114.739 96.8455 112.129C101.934 109.389 108.067 108.019 115.244 108.019C122.291 108.019 128.554 109.324 134.034 111.934C139.515 114.413 144.147 117.936 147.931 122.503C151.846 126.94 154.782 132.225 156.739 138.358C158.697 144.49 159.675 151.145 159.675 158.322C159.675 165.63 158.566 172.415 156.348 178.678C154.26 184.811 151.194 190.161 147.148 194.728C143.234 199.295 138.471 202.884 132.86 205.494C127.249 207.973 121.051 209.213 114.266 209.213C107.611 209.213 101.804 207.908 96.8455 205.298C92.0174 202.688 88.2985 199.295 85.6888 195.12V206.864H60.4395ZM133.643 158.518C133.643 149.645 131.294 142.925 126.597 138.358C122.03 133.66 116.419 131.311 109.764 131.311C106.502 131.311 103.37 131.898 100.369 133.073C97.4979 134.247 94.9534 136.009 92.7351 138.358C90.6473 140.576 88.951 143.381 87.6461 146.774C86.3412 150.167 85.6888 154.081 85.6888 158.518C85.6888 162.824 86.3412 166.673 87.6461 170.066C88.951 173.459 90.6473 176.33 92.7351 178.678C94.9534 181.027 97.4979 182.854 100.369 184.159C103.37 185.333 106.502 185.92 109.764 185.92C116.419 185.92 122.03 183.572 126.597 178.874C131.294 174.177 133.643 167.391 133.643 158.518Z" fill="#131113"/>
<path d="M170.5 206.864V110.564H196.532V206.864H170.5ZM167.368 79.0507C167.368 74.4836 168.934 70.6342 172.066 67.5025C175.198 64.3708 178.982 62.8049 183.418 62.8049C187.985 62.8049 191.77 64.3708 194.771 67.5025C197.902 70.6342 199.468 74.4836 199.468 79.0507C199.468 83.3568 197.902 87.0757 194.771 90.2074C191.77 93.3391 187.985 94.905 183.418 94.905C178.982 94.905 175.198 93.3391 172.066 90.2074C168.934 87.0757 167.368 83.3568 167.368 79.0507Z" fill="#131113"/>
</svg>
