<svg width="13" height="12" viewBox="0 0 13 12" fill="none" xmlns="http://www.w3.org/2000/svg">
<mask id="path-2-inside-1_13806_76125" fill="white">
<path d="M2.27839 8.63092C2.16786 8.60132 2.06523 8.57171 1.96063 8.54408C1.58958 8.44342 1.21852 8.34276 0.84747 8.24013C0.671812 8.19079 0.56326 8.07434 0.525759 7.89671C0.50997 7.82763 0.515891 7.75855 0.533654 7.69145C0.652075 7.24934 0.770496 6.80526 0.890891 6.36316C0.912602 6.27829 0.956023 6.20526 1.01721 6.14408C1.32905 5.83224 1.64089 5.5204 1.95273 5.20855C2.05142 5.10987 2.16984 5.06053 2.308 5.07237C2.34944 5.07434 2.38892 5.08619 2.42839 5.09605C2.66523 5.15921 2.90208 5.22237 3.13694 5.28553C3.14879 5.28948 3.1626 5.29145 3.18234 5.2954C3.21984 5.15921 3.25536 5.02303 3.29286 4.88487C3.27905 4.88092 3.26918 4.875 3.25931 4.87303C2.79352 4.74869 2.32971 4.62434 1.86392 4.5C1.66458 4.44671 1.53826 4.30066 1.52247 4.09737C1.51852 4.04605 1.52642 3.99277 1.54023 3.94145C1.63102 3.59211 1.72576 3.24277 1.81852 2.89342C1.84221 2.80066 1.86786 2.70987 1.89155 2.61711C1.91326 2.53619 1.95273 2.46513 2.01392 2.40592C2.32971 2.09013 2.64352 1.77434 2.95931 1.46053C3.08365 1.33816 3.23168 1.30066 3.39944 1.34408C3.64615 1.40724 3.89089 1.47434 4.1376 1.54145C4.14944 1.5454 4.16326 1.54737 4.17905 1.55132C4.183 1.53948 4.18892 1.53158 4.19287 1.51974C4.2126 1.44671 4.23234 1.37369 4.25208 1.30066C4.27379 1.21776 4.31523 1.14671 4.37642 1.08553C4.69023 0.773686 5.00208 0.45987 5.31589 0.148028C5.44023 0.0236861 5.58826 -0.0177612 5.75997 0.0276335C6.20208 0.146055 6.64418 0.266449 7.08826 0.380923C7.31918 0.440134 7.48102 0.678949 7.40997 0.939476C7.2955 1.3579 7.18497 1.77632 7.0705 2.19671C7.06063 2.23421 7.05076 2.27171 7.03892 2.31711C7.33694 2.39605 7.63102 2.475 7.92905 2.55395C7.94681 2.48882 7.96458 2.42763 7.98037 2.36448C7.98629 2.34079 7.99418 2.31711 8.0001 2.29342C8.01984 2.21448 8.05931 2.14737 8.11655 2.09013C8.43234 1.77434 8.74813 1.45658 9.06589 1.14079C9.18431 1.02237 9.33037 0.980923 9.49221 1.02237C9.94418 1.14079 10.3942 1.25921 10.8442 1.38158C11.085 1.44671 11.2192 1.68553 11.154 1.92829C11.0376 2.36842 10.9172 2.80658 10.8008 3.24671C10.7948 3.26645 10.7909 3.28421 10.785 3.3079C10.8047 3.31382 10.8244 3.32171 10.8442 3.32763C11.2804 3.44408 11.7165 3.56053 12.1527 3.67698C12.3442 3.72829 12.4606 3.85263 12.4962 4.04803C12.506 4.10724 12.5001 4.16645 12.4863 4.22369C12.3659 4.67369 12.2455 5.12171 12.1251 5.57171C12.1034 5.64869 12.0639 5.71579 12.0067 5.77303C11.6929 6.08487 11.381 6.39869 11.0672 6.71053C10.9409 6.83487 10.7929 6.87829 10.6192 6.8329C10.3942 6.77369 10.1692 6.7125 9.94221 6.65329C9.92642 6.64934 9.91063 6.6454 9.88892 6.63948C9.85142 6.77763 9.81589 6.91184 9.77839 7.05198C9.79813 7.0579 9.81589 7.06382 9.83168 7.06777C10.2698 7.18619 10.706 7.30658 11.1442 7.425C11.3159 7.47237 11.4284 7.57698 11.4777 7.74869C11.4994 7.82566 11.4975 7.90066 11.4758 7.97763C11.3869 8.30527 11.3001 8.63092 11.2133 8.95856C11.1817 9.075 11.1501 9.18948 11.1205 9.30592C11.0968 9.39869 11.0494 9.47369 10.9804 9.53882C10.7613 9.75395 10.5442 9.97303 10.3271 10.1901C10.2343 10.2829 10.1416 10.3776 10.0468 10.4684C9.92444 10.5868 9.78037 10.6263 9.61655 10.5849C9.38563 10.5237 9.15668 10.4625 8.92576 10.4013C8.91392 10.3974 8.9001 10.3954 8.88431 10.3914C8.87839 10.4033 8.87247 10.4151 8.8705 10.427C8.84681 10.5138 8.82313 10.6007 8.80142 10.6895C8.77773 10.7803 8.73234 10.8553 8.66721 10.9204C8.36129 11.2243 8.05734 11.5283 7.75339 11.8342C7.68234 11.9053 7.60537 11.9586 7.50668 11.9783C7.43563 11.9921 7.36655 11.9901 7.29747 11.9724C6.85339 11.8539 6.40931 11.7355 5.96523 11.6171C5.758 11.5618 5.62181 11.3822 5.62971 11.173C5.63168 11.1316 5.63958 11.0921 5.64944 11.0526C5.77181 10.5967 5.89418 10.1408 6.01655 9.68684C6.0205 9.66908 6.02444 9.65329 6.03037 9.62961C5.73234 9.55066 5.43826 9.47171 5.14023 9.39277C5.11655 9.47763 5.09681 9.55658 5.0751 9.63553C5.06721 9.66711 5.05931 9.69869 5.04944 9.73026C5.02773 9.79934 4.99023 9.85855 4.94089 9.90987C4.6251 10.2257 4.30931 10.5395 3.9955 10.8553C3.92642 10.9243 3.84352 10.9697 3.74681 10.9855C3.68168 10.9974 3.61852 10.9914 3.55536 10.9757C3.11129 10.8572 2.66523 10.7388 2.22115 10.6184C1.9705 10.5513 1.83629 10.3145 1.90339 10.0638C1.97444 9.79342 2.04747 9.525 2.1205 9.25461C2.17379 9.05921 2.2251 8.86382 2.27642 8.66842C2.27247 8.65855 2.27444 8.64869 2.27839 8.63092ZM7.42379 8.56974C7.41786 8.60132 7.41194 8.63487 7.40405 8.66645C7.29155 9.08684 7.17905 9.50724 7.06458 9.92763C7.03892 10.0204 7.01523 10.1151 6.98958 10.2079C6.97773 10.2533 6.98365 10.2612 7.02708 10.275C7.033 10.277 7.03892 10.2789 7.04681 10.2809C7.16523 10.3125 7.28168 10.3441 7.4001 10.3757C7.708 10.4586 8.01589 10.5395 8.32379 10.6224C8.383 10.6382 8.39089 10.6342 8.40668 10.575C8.40668 10.5711 8.40865 10.5691 8.41063 10.5651C8.49352 10.2533 8.57642 9.94342 8.66129 9.63158C8.71655 9.42434 8.77181 9.21908 8.82708 9.01382C8.85668 8.90329 8.94747 8.83027 9.05997 8.82632C9.09944 8.82434 9.13892 8.83421 9.17642 8.84408C9.66786 8.97434 10.1573 9.10658 10.6488 9.23684C10.706 9.25263 10.7139 9.24671 10.7277 9.19145C10.8442 8.76119 10.9587 8.33092 11.0731 7.90066C11.0869 7.8454 11.083 7.8375 11.0258 7.82171C10.8481 7.77237 10.6705 7.725 10.4929 7.67566C10.1751 7.58882 9.85931 7.50198 9.54155 7.41711C9.49418 7.40526 9.45076 7.3875 9.41523 7.35395C9.33826 7.27895 9.31655 7.19013 9.34418 7.0875C9.43102 6.76777 9.51589 6.45 9.60076 6.13027C9.67773 5.84408 9.75471 5.55987 9.82971 5.27369C9.8455 5.21842 9.87115 5.16908 9.91458 5.13355C9.9876 5.07434 10.0685 5.0625 10.1613 5.08619C10.6172 5.20855 11.0731 5.33092 11.5271 5.45132C11.5744 5.46316 11.6218 5.47698 11.6692 5.48882C11.7047 5.49671 11.7146 5.49079 11.7284 5.45527C11.7304 5.44934 11.7323 5.44342 11.7343 5.43553C11.8488 5.00724 11.9652 4.57895 12.0797 4.15066C12.0955 4.09342 12.0896 4.08553 12.0343 4.06974C11.8883 4.03027 11.7422 3.99079 11.5962 3.95329C11.2429 3.85855 10.8876 3.76382 10.5343 3.66908C10.4692 3.65132 10.4159 3.61974 10.3784 3.5625C10.331 3.49145 10.3251 3.41645 10.3468 3.33553C10.479 2.84408 10.6113 2.35263 10.7435 1.86119C10.7633 1.78619 10.7613 1.78224 10.6883 1.7625C10.3981 1.68553 10.108 1.60855 9.81589 1.52961C9.67971 1.49408 9.54352 1.45658 9.40734 1.42105C9.35997 1.40921 9.3501 1.41513 9.33629 1.46053C9.33431 1.46645 9.33234 1.47237 9.33037 1.48027C9.23365 1.83948 9.13694 2.19671 9.04221 2.55592C9.00471 2.69408 8.96918 2.83224 8.93168 2.9704C8.90405 3.06908 8.84286 3.13421 8.74221 3.15987C8.69089 3.17369 8.64155 3.16579 8.59221 3.15198C8.12444 3.02763 7.65668 2.90132 7.18694 2.77698C7.05273 2.74145 6.9205 2.70592 6.78629 2.6704C6.69155 2.64474 6.62839 2.58553 6.59879 2.49079C6.58102 2.43553 6.59089 2.38027 6.60471 2.325C6.73102 1.85329 6.85931 1.38355 6.98563 0.911844C6.99352 0.884212 7.00142 0.854607 7.00734 0.825002C7.01326 0.793423 7.00734 0.783554 6.97773 0.773686C6.96984 0.771712 6.96194 0.767765 6.95405 0.765791C6.52576 0.651318 6.09747 0.536844 5.66918 0.42237C5.61392 0.406581 5.60405 0.412502 5.58826 0.467765C5.56063 0.568423 5.53497 0.667107 5.50734 0.767765C5.40076 1.16448 5.29418 1.56119 5.1876 1.9579C5.17576 2.00329 5.15997 2.04474 5.12642 2.08027C5.04944 2.16119 4.95865 2.18092 4.85208 2.15329C4.43168 2.04079 4.01129 1.92829 3.59089 1.81579C3.49418 1.79013 3.39747 1.76448 3.30076 1.73882C3.25339 1.72698 3.24352 1.7329 3.22971 1.78027C3.22971 1.78421 3.22773 1.78619 3.22773 1.79013C3.12708 2.17105 3.02444 2.55198 2.92379 2.9329C2.90997 2.98619 2.89418 3.04145 2.88234 3.09474C2.87444 3.12632 2.88234 3.13619 2.90997 3.14803C2.91984 3.15198 2.92971 3.15395 2.9376 3.15592C3.45076 3.29211 3.96194 3.43224 4.4751 3.56645C4.6251 3.60592 4.71392 3.74803 4.6705 3.90198C4.5501 4.33816 4.43365 4.77829 4.31721 5.21645C4.27379 5.38224 4.22839 5.54605 4.18497 5.71184C4.16129 5.79869 4.10997 5.86184 4.02708 5.89342C3.96787 5.91711 3.90865 5.91119 3.84747 5.8954C3.39747 5.775 2.94944 5.65461 2.49944 5.53421C2.43036 5.51645 2.35931 5.49671 2.29023 5.47895C2.25471 5.46908 2.24286 5.47698 2.23102 5.51053C2.22708 5.5204 2.2251 5.53026 2.22313 5.53816C2.11063 5.9625 1.99615 6.38487 1.88365 6.80921C1.88168 6.81908 1.87773 6.82895 1.87576 6.83684C1.87181 6.86842 1.87773 6.87829 1.90536 6.89013C1.91523 6.89408 1.92708 6.89605 1.93892 6.9C2.24089 6.9829 2.54089 7.06382 2.84287 7.14671C3.0501 7.20395 3.25734 7.26119 3.46655 7.31645C3.54155 7.33619 3.60273 7.37566 3.64023 7.44474C3.67773 7.51184 3.67773 7.58092 3.658 7.65395C3.51984 8.16316 3.38365 8.67237 3.24747 9.18158C3.22773 9.25461 3.22971 9.25855 3.30471 9.27829C3.60865 9.35921 3.91063 9.44013 4.21458 9.52105C4.33497 9.55263 4.45536 9.58619 4.57576 9.61776C4.63497 9.63355 4.64287 9.62961 4.65865 9.56842C4.65865 9.56645 4.65865 9.56448 4.66063 9.56448C4.79879 9.05132 4.93497 8.54013 5.0751 8.02698C5.083 7.99342 5.09681 7.96184 5.11458 7.93224C5.15997 7.85724 5.2705 7.79605 5.40668 7.83355C5.83694 7.95198 6.26918 8.06448 6.70142 8.18092C6.87708 8.22829 7.05471 8.27369 7.23037 8.32303C7.34879 8.35658 7.41984 8.45329 7.42379 8.56974Z"/>
</mask>
<path d="M2.27839 8.63092C2.16786 8.60132 2.06523 8.57171 1.96063 8.54408C1.58958 8.44342 1.21852 8.34276 0.84747 8.24013C0.671812 8.19079 0.56326 8.07434 0.525759 7.89671C0.50997 7.82763 0.515891 7.75855 0.533654 7.69145C0.652075 7.24934 0.770496 6.80526 0.890891 6.36316C0.912602 6.27829 0.956023 6.20526 1.01721 6.14408C1.32905 5.83224 1.64089 5.5204 1.95273 5.20855C2.05142 5.10987 2.16984 5.06053 2.308 5.07237C2.34944 5.07434 2.38892 5.08619 2.42839 5.09605C2.66523 5.15921 2.90208 5.22237 3.13694 5.28553C3.14879 5.28948 3.1626 5.29145 3.18234 5.2954C3.21984 5.15921 3.25536 5.02303 3.29286 4.88487C3.27905 4.88092 3.26918 4.875 3.25931 4.87303C2.79352 4.74869 2.32971 4.62434 1.86392 4.5C1.66458 4.44671 1.53826 4.30066 1.52247 4.09737C1.51852 4.04605 1.52642 3.99277 1.54023 3.94145C1.63102 3.59211 1.72576 3.24277 1.81852 2.89342C1.84221 2.80066 1.86786 2.70987 1.89155 2.61711C1.91326 2.53619 1.95273 2.46513 2.01392 2.40592C2.32971 2.09013 2.64352 1.77434 2.95931 1.46053C3.08365 1.33816 3.23168 1.30066 3.39944 1.34408C3.64615 1.40724 3.89089 1.47434 4.1376 1.54145C4.14944 1.5454 4.16326 1.54737 4.17905 1.55132C4.183 1.53948 4.18892 1.53158 4.19287 1.51974C4.2126 1.44671 4.23234 1.37369 4.25208 1.30066C4.27379 1.21776 4.31523 1.14671 4.37642 1.08553C4.69023 0.773686 5.00208 0.45987 5.31589 0.148028C5.44023 0.0236861 5.58826 -0.0177612 5.75997 0.0276335C6.20208 0.146055 6.64418 0.266449 7.08826 0.380923C7.31918 0.440134 7.48102 0.678949 7.40997 0.939476C7.2955 1.3579 7.18497 1.77632 7.0705 2.19671C7.06063 2.23421 7.05076 2.27171 7.03892 2.31711C7.33694 2.39605 7.63102 2.475 7.92905 2.55395C7.94681 2.48882 7.96458 2.42763 7.98037 2.36448C7.98629 2.34079 7.99418 2.31711 8.0001 2.29342C8.01984 2.21448 8.05931 2.14737 8.11655 2.09013C8.43234 1.77434 8.74813 1.45658 9.06589 1.14079C9.18431 1.02237 9.33037 0.980923 9.49221 1.02237C9.94418 1.14079 10.3942 1.25921 10.8442 1.38158C11.085 1.44671 11.2192 1.68553 11.154 1.92829C11.0376 2.36842 10.9172 2.80658 10.8008 3.24671C10.7948 3.26645 10.7909 3.28421 10.785 3.3079C10.8047 3.31382 10.8244 3.32171 10.8442 3.32763C11.2804 3.44408 11.7165 3.56053 12.1527 3.67698C12.3442 3.72829 12.4606 3.85263 12.4962 4.04803C12.506 4.10724 12.5001 4.16645 12.4863 4.22369C12.3659 4.67369 12.2455 5.12171 12.1251 5.57171C12.1034 5.64869 12.0639 5.71579 12.0067 5.77303C11.6929 6.08487 11.381 6.39869 11.0672 6.71053C10.9409 6.83487 10.7929 6.87829 10.6192 6.8329C10.3942 6.77369 10.1692 6.7125 9.94221 6.65329C9.92642 6.64934 9.91063 6.6454 9.88892 6.63948C9.85142 6.77763 9.81589 6.91184 9.77839 7.05198C9.79813 7.0579 9.81589 7.06382 9.83168 7.06777C10.2698 7.18619 10.706 7.30658 11.1442 7.425C11.3159 7.47237 11.4284 7.57698 11.4777 7.74869C11.4994 7.82566 11.4975 7.90066 11.4758 7.97763C11.3869 8.30527 11.3001 8.63092 11.2133 8.95856C11.1817 9.075 11.1501 9.18948 11.1205 9.30592C11.0968 9.39869 11.0494 9.47369 10.9804 9.53882C10.7613 9.75395 10.5442 9.97303 10.3271 10.1901C10.2343 10.2829 10.1416 10.3776 10.0468 10.4684C9.92444 10.5868 9.78037 10.6263 9.61655 10.5849C9.38563 10.5237 9.15668 10.4625 8.92576 10.4013C8.91392 10.3974 8.9001 10.3954 8.88431 10.3914C8.87839 10.4033 8.87247 10.4151 8.8705 10.427C8.84681 10.5138 8.82313 10.6007 8.80142 10.6895C8.77773 10.7803 8.73234 10.8553 8.66721 10.9204C8.36129 11.2243 8.05734 11.5283 7.75339 11.8342C7.68234 11.9053 7.60537 11.9586 7.50668 11.9783C7.43563 11.9921 7.36655 11.9901 7.29747 11.9724C6.85339 11.8539 6.40931 11.7355 5.96523 11.6171C5.758 11.5618 5.62181 11.3822 5.62971 11.173C5.63168 11.1316 5.63958 11.0921 5.64944 11.0526C5.77181 10.5967 5.89418 10.1408 6.01655 9.68684C6.0205 9.66908 6.02444 9.65329 6.03037 9.62961C5.73234 9.55066 5.43826 9.47171 5.14023 9.39277C5.11655 9.47763 5.09681 9.55658 5.0751 9.63553C5.06721 9.66711 5.05931 9.69869 5.04944 9.73026C5.02773 9.79934 4.99023 9.85855 4.94089 9.90987C4.6251 10.2257 4.30931 10.5395 3.9955 10.8553C3.92642 10.9243 3.84352 10.9697 3.74681 10.9855C3.68168 10.9974 3.61852 10.9914 3.55536 10.9757C3.11129 10.8572 2.66523 10.7388 2.22115 10.6184C1.9705 10.5513 1.83629 10.3145 1.90339 10.0638C1.97444 9.79342 2.04747 9.525 2.1205 9.25461C2.17379 9.05921 2.2251 8.86382 2.27642 8.66842C2.27247 8.65855 2.27444 8.64869 2.27839 8.63092ZM7.42379 8.56974C7.41786 8.60132 7.41194 8.63487 7.40405 8.66645C7.29155 9.08684 7.17905 9.50724 7.06458 9.92763C7.03892 10.0204 7.01523 10.1151 6.98958 10.2079C6.97773 10.2533 6.98365 10.2612 7.02708 10.275C7.033 10.277 7.03892 10.2789 7.04681 10.2809C7.16523 10.3125 7.28168 10.3441 7.4001 10.3757C7.708 10.4586 8.01589 10.5395 8.32379 10.6224C8.383 10.6382 8.39089 10.6342 8.40668 10.575C8.40668 10.5711 8.40865 10.5691 8.41063 10.5651C8.49352 10.2533 8.57642 9.94342 8.66129 9.63158C8.71655 9.42434 8.77181 9.21908 8.82708 9.01382C8.85668 8.90329 8.94747 8.83027 9.05997 8.82632C9.09944 8.82434 9.13892 8.83421 9.17642 8.84408C9.66786 8.97434 10.1573 9.10658 10.6488 9.23684C10.706 9.25263 10.7139 9.24671 10.7277 9.19145C10.8442 8.76119 10.9587 8.33092 11.0731 7.90066C11.0869 7.8454 11.083 7.8375 11.0258 7.82171C10.8481 7.77237 10.6705 7.725 10.4929 7.67566C10.1751 7.58882 9.85931 7.50198 9.54155 7.41711C9.49418 7.40526 9.45076 7.3875 9.41523 7.35395C9.33826 7.27895 9.31655 7.19013 9.34418 7.0875C9.43102 6.76777 9.51589 6.45 9.60076 6.13027C9.67773 5.84408 9.75471 5.55987 9.82971 5.27369C9.8455 5.21842 9.87115 5.16908 9.91458 5.13355C9.9876 5.07434 10.0685 5.0625 10.1613 5.08619C10.6172 5.20855 11.0731 5.33092 11.5271 5.45132C11.5744 5.46316 11.6218 5.47698 11.6692 5.48882C11.7047 5.49671 11.7146 5.49079 11.7284 5.45527C11.7304 5.44934 11.7323 5.44342 11.7343 5.43553C11.8488 5.00724 11.9652 4.57895 12.0797 4.15066C12.0955 4.09342 12.0896 4.08553 12.0343 4.06974C11.8883 4.03027 11.7422 3.99079 11.5962 3.95329C11.2429 3.85855 10.8876 3.76382 10.5343 3.66908C10.4692 3.65132 10.4159 3.61974 10.3784 3.5625C10.331 3.49145 10.3251 3.41645 10.3468 3.33553C10.479 2.84408 10.6113 2.35263 10.7435 1.86119C10.7633 1.78619 10.7613 1.78224 10.6883 1.7625C10.3981 1.68553 10.108 1.60855 9.81589 1.52961C9.67971 1.49408 9.54352 1.45658 9.40734 1.42105C9.35997 1.40921 9.3501 1.41513 9.33629 1.46053C9.33431 1.46645 9.33234 1.47237 9.33037 1.48027C9.23365 1.83948 9.13694 2.19671 9.04221 2.55592C9.00471 2.69408 8.96918 2.83224 8.93168 2.9704C8.90405 3.06908 8.84286 3.13421 8.74221 3.15987C8.69089 3.17369 8.64155 3.16579 8.59221 3.15198C8.12444 3.02763 7.65668 2.90132 7.18694 2.77698C7.05273 2.74145 6.9205 2.70592 6.78629 2.6704C6.69155 2.64474 6.62839 2.58553 6.59879 2.49079C6.58102 2.43553 6.59089 2.38027 6.60471 2.325C6.73102 1.85329 6.85931 1.38355 6.98563 0.911844C6.99352 0.884212 7.00142 0.854607 7.00734 0.825002C7.01326 0.793423 7.00734 0.783554 6.97773 0.773686C6.96984 0.771712 6.96194 0.767765 6.95405 0.765791C6.52576 0.651318 6.09747 0.536844 5.66918 0.42237C5.61392 0.406581 5.60405 0.412502 5.58826 0.467765C5.56063 0.568423 5.53497 0.667107 5.50734 0.767765C5.40076 1.16448 5.29418 1.56119 5.1876 1.9579C5.17576 2.00329 5.15997 2.04474 5.12642 2.08027C5.04944 2.16119 4.95865 2.18092 4.85208 2.15329C4.43168 2.04079 4.01129 1.92829 3.59089 1.81579C3.49418 1.79013 3.39747 1.76448 3.30076 1.73882C3.25339 1.72698 3.24352 1.7329 3.22971 1.78027C3.22971 1.78421 3.22773 1.78619 3.22773 1.79013C3.12708 2.17105 3.02444 2.55198 2.92379 2.9329C2.90997 2.98619 2.89418 3.04145 2.88234 3.09474C2.87444 3.12632 2.88234 3.13619 2.90997 3.14803C2.91984 3.15198 2.92971 3.15395 2.9376 3.15592C3.45076 3.29211 3.96194 3.43224 4.4751 3.56645C4.6251 3.60592 4.71392 3.74803 4.6705 3.90198C4.5501 4.33816 4.43365 4.77829 4.31721 5.21645C4.27379 5.38224 4.22839 5.54605 4.18497 5.71184C4.16129 5.79869 4.10997 5.86184 4.02708 5.89342C3.96787 5.91711 3.90865 5.91119 3.84747 5.8954C3.39747 5.775 2.94944 5.65461 2.49944 5.53421C2.43036 5.51645 2.35931 5.49671 2.29023 5.47895C2.25471 5.46908 2.24286 5.47698 2.23102 5.51053C2.22708 5.5204 2.2251 5.53026 2.22313 5.53816C2.11063 5.9625 1.99615 6.38487 1.88365 6.80921C1.88168 6.81908 1.87773 6.82895 1.87576 6.83684C1.87181 6.86842 1.87773 6.87829 1.90536 6.89013C1.91523 6.89408 1.92708 6.89605 1.93892 6.9C2.24089 6.9829 2.54089 7.06382 2.84287 7.14671C3.0501 7.20395 3.25734 7.26119 3.46655 7.31645C3.54155 7.33619 3.60273 7.37566 3.64023 7.44474C3.67773 7.51184 3.67773 7.58092 3.658 7.65395C3.51984 8.16316 3.38365 8.67237 3.24747 9.18158C3.22773 9.25461 3.22971 9.25855 3.30471 9.27829C3.60865 9.35921 3.91063 9.44013 4.21458 9.52105C4.33497 9.55263 4.45536 9.58619 4.57576 9.61776C4.63497 9.63355 4.64287 9.62961 4.65865 9.56842C4.65865 9.56645 4.65865 9.56448 4.66063 9.56448C4.79879 9.05132 4.93497 8.54013 5.0751 8.02698C5.083 7.99342 5.09681 7.96184 5.11458 7.93224C5.15997 7.85724 5.2705 7.79605 5.40668 7.83355C5.83694 7.95198 6.26918 8.06448 6.70142 8.18092C6.87708 8.22829 7.05471 8.27369 7.23037 8.32303C7.34879 8.35658 7.41984 8.45329 7.42379 8.56974Z" fill="#131113" stroke="#131113" stroke-width="0.857143" mask="url(#path-2-inside-1_13806_76125)"/>
</svg>
