<svg width="13" height="12" viewBox="0 0 13 12" fill="none" xmlns="http://www.w3.org/2000/svg">
<path d="M3.5 3.5C3.77614 3.5 4 3.27614 4 3C4 2.72386 3.77614 2.5 3.5 2.5C3.22386 2.5 3 2.72386 3 3C3 3.27614 3.22386 3.5 3.5 3.5Z" stroke="#131113" stroke-linecap="round" stroke-linejoin="round"/>
<path d="M6.5 3.5C6.77614 3.5 7 3.27614 7 3C7 2.72386 6.77614 2.5 6.5 2.5C6.22386 2.5 6 2.72386 6 3C6 3.27614 6.22386 3.5 6.5 3.5Z" stroke="#131113" stroke-linecap="round" stroke-linejoin="round"/>
<path d="M9.5 3.5C9.77614 3.5 10 3.27614 10 3C10 2.72386 9.77614 2.5 9.5 2.5C9.22386 2.5 9 2.72386 9 3C9 3.27614 9.22386 3.5 9.5 3.5Z" stroke="#131113" stroke-linecap="round" stroke-linejoin="round"/>
<path d="M3.5 6.5C3.77614 6.5 4 6.27614 4 6C4 5.72386 3.77614 5.5 3.5 5.5C3.22386 5.5 3 5.72386 3 6C3 6.27614 3.22386 6.5 3.5 6.5Z" stroke="black" stroke-linecap="round" stroke-linejoin="round"/>
<path d="M6.5 6.5C6.77614 6.5 7 6.27614 7 6C7 5.72386 6.77614 5.5 6.5 5.5C6.22386 5.5 6 5.72386 6 6C6 6.27614 6.22386 6.5 6.5 6.5Z" stroke="black" stroke-linecap="round" stroke-linejoin="round"/>
<path d="M9.5 6.5C9.77614 6.5 10 6.27614 10 6C10 5.72386 9.77614 5.5 9.5 5.5C9.22386 5.5 9 5.72386 9 6C9 6.27614 9.22386 6.5 9.5 6.5Z" stroke="black" stroke-linecap="round" stroke-linejoin="round"/>
<path d="M3.5 9.5C3.77614 9.5 4 9.27614 4 9C4 8.72386 3.77614 8.5 3.5 8.5C3.22386 8.5 3 8.72386 3 9C3 9.27614 3.22386 9.5 3.5 9.5Z" stroke="black" stroke-linecap="round" stroke-linejoin="round"/>
<path d="M6.5 9.5C6.77614 9.5 7 9.27614 7 9C7 8.72386 6.77614 8.5 6.5 8.5C6.22386 8.5 6 8.72386 6 9C6 9.27614 6.22386 9.5 6.5 9.5Z" stroke="black" stroke-linecap="round" stroke-linejoin="round"/>
<path d="M9.5 9.5C9.77614 9.5 10 9.27614 10 9C10 8.72386 9.77614 8.5 9.5 8.5C9.22386 8.5 9 8.72386 9 9C9 9.27614 9.22386 9.5 9.5 9.5Z" stroke="black" stroke-linecap="round" stroke-linejoin="round"/>
</svg>
